<?xml version="1.0" encoding="utf-8" standalone="no"?>
<!DOCTYPE svg PUBLIC "-//W3C//DTD SVG 1.1//EN"
  "http://www.w3.org/Graphics/SVG/1.1/DTD/svg11.dtd">
<!-- Created with matplotlib (http://matplotlib.org/) -->
<svg height="216pt" version="1.1" viewBox="0 0 288 216" width="288pt" xmlns="http://www.w3.org/2000/svg" xmlns:xlink="http://www.w3.org/1999/xlink">
 <defs>
  <style type="text/css">
*{stroke-linecap:butt;stroke-linejoin:round;}
  </style>
 </defs>
 <g id="figure_1">
  <g id="patch_1">
   <path d="M 0 216 
L 288 216 
L 288 0 
L 0 0 
z
" style="fill:#ffffff;"/>
  </g>
  <g id="axes_1">
   <g id="patch_2">
    <path d="M 64.028125 174.821875 
L 273.7 174.821875 
L 273.7 14.3 
L 64.028125 14.3 
z
" style="fill:#ffffff;"/>
   </g>
   <g id="matplotlib.axis_1">
    <g id="xtick_1">
     <g id="line2d_1">
      <defs>
       <path d="M 0 0 
L 0 3.5 
" id="meeabb82df6" style="stroke:#000000;stroke-width:0.8;"/>
      </defs>
      <g>
       <use style="stroke:#000000;stroke-width:0.8;" x="71.613657" xlink:href="#meeabb82df6" y="174.821875"/>
      </g>
     </g>
     <g id="text_1">
      <!-- 0 -->
      <defs>
       <path d="M 31.78125 66.40625 
Q 24.171875 66.40625 20.328125 58.90625 
Q 16.5 51.421875 16.5 36.375 
Q 16.5 21.390625 20.328125 13.890625 
Q 24.171875 6.390625 31.78125 6.390625 
Q 39.453125 6.390625 43.28125 13.890625 
Q 47.125 21.390625 47.125 36.375 
Q 47.125 51.421875 43.28125 58.90625 
Q 39.453125 66.40625 31.78125 66.40625 
M 31.78125 74.21875 
Q 44.046875 74.21875 50.515625 64.515625 
Q 56.984375 54.828125 56.984375 36.375 
Q 56.984375 17.96875 50.515625 8.265625 
Q 44.046875 -1.421875 31.78125 -1.421875 
Q 19.53125 -1.421875 13.0625 8.265625 
Q 6.59375 17.96875 6.59375 36.375 
Q 6.59375 54.828125 13.0625 64.515625 
Q 19.53125 74.21875 31.78125 74.21875 
" id="DejaVuSans-30"/>
      </defs>
      <g transform="translate(68.432407 189.420312)scale(0.1 -0.1)">
       <use xlink:href="#DejaVuSans-30"/>
      </g>
     </g>
    </g>
    <g id="xtick_2">
     <g id="line2d_2">
      <g>
       <use style="stroke:#000000;stroke-width:0.8;" x="136.447261" xlink:href="#meeabb82df6" y="174.821875"/>
      </g>
     </g>
     <g id="text_2">
      <!-- 100 -->
      <defs>
       <path d="M 12.40625 8.296875 
L 28.515625 8.296875 
L 28.515625 63.921875 
L 10.984375 60.40625 
L 10.984375 69.390625 
L 28.421875 72.90625 
L 38.28125 72.90625 
L 38.28125 8.296875 
L 54.390625 8.296875 
L 54.390625 0 
L 12.40625 0 
z
" id="DejaVuSans-31"/>
      </defs>
      <g transform="translate(126.903511 189.420312)scale(0.1 -0.1)">
       <use xlink:href="#DejaVuSans-31"/>
       <use x="63.623047" xlink:href="#DejaVuSans-30"/>
       <use x="127.246094" xlink:href="#DejaVuSans-30"/>
      </g>
     </g>
    </g>
    <g id="xtick_3">
     <g id="line2d_3">
      <g>
       <use style="stroke:#000000;stroke-width:0.8;" x="201.280864" xlink:href="#meeabb82df6" y="174.821875"/>
      </g>
     </g>
     <g id="text_3">
      <!-- 200 -->
      <defs>
       <path d="M 19.1875 8.296875 
L 53.609375 8.296875 
L 53.609375 0 
L 7.328125 0 
L 7.328125 8.296875 
Q 12.9375 14.109375 22.625 23.890625 
Q 32.328125 33.6875 34.8125 36.53125 
Q 39.546875 41.84375 41.421875 45.53125 
Q 43.3125 49.21875 43.3125 52.78125 
Q 43.3125 58.59375 39.234375 62.25 
Q 35.15625 65.921875 28.609375 65.921875 
Q 23.96875 65.921875 18.8125 64.3125 
Q 13.671875 62.703125 7.8125 59.421875 
L 7.8125 69.390625 
Q 13.765625 71.78125 18.9375 73 
Q 24.125 74.21875 28.421875 74.21875 
Q 39.75 74.21875 46.484375 68.546875 
Q 53.21875 62.890625 53.21875 53.421875 
Q 53.21875 48.921875 51.53125 44.890625 
Q 49.859375 40.875 45.40625 35.40625 
Q 44.1875 33.984375 37.640625 27.21875 
Q 31.109375 20.453125 19.1875 8.296875 
" id="DejaVuSans-32"/>
      </defs>
      <g transform="translate(191.737114 189.420312)scale(0.1 -0.1)">
       <use xlink:href="#DejaVuSans-32"/>
       <use x="63.623047" xlink:href="#DejaVuSans-30"/>
       <use x="127.246094" xlink:href="#DejaVuSans-30"/>
      </g>
     </g>
    </g>
    <g id="xtick_4">
     <g id="line2d_4">
      <g>
       <use style="stroke:#000000;stroke-width:0.8;" x="266.114468" xlink:href="#meeabb82df6" y="174.821875"/>
      </g>
     </g>
     <g id="text_4">
      <!-- 300 -->
      <defs>
       <path d="M 40.578125 39.3125 
Q 47.65625 37.796875 51.625 33 
Q 55.609375 28.21875 55.609375 21.1875 
Q 55.609375 10.40625 48.1875 4.484375 
Q 40.765625 -1.421875 27.09375 -1.421875 
Q 22.515625 -1.421875 17.65625 -0.515625 
Q 12.796875 0.390625 7.625 2.203125 
L 7.625 11.71875 
Q 11.71875 9.328125 16.59375 8.109375 
Q 21.484375 6.890625 26.8125 6.890625 
Q 36.078125 6.890625 40.9375 10.546875 
Q 45.796875 14.203125 45.796875 21.1875 
Q 45.796875 27.640625 41.28125 31.265625 
Q 36.765625 34.90625 28.71875 34.90625 
L 20.21875 34.90625 
L 20.21875 43.015625 
L 29.109375 43.015625 
Q 36.375 43.015625 40.234375 45.921875 
Q 44.09375 48.828125 44.09375 54.296875 
Q 44.09375 59.90625 40.109375 62.90625 
Q 36.140625 65.921875 28.71875 65.921875 
Q 24.65625 65.921875 20.015625 65.03125 
Q 15.375 64.15625 9.8125 62.3125 
L 9.8125 71.09375 
Q 15.4375 72.65625 20.34375 73.4375 
Q 25.25 74.21875 29.59375 74.21875 
Q 40.828125 74.21875 47.359375 69.109375 
Q 53.90625 64.015625 53.90625 55.328125 
Q 53.90625 49.265625 50.4375 45.09375 
Q 46.96875 40.921875 40.578125 39.3125 
" id="DejaVuSans-33"/>
      </defs>
      <g transform="translate(256.570718 189.420312)scale(0.1 -0.1)">
       <use xlink:href="#DejaVuSans-33"/>
       <use x="63.623047" xlink:href="#DejaVuSans-30"/>
       <use x="127.246094" xlink:href="#DejaVuSans-30"/>
      </g>
     </g>
    </g>
    <g id="text_5">
     <!-- distance $l$ (bp) -->
     <defs>
      <path d="M 45.40625 46.390625 
L 45.40625 75.984375 
L 54.390625 75.984375 
L 54.390625 0 
L 45.40625 0 
L 45.40625 8.203125 
Q 42.578125 3.328125 38.25 0.953125 
Q 33.9375 -1.421875 27.875 -1.421875 
Q 17.96875 -1.421875 11.734375 6.484375 
Q 5.515625 14.40625 5.515625 27.296875 
Q 5.515625 40.1875 11.734375 48.09375 
Q 17.96875 56 27.875 56 
Q 33.9375 56 38.25 53.625 
Q 42.578125 51.265625 45.40625 46.390625 
M 14.796875 27.296875 
Q 14.796875 17.390625 18.875 11.75 
Q 22.953125 6.109375 30.078125 6.109375 
Q 37.203125 6.109375 41.296875 11.75 
Q 45.40625 17.390625 45.40625 27.296875 
Q 45.40625 37.203125 41.296875 42.84375 
Q 37.203125 48.484375 30.078125 48.484375 
Q 22.953125 48.484375 18.875 42.84375 
Q 14.796875 37.203125 14.796875 27.296875 
" id="DejaVuSans-64"/>
      <path d="M 9.421875 54.6875 
L 18.40625 54.6875 
L 18.40625 0 
L 9.421875 0 
z
M 9.421875 75.984375 
L 18.40625 75.984375 
L 18.40625 64.59375 
L 9.421875 64.59375 
z
" id="DejaVuSans-69"/>
      <path d="M 44.28125 53.078125 
L 44.28125 44.578125 
Q 40.484375 46.53125 36.375 47.5 
Q 32.28125 48.484375 27.875 48.484375 
Q 21.1875 48.484375 17.84375 46.4375 
Q 14.5 44.390625 14.5 40.28125 
Q 14.5 37.15625 16.890625 35.375 
Q 19.28125 33.59375 26.515625 31.984375 
L 29.59375 31.296875 
Q 39.15625 29.25 43.1875 25.515625 
Q 47.21875 21.78125 47.21875 15.09375 
Q 47.21875 7.46875 41.1875 3.015625 
Q 35.15625 -1.421875 24.609375 -1.421875 
Q 20.21875 -1.421875 15.453125 -0.5625 
Q 10.6875 0.296875 5.421875 2 
L 5.421875 11.28125 
Q 10.40625 8.6875 15.234375 7.390625 
Q 20.0625 6.109375 24.8125 6.109375 
Q 31.15625 6.109375 34.5625 8.28125 
Q 37.984375 10.453125 37.984375 14.40625 
Q 37.984375 18.0625 35.515625 20.015625 
Q 33.0625 21.96875 24.703125 23.78125 
L 21.578125 24.515625 
Q 13.234375 26.265625 9.515625 29.90625 
Q 5.8125 33.546875 5.8125 39.890625 
Q 5.8125 47.609375 11.28125 51.796875 
Q 16.75 56 26.8125 56 
Q 31.78125 56 36.171875 55.265625 
Q 40.578125 54.546875 44.28125 53.078125 
" id="DejaVuSans-73"/>
      <path d="M 18.3125 70.21875 
L 18.3125 54.6875 
L 36.8125 54.6875 
L 36.8125 47.703125 
L 18.3125 47.703125 
L 18.3125 18.015625 
Q 18.3125 11.328125 20.140625 9.421875 
Q 21.96875 7.515625 27.59375 7.515625 
L 36.8125 7.515625 
L 36.8125 0 
L 27.59375 0 
Q 17.1875 0 13.234375 3.875 
Q 9.28125 7.765625 9.28125 18.015625 
L 9.28125 47.703125 
L 2.6875 47.703125 
L 2.6875 54.6875 
L 9.28125 54.6875 
L 9.28125 70.21875 
z
" id="DejaVuSans-74"/>
      <path d="M 34.28125 27.484375 
Q 23.390625 27.484375 19.1875 25 
Q 14.984375 22.515625 14.984375 16.5 
Q 14.984375 11.71875 18.140625 8.90625 
Q 21.296875 6.109375 26.703125 6.109375 
Q 34.1875 6.109375 38.703125 11.40625 
Q 43.21875 16.703125 43.21875 25.484375 
L 43.21875 27.484375 
z
M 52.203125 31.203125 
L 52.203125 0 
L 43.21875 0 
L 43.21875 8.296875 
Q 40.140625 3.328125 35.546875 0.953125 
Q 30.953125 -1.421875 24.3125 -1.421875 
Q 15.921875 -1.421875 10.953125 3.296875 
Q 6 8.015625 6 15.921875 
Q 6 25.140625 12.171875 29.828125 
Q 18.359375 34.515625 30.609375 34.515625 
L 43.21875 34.515625 
L 43.21875 35.40625 
Q 43.21875 41.609375 39.140625 45 
Q 35.0625 48.390625 27.6875 48.390625 
Q 23 48.390625 18.546875 47.265625 
Q 14.109375 46.140625 10.015625 43.890625 
L 10.015625 52.203125 
Q 14.9375 54.109375 19.578125 55.046875 
Q 24.21875 56 28.609375 56 
Q 40.484375 56 46.34375 49.84375 
Q 52.203125 43.703125 52.203125 31.203125 
" id="DejaVuSans-61"/>
      <path d="M 54.890625 33.015625 
L 54.890625 0 
L 45.90625 0 
L 45.90625 32.71875 
Q 45.90625 40.484375 42.875 44.328125 
Q 39.84375 48.1875 33.796875 48.1875 
Q 26.515625 48.1875 22.3125 43.546875 
Q 18.109375 38.921875 18.109375 30.90625 
L 18.109375 0 
L 9.078125 0 
L 9.078125 54.6875 
L 18.109375 54.6875 
L 18.109375 46.1875 
Q 21.34375 51.125 25.703125 53.5625 
Q 30.078125 56 35.796875 56 
Q 45.21875 56 50.046875 50.171875 
Q 54.890625 44.34375 54.890625 33.015625 
" id="DejaVuSans-6e"/>
      <path d="M 48.78125 52.59375 
L 48.78125 44.1875 
Q 44.96875 46.296875 41.140625 47.34375 
Q 37.3125 48.390625 33.40625 48.390625 
Q 24.65625 48.390625 19.8125 42.84375 
Q 14.984375 37.3125 14.984375 27.296875 
Q 14.984375 17.28125 19.8125 11.734375 
Q 24.65625 6.203125 33.40625 6.203125 
Q 37.3125 6.203125 41.140625 7.25 
Q 44.96875 8.296875 48.78125 10.40625 
L 48.78125 2.09375 
Q 45.015625 0.34375 40.984375 -0.53125 
Q 36.96875 -1.421875 32.421875 -1.421875 
Q 20.0625 -1.421875 12.78125 6.34375 
Q 5.515625 14.109375 5.515625 27.296875 
Q 5.515625 40.671875 12.859375 48.328125 
Q 20.21875 56 33.015625 56 
Q 37.15625 56 41.109375 55.140625 
Q 45.0625 54.296875 48.78125 52.59375 
" id="DejaVuSans-63"/>
      <path d="M 56.203125 29.59375 
L 56.203125 25.203125 
L 14.890625 25.203125 
Q 15.484375 15.921875 20.484375 11.0625 
Q 25.484375 6.203125 34.421875 6.203125 
Q 39.59375 6.203125 44.453125 7.46875 
Q 49.3125 8.734375 54.109375 11.28125 
L 54.109375 2.78125 
Q 49.265625 0.734375 44.1875 -0.34375 
Q 39.109375 -1.421875 33.890625 -1.421875 
Q 20.796875 -1.421875 13.15625 6.1875 
Q 5.515625 13.8125 5.515625 26.8125 
Q 5.515625 40.234375 12.765625 48.109375 
Q 20.015625 56 32.328125 56 
Q 43.359375 56 49.78125 48.890625 
Q 56.203125 41.796875 56.203125 29.59375 
M 47.21875 32.234375 
Q 47.125 39.59375 43.09375 43.984375 
Q 39.0625 48.390625 32.421875 48.390625 
Q 24.90625 48.390625 20.390625 44.140625 
Q 15.875 39.890625 15.1875 32.171875 
z
" id="DejaVuSans-65"/>
      <path id="DejaVuSans-20"/>
      <path d="M 18.3125 75.984375 
L 27.296875 75.984375 
L 12.5 0 
L 3.515625 0 
z
" id="DejaVuSans-Oblique-6c"/>
      <path d="M 31 75.875 
Q 24.46875 64.65625 21.28125 53.65625 
Q 18.109375 42.671875 18.109375 31.390625 
Q 18.109375 20.125 21.3125 9.0625 
Q 24.515625 -2 31 -13.1875 
L 23.1875 -13.1875 
Q 15.875 -1.703125 12.234375 9.375 
Q 8.59375 20.453125 8.59375 31.390625 
Q 8.59375 42.28125 12.203125 53.3125 
Q 15.828125 64.359375 23.1875 75.875 
z
" id="DejaVuSans-28"/>
      <path d="M 48.6875 27.296875 
Q 48.6875 37.203125 44.609375 42.84375 
Q 40.53125 48.484375 33.40625 48.484375 
Q 26.265625 48.484375 22.1875 42.84375 
Q 18.109375 37.203125 18.109375 27.296875 
Q 18.109375 17.390625 22.1875 11.75 
Q 26.265625 6.109375 33.40625 6.109375 
Q 40.53125 6.109375 44.609375 11.75 
Q 48.6875 17.390625 48.6875 27.296875 
M 18.109375 46.390625 
Q 20.953125 51.265625 25.265625 53.625 
Q 29.59375 56 35.59375 56 
Q 45.5625 56 51.78125 48.09375 
Q 58.015625 40.1875 58.015625 27.296875 
Q 58.015625 14.40625 51.78125 6.484375 
Q 45.5625 -1.421875 35.59375 -1.421875 
Q 29.59375 -1.421875 25.265625 0.953125 
Q 20.953125 3.328125 18.109375 8.203125 
L 18.109375 0 
L 9.078125 0 
L 9.078125 75.984375 
L 18.109375 75.984375 
z
" id="DejaVuSans-62"/>
      <path d="M 18.109375 8.203125 
L 18.109375 -20.796875 
L 9.078125 -20.796875 
L 9.078125 54.6875 
L 18.109375 54.6875 
L 18.109375 46.390625 
Q 20.953125 51.265625 25.265625 53.625 
Q 29.59375 56 35.59375 56 
Q 45.5625 56 51.78125 48.09375 
Q 58.015625 40.1875 58.015625 27.296875 
Q 58.015625 14.40625 51.78125 6.484375 
Q 45.5625 -1.421875 35.59375 -1.421875 
Q 29.59375 -1.421875 25.265625 0.953125 
Q 20.953125 3.328125 18.109375 8.203125 
M 48.6875 27.296875 
Q 48.6875 37.203125 44.609375 42.84375 
Q 40.53125 48.484375 33.40625 48.484375 
Q 26.265625 48.484375 22.1875 42.84375 
Q 18.109375 37.203125 18.109375 27.296875 
Q 18.109375 17.390625 22.1875 11.75 
Q 26.265625 6.109375 33.40625 6.109375 
Q 40.53125 6.109375 44.609375 11.75 
Q 48.6875 17.390625 48.6875 27.296875 
" id="DejaVuSans-70"/>
      <path d="M 8.015625 75.875 
L 15.828125 75.875 
Q 23.140625 64.359375 26.78125 53.3125 
Q 30.421875 42.28125 30.421875 31.390625 
Q 30.421875 20.453125 26.78125 9.375 
Q 23.140625 -1.703125 15.828125 -13.1875 
L 8.015625 -13.1875 
Q 14.5 -2 17.703125 9.0625 
Q 20.90625 20.125 20.90625 31.390625 
Q 20.90625 42.671875 17.703125 53.65625 
Q 14.5 64.65625 8.015625 75.875 
" id="DejaVuSans-29"/>
     </defs>
     <g transform="translate(132.814063 203.1)scale(0.1 -0.1)">
      <use transform="translate(0 0.015625)" xlink:href="#DejaVuSans-64"/>
      <use transform="translate(63.476562 0.015625)" xlink:href="#DejaVuSans-69"/>
      <use transform="translate(91.259766 0.015625)" xlink:href="#DejaVuSans-73"/>
      <use transform="translate(143.359375 0.015625)" xlink:href="#DejaVuSans-74"/>
      <use transform="translate(182.568359 0.015625)" xlink:href="#DejaVuSans-61"/>
      <use transform="translate(243.847656 0.015625)" xlink:href="#DejaVuSans-6e"/>
      <use transform="translate(307.226562 0.015625)" xlink:href="#DejaVuSans-63"/>
      <use transform="translate(362.207031 0.015625)" xlink:href="#DejaVuSans-65"/>
      <use transform="translate(423.730469 0.015625)" xlink:href="#DejaVuSans-20"/>
      <use transform="translate(455.517578 0.015625)" xlink:href="#DejaVuSans-Oblique-6c"/>
      <use transform="translate(483.300781 0.015625)" xlink:href="#DejaVuSans-20"/>
      <use transform="translate(515.087891 0.015625)" xlink:href="#DejaVuSans-28"/>
      <use transform="translate(554.101562 0.015625)" xlink:href="#DejaVuSans-62"/>
      <use transform="translate(617.578125 0.015625)" xlink:href="#DejaVuSans-70"/>
      <use transform="translate(681.054688 0.015625)" xlink:href="#DejaVuSans-29"/>
     </g>
    </g>
   </g>
   <g id="matplotlib.axis_2">
    <g id="ytick_1">
     <g id="line2d_5">
      <defs>
       <path d="M 0 0 
L -3.5 0 
" id="m92ecfd31db" style="stroke:#000000;stroke-width:0.8;"/>
      </defs>
      <g>
       <use style="stroke:#000000;stroke-width:0.8;" x="64.028125" xlink:href="#m92ecfd31db" y="168.626871"/>
      </g>
     </g>
     <g id="text_6">
      <!-- 0.000 -->
      <defs>
       <path d="M 10.6875 12.40625 
L 21 12.40625 
L 21 0 
L 10.6875 0 
z
" id="DejaVuSans-2e"/>
      </defs>
      <g transform="translate(28.4 172.42609)scale(0.1 -0.1)">
       <use xlink:href="#DejaVuSans-30"/>
       <use x="63.623047" xlink:href="#DejaVuSans-2e"/>
       <use x="95.410156" xlink:href="#DejaVuSans-30"/>
       <use x="159.033203" xlink:href="#DejaVuSans-30"/>
       <use x="222.65625" xlink:href="#DejaVuSans-30"/>
      </g>
     </g>
    </g>
    <g id="ytick_2">
     <g id="line2d_6">
      <g>
       <use style="stroke:#000000;stroke-width:0.8;" x="64.028125" xlink:href="#m92ecfd31db" y="150.717122"/>
      </g>
     </g>
     <g id="text_7">
      <!-- 0.005 -->
      <defs>
       <path d="M 10.796875 72.90625 
L 49.515625 72.90625 
L 49.515625 64.59375 
L 19.828125 64.59375 
L 19.828125 46.734375 
Q 21.96875 47.46875 24.109375 47.828125 
Q 26.265625 48.1875 28.421875 48.1875 
Q 40.625 48.1875 47.75 41.5 
Q 54.890625 34.8125 54.890625 23.390625 
Q 54.890625 11.625 47.5625 5.09375 
Q 40.234375 -1.421875 26.90625 -1.421875 
Q 22.3125 -1.421875 17.546875 -0.640625 
Q 12.796875 0.140625 7.71875 1.703125 
L 7.71875 11.625 
Q 12.109375 9.234375 16.796875 8.0625 
Q 21.484375 6.890625 26.703125 6.890625 
Q 35.15625 6.890625 40.078125 11.328125 
Q 45.015625 15.765625 45.015625 23.390625 
Q 45.015625 31 40.078125 35.4375 
Q 35.15625 39.890625 26.703125 39.890625 
Q 22.75 39.890625 18.8125 39.015625 
Q 14.890625 38.140625 10.796875 36.28125 
z
" id="DejaVuSans-35"/>
      </defs>
      <g transform="translate(28.4 154.516341)scale(0.1 -0.1)">
       <use xlink:href="#DejaVuSans-30"/>
       <use x="63.623047" xlink:href="#DejaVuSans-2e"/>
       <use x="95.410156" xlink:href="#DejaVuSans-30"/>
       <use x="159.033203" xlink:href="#DejaVuSans-30"/>
       <use x="222.65625" xlink:href="#DejaVuSans-35"/>
      </g>
     </g>
    </g>
    <g id="ytick_3">
     <g id="line2d_7">
      <g>
       <use style="stroke:#000000;stroke-width:0.8;" x="64.028125" xlink:href="#m92ecfd31db" y="132.807373"/>
      </g>
     </g>
     <g id="text_8">
      <!-- 0.010 -->
      <g transform="translate(28.4 136.606592)scale(0.1 -0.1)">
       <use xlink:href="#DejaVuSans-30"/>
       <use x="63.623047" xlink:href="#DejaVuSans-2e"/>
       <use x="95.410156" xlink:href="#DejaVuSans-30"/>
       <use x="159.033203" xlink:href="#DejaVuSans-31"/>
       <use x="222.65625" xlink:href="#DejaVuSans-30"/>
      </g>
     </g>
    </g>
    <g id="ytick_4">
     <g id="line2d_8">
      <g>
       <use style="stroke:#000000;stroke-width:0.8;" x="64.028125" xlink:href="#m92ecfd31db" y="114.897624"/>
      </g>
     </g>
     <g id="text_9">
      <!-- 0.015 -->
      <g transform="translate(28.4 118.696843)scale(0.1 -0.1)">
       <use xlink:href="#DejaVuSans-30"/>
       <use x="63.623047" xlink:href="#DejaVuSans-2e"/>
       <use x="95.410156" xlink:href="#DejaVuSans-30"/>
       <use x="159.033203" xlink:href="#DejaVuSans-31"/>
       <use x="222.65625" xlink:href="#DejaVuSans-35"/>
      </g>
     </g>
    </g>
    <g id="ytick_5">
     <g id="line2d_9">
      <g>
       <use style="stroke:#000000;stroke-width:0.8;" x="64.028125" xlink:href="#m92ecfd31db" y="96.987875"/>
      </g>
     </g>
     <g id="text_10">
      <!-- 0.020 -->
      <g transform="translate(28.4 100.787094)scale(0.1 -0.1)">
       <use xlink:href="#DejaVuSans-30"/>
       <use x="63.623047" xlink:href="#DejaVuSans-2e"/>
       <use x="95.410156" xlink:href="#DejaVuSans-30"/>
       <use x="159.033203" xlink:href="#DejaVuSans-32"/>
       <use x="222.65625" xlink:href="#DejaVuSans-30"/>
      </g>
     </g>
    </g>
    <g id="ytick_6">
     <g id="line2d_10">
      <g>
       <use style="stroke:#000000;stroke-width:0.8;" x="64.028125" xlink:href="#m92ecfd31db" y="79.078126"/>
      </g>
     </g>
     <g id="text_11">
      <!-- 0.025 -->
      <g transform="translate(28.4 82.877345)scale(0.1 -0.1)">
       <use xlink:href="#DejaVuSans-30"/>
       <use x="63.623047" xlink:href="#DejaVuSans-2e"/>
       <use x="95.410156" xlink:href="#DejaVuSans-30"/>
       <use x="159.033203" xlink:href="#DejaVuSans-32"/>
       <use x="222.65625" xlink:href="#DejaVuSans-35"/>
      </g>
     </g>
    </g>
    <g id="ytick_7">
     <g id="line2d_11">
      <g>
       <use style="stroke:#000000;stroke-width:0.8;" x="64.028125" xlink:href="#m92ecfd31db" y="61.168377"/>
      </g>
     </g>
     <g id="text_12">
      <!-- 0.030 -->
      <g transform="translate(28.4 64.967596)scale(0.1 -0.1)">
       <use xlink:href="#DejaVuSans-30"/>
       <use x="63.623047" xlink:href="#DejaVuSans-2e"/>
       <use x="95.410156" xlink:href="#DejaVuSans-30"/>
       <use x="159.033203" xlink:href="#DejaVuSans-33"/>
       <use x="222.65625" xlink:href="#DejaVuSans-30"/>
      </g>
     </g>
    </g>
    <g id="ytick_8">
     <g id="line2d_12">
      <g>
       <use style="stroke:#000000;stroke-width:0.8;" x="64.028125" xlink:href="#m92ecfd31db" y="43.258629"/>
      </g>
     </g>
     <g id="text_13">
      <!-- 0.035 -->
      <g transform="translate(28.4 47.057847)scale(0.1 -0.1)">
       <use xlink:href="#DejaVuSans-30"/>
       <use x="63.623047" xlink:href="#DejaVuSans-2e"/>
       <use x="95.410156" xlink:href="#DejaVuSans-30"/>
       <use x="159.033203" xlink:href="#DejaVuSans-33"/>
       <use x="222.65625" xlink:href="#DejaVuSans-35"/>
      </g>
     </g>
    </g>
    <g id="ytick_9">
     <g id="line2d_13">
      <g>
       <use style="stroke:#000000;stroke-width:0.8;" x="64.028125" xlink:href="#m92ecfd31db" y="25.34888"/>
      </g>
     </g>
     <g id="text_14">
      <!-- 0.040 -->
      <defs>
       <path d="M 37.796875 64.3125 
L 12.890625 25.390625 
L 37.796875 25.390625 
z
M 35.203125 72.90625 
L 47.609375 72.90625 
L 47.609375 25.390625 
L 58.015625 25.390625 
L 58.015625 17.1875 
L 47.609375 17.1875 
L 47.609375 0 
L 37.796875 0 
L 37.796875 17.1875 
L 4.890625 17.1875 
L 4.890625 26.703125 
z
" id="DejaVuSans-34"/>
      </defs>
      <g transform="translate(28.4 29.148098)scale(0.1 -0.1)">
       <use xlink:href="#DejaVuSans-30"/>
       <use x="63.623047" xlink:href="#DejaVuSans-2e"/>
       <use x="95.410156" xlink:href="#DejaVuSans-30"/>
       <use x="159.033203" xlink:href="#DejaVuSans-34"/>
       <use x="222.65625" xlink:href="#DejaVuSans-30"/>
      </g>
     </g>
    </g>
    <g id="text_15">
     <!-- $\tilde P^{(4)}_{s,2}$ -->
     <defs>
      <path d="M -25.328125 66.890625 
L -28.109375 69.578125 
Q -29.171875 70.5625 -29.984375 71.015625 
Q -30.796875 71.484375 -31.421875 71.484375 
Q -33.28125 71.484375 -34.15625 69.703125 
Q -35.03125 67.921875 -35.140625 63.921875 
L -41.234375 63.921875 
Q -41.140625 70.515625 -38.640625 74.09375 
Q -36.15625 77.6875 -31.71875 77.6875 
Q -29.859375 77.6875 -28.296875 77 
Q -26.734375 76.3125 -24.9375 74.703125 
L -22.140625 72.015625 
Q -21.078125 71.046875 -20.265625 70.578125 
Q -19.46875 70.125 -18.828125 70.125 
Q -16.96875 70.125 -16.09375 71.90625 
Q -15.21875 73.6875 -15.109375 77.6875 
L -9.015625 77.6875 
Q -9.109375 71.09375 -11.59375 67.5 
Q -14.09375 63.921875 -18.53125 63.921875 
Q -20.390625 63.921875 -21.953125 64.59375 
Q -23.515625 65.28125 -25.328125 66.890625 
" id="DejaVuSans-303"/>
      <path d="M 16.890625 72.90625 
L 39.703125 72.90625 
Q 49.65625 72.90625 54.875 68.265625 
Q 60.109375 63.625 60.109375 54.6875 
Q 60.109375 42.671875 52.390625 35.984375 
Q 44.671875 29.296875 30.71875 29.296875 
L 18.3125 29.296875 
L 12.59375 0 
L 2.6875 0 
z
M 25.203125 64.796875 
L 19.921875 37.40625 
L 32.328125 37.40625 
Q 40.71875 37.40625 45.203125 41.703125 
Q 49.703125 46 49.703125 54 
Q 49.703125 59.125 46.65625 61.953125 
Q 43.609375 64.796875 38.09375 64.796875 
z
" id="DejaVuSans-Oblique-50"/>
      <path d="M 50 53.078125 
L 48.296875 44.578125 
Q 44.734375 46.53125 40.765625 47.5 
Q 36.8125 48.484375 32.625 48.484375 
Q 25.53125 48.484375 21.453125 46.0625 
Q 17.390625 43.65625 17.390625 39.5 
Q 17.390625 34.671875 26.859375 32.078125 
Q 27.59375 31.890625 27.9375 31.78125 
L 30.8125 30.90625 
Q 39.796875 28.421875 42.796875 25.6875 
Q 45.796875 22.953125 45.796875 18.21875 
Q 45.796875 9.515625 38.890625 4.046875 
Q 31.984375 -1.421875 20.796875 -1.421875 
Q 16.453125 -1.421875 11.671875 -0.578125 
Q 6.890625 0.25 1.125 2 
L 2.875 11.28125 
Q 7.8125 8.734375 12.59375 7.421875 
Q 17.390625 6.109375 21.78125 6.109375 
Q 28.375 6.109375 32.5 8.9375 
Q 36.625 11.765625 36.625 16.109375 
Q 36.625 20.796875 25.78125 23.6875 
L 24.859375 23.921875 
L 21.78125 24.703125 
Q 14.9375 26.515625 11.765625 29.46875 
Q 8.59375 32.421875 8.59375 37.015625 
Q 8.59375 45.75 15.15625 50.875 
Q 21.734375 56 33.015625 56 
Q 37.453125 56 41.671875 55.265625 
Q 45.90625 54.546875 50 53.078125 
" id="DejaVuSans-Oblique-73"/>
      <path d="M 11.71875 12.40625 
L 22.015625 12.40625 
L 22.015625 4 
L 14.015625 -11.625 
L 7.71875 -11.625 
L 11.71875 4 
z
" id="DejaVuSans-2c"/>
     </defs>
     <g transform="translate(20.8 103.610938)rotate(-90)scale(0.1 -0.1)">
      <use transform="translate(60.589844 22.03125)" xlink:href="#DejaVuSans-303"/>
      <use transform="translate(0 0.546875)" xlink:href="#DejaVuSans-Oblique-50"/>
      <use transform="translate(61.259766 46.8875)scale(0.7)" xlink:href="#DejaVuSans-28"/>
      <use transform="translate(88.569336 46.8875)scale(0.7)" xlink:href="#DejaVuSans-34"/>
      <use transform="translate(133.105469 46.8875)scale(0.7)" xlink:href="#DejaVuSans-29"/>
      <use transform="translate(61.259766 -26.796875)scale(0.7)" xlink:href="#DejaVuSans-Oblique-73"/>
      <use transform="translate(97.729492 -26.796875)scale(0.7)" xlink:href="#DejaVuSans-2c"/>
      <use transform="translate(133.618164 -26.796875)scale(0.7)" xlink:href="#DejaVuSans-32"/>
     </g>
    </g>
   </g>
   <g id="line2d_14">
    <defs>
     <path d="M 0 2 
C 0.530406 2 1.03916 1.789267 1.414214 1.414214 
C 1.789267 1.03916 2 0.530406 2 0 
C 2 -0.530406 1.789267 -1.03916 1.414214 -1.414214 
C 1.03916 -1.789267 0.530406 -2 0 -2 
C -0.530406 -2 -1.03916 -1.789267 -1.414214 -1.414214 
C -1.789267 -1.03916 -2 -0.530406 -2 0 
C -2 0.530406 -1.789267 1.03916 -1.414214 1.414214 
C -1.03916 1.789267 -0.530406 2 0 2 
z
" id="m4bd3e1e536" style="stroke:#ff0000;stroke-width:0.75;"/>
    </defs>
    <g clip-path="url(#pd5639270c6)">
     <use style="fill:none;stroke:#ff0000;stroke-width:0.75;" x="73.558665" xlink:href="#m4bd3e1e536" y="21.596449"/>
     <use style="fill:none;stroke:#ff0000;stroke-width:0.75;" x="75.503673" xlink:href="#m4bd3e1e536" y="44.99084"/>
     <use style="fill:none;stroke:#ff0000;stroke-width:0.75;" x="77.448681" xlink:href="#m4bd3e1e536" y="59.562964"/>
     <use style="fill:none;stroke:#ff0000;stroke-width:0.75;" x="79.393689" xlink:href="#m4bd3e1e536" y="52.906565"/>
     <use style="fill:none;stroke:#ff0000;stroke-width:0.75;" x="81.338697" xlink:href="#m4bd3e1e536" y="77.265732"/>
     <use style="fill:none;stroke:#ff0000;stroke-width:0.75;" x="83.283705" xlink:href="#m4bd3e1e536" y="65.345183"/>
     <use style="fill:none;stroke:#ff0000;stroke-width:0.75;" x="85.228713" xlink:href="#m4bd3e1e536" y="85.375198"/>
     <use style="fill:none;stroke:#ff0000;stroke-width:0.75;" x="87.173722" xlink:href="#m4bd3e1e536" y="87.44477"/>
     <use style="fill:none;stroke:#ff0000;stroke-width:0.75;" x="89.11873" xlink:href="#m4bd3e1e536" y="92.585835"/>
     <use style="fill:none;stroke:#ff0000;stroke-width:0.75;" x="91.063738" xlink:href="#m4bd3e1e536" y="78.4921"/>
     <use style="fill:none;stroke:#ff0000;stroke-width:0.75;" x="93.008746" xlink:href="#m4bd3e1e536" y="104.604371"/>
     <use style="fill:none;stroke:#ff0000;stroke-width:0.75;" x="94.953754" xlink:href="#m4bd3e1e536" y="112.398168"/>
     <use style="fill:none;stroke:#ff0000;stroke-width:0.75;" x="96.898762" xlink:href="#m4bd3e1e536" y="106.50872"/>
     <use style="fill:none;stroke:#ff0000;stroke-width:0.75;" x="98.84377" xlink:href="#m4bd3e1e536" y="110.322312"/>
     <use style="fill:none;stroke:#ff0000;stroke-width:0.75;" x="100.788778" xlink:href="#m4bd3e1e536" y="113.693423"/>
     <use style="fill:none;stroke:#ff0000;stroke-width:0.75;" x="102.733787" xlink:href="#m4bd3e1e536" y="122.618542"/>
     <use style="fill:none;stroke:#ff0000;stroke-width:0.75;" x="104.678795" xlink:href="#m4bd3e1e536" y="127.806789"/>
     <use style="fill:none;stroke:#ff0000;stroke-width:0.75;" x="106.623803" xlink:href="#m4bd3e1e536" y="135.744063"/>
     <use style="fill:none;stroke:#ff0000;stroke-width:0.75;" x="108.568811" xlink:href="#m4bd3e1e536" y="125.510397"/>
     <use style="fill:none;stroke:#ff0000;stroke-width:0.75;" x="110.513819" xlink:href="#m4bd3e1e536" y="134.760605"/>
    </g>
   </g>
   <g id="line2d_15">
    <defs>
     <path d="M 0 2 
C 0.530406 2 1.03916 1.789267 1.414214 1.414214 
C 1.789267 1.03916 2 0.530406 2 0 
C 2 -0.530406 1.789267 -1.03916 1.414214 -1.414214 
C 1.03916 -1.789267 0.530406 -2 0 -2 
C -0.530406 -2 -1.03916 -1.789267 -1.414214 -1.414214 
C -1.789267 -1.03916 -2 -0.530406 -2 0 
C -2 0.530406 -1.789267 1.03916 -1.414214 1.414214 
C -1.03916 1.789267 -0.530406 2 0 2 
z
" id="m7b857813bd" style="stroke:#000000;stroke-width:0.75;"/>
    </defs>
    <g clip-path="url(#pd5639270c6)">
     <use style="fill:none;stroke:#000000;stroke-width:0.75;" x="112.458827" xlink:href="#m7b857813bd" y="138.522327"/>
     <use style="fill:none;stroke:#000000;stroke-width:0.75;" x="114.403835" xlink:href="#m7b857813bd" y="143.081674"/>
     <use style="fill:none;stroke:#000000;stroke-width:0.75;" x="116.348843" xlink:href="#m7b857813bd" y="139.466724"/>
     <use style="fill:none;stroke:#000000;stroke-width:0.75;" x="118.293851" xlink:href="#m7b857813bd" y="131.28393"/>
     <use style="fill:none;stroke:#000000;stroke-width:0.75;" x="120.23886" xlink:href="#m7b857813bd" y="149.027061"/>
     <use style="fill:none;stroke:#000000;stroke-width:0.75;" x="122.183868" xlink:href="#m7b857813bd" y="147.423575"/>
     <use style="fill:none;stroke:#000000;stroke-width:0.75;" x="124.128876" xlink:href="#m7b857813bd" y="160.441165"/>
     <use style="fill:none;stroke:#000000;stroke-width:0.75;" x="126.073884" xlink:href="#m7b857813bd" y="152.374205"/>
     <use style="fill:none;stroke:#000000;stroke-width:0.75;" x="128.018892" xlink:href="#m7b857813bd" y="156.234958"/>
     <use style="fill:none;stroke:#000000;stroke-width:0.75;" x="129.9639" xlink:href="#m7b857813bd" y="145.788572"/>
     <use style="fill:none;stroke:#000000;stroke-width:0.75;" x="131.908908" xlink:href="#m7b857813bd" y="161.472468"/>
     <use style="fill:none;stroke:#000000;stroke-width:0.75;" x="133.853916" xlink:href="#m7b857813bd" y="151.748578"/>
     <use style="fill:none;stroke:#000000;stroke-width:0.75;" x="135.798925" xlink:href="#m7b857813bd" y="163.370308"/>
     <use style="fill:none;stroke:#000000;stroke-width:0.75;" x="137.743933" xlink:href="#m7b857813bd" y="161.144672"/>
     <use style="fill:none;stroke:#000000;stroke-width:0.75;" x="139.688941" xlink:href="#m7b857813bd" y="153.030789"/>
     <use style="fill:none;stroke:#000000;stroke-width:0.75;" x="141.633949" xlink:href="#m7b857813bd" y="157.61345"/>
     <use style="fill:none;stroke:#000000;stroke-width:0.75;" x="143.578957" xlink:href="#m7b857813bd" y="154.504475"/>
     <use style="fill:none;stroke:#000000;stroke-width:0.75;" x="145.523965" xlink:href="#m7b857813bd" y="165.015585"/>
     <use style="fill:none;stroke:#000000;stroke-width:0.75;" x="147.468973" xlink:href="#m7b857813bd" y="157.837773"/>
     <use style="fill:none;stroke:#000000;stroke-width:0.75;" x="149.413981" xlink:href="#m7b857813bd" y="161.646053"/>
     <use style="fill:none;stroke:#000000;stroke-width:0.75;" x="151.358989" xlink:href="#m7b857813bd" y="152.296899"/>
     <use style="fill:none;stroke:#000000;stroke-width:0.75;" x="153.303998" xlink:href="#m7b857813bd" y="154.222744"/>
     <use style="fill:none;stroke:#000000;stroke-width:0.75;" x="155.249006" xlink:href="#m7b857813bd" y="166.681808"/>
     <use style="fill:none;stroke:#000000;stroke-width:0.75;" x="157.194014" xlink:href="#m7b857813bd" y="167.285356"/>
     <use style="fill:none;stroke:#000000;stroke-width:0.75;" x="159.139022" xlink:href="#m7b857813bd" y="163.996631"/>
     <use style="fill:none;stroke:#000000;stroke-width:0.75;" x="161.08403" xlink:href="#m7b857813bd" y="163.626601"/>
     <use style="fill:none;stroke:#000000;stroke-width:0.75;" x="163.029038" xlink:href="#m7b857813bd" y="164.859544"/>
     <use style="fill:none;stroke:#000000;stroke-width:0.75;" x="164.974046" xlink:href="#m7b857813bd" y="162.634948"/>
     <use style="fill:none;stroke:#000000;stroke-width:0.75;" x="166.919054" xlink:href="#m7b857813bd" y="158.772404"/>
     <use style="fill:none;stroke:#000000;stroke-width:0.75;" x="168.864063" xlink:href="#m7b857813bd" y="162.477831"/>
     <use style="fill:none;stroke:#000000;stroke-width:0.75;" x="170.809071" xlink:href="#m7b857813bd" y="164.504709"/>
     <use style="fill:none;stroke:#000000;stroke-width:0.75;" x="172.754079" xlink:href="#m7b857813bd" y="165.38586"/>
     <use style="fill:none;stroke:#000000;stroke-width:0.75;" x="174.699087" xlink:href="#m7b857813bd" y="154.926391"/>
     <use style="fill:none;stroke:#000000;stroke-width:0.75;" x="176.644095" xlink:href="#m7b857813bd" y="158.082557"/>
     <use style="fill:none;stroke:#000000;stroke-width:0.75;" x="178.589103" xlink:href="#m7b857813bd" y="159.479357"/>
     <use style="fill:none;stroke:#000000;stroke-width:0.75;" x="180.534111" xlink:href="#m7b857813bd" y="161.772637"/>
     <use style="fill:none;stroke:#000000;stroke-width:0.75;" x="182.479119" xlink:href="#m7b857813bd" y="144.998783"/>
     <use style="fill:none;stroke:#000000;stroke-width:0.75;" x="184.424127" xlink:href="#m7b857813bd" y="155.203749"/>
     <use style="fill:none;stroke:#000000;stroke-width:0.75;" x="186.369136" xlink:href="#m7b857813bd" y="163.320116"/>
     <use style="fill:none;stroke:#000000;stroke-width:0.75;" x="188.314144" xlink:href="#m7b857813bd" y="156.25395"/>
     <use style="fill:none;stroke:#000000;stroke-width:0.75;" x="190.259152" xlink:href="#m7b857813bd" y="157.619736"/>
     <use style="fill:none;stroke:#000000;stroke-width:0.75;" x="192.20416" xlink:href="#m7b857813bd" y="159.858902"/>
     <use style="fill:none;stroke:#000000;stroke-width:0.75;" x="194.149168" xlink:href="#m7b857813bd" y="167.072632"/>
     <use style="fill:none;stroke:#000000;stroke-width:0.75;" x="196.094176" xlink:href="#m7b857813bd" y="167.525426"/>
     <use style="fill:none;stroke:#000000;stroke-width:0.75;" x="198.039184" xlink:href="#m7b857813bd" y="165.022647"/>
     <use style="fill:none;stroke:#000000;stroke-width:0.75;" x="199.984192" xlink:href="#m7b857813bd" y="160.266917"/>
     <use style="fill:none;stroke:#000000;stroke-width:0.75;" x="201.9292" xlink:href="#m7b857813bd" y="159.078059"/>
     <use style="fill:none;stroke:#000000;stroke-width:0.75;" x="203.874209" xlink:href="#m7b857813bd" y="162.70812"/>
     <use style="fill:none;stroke:#000000;stroke-width:0.75;" x="205.819217" xlink:href="#m7b857813bd" y="156.265224"/>
     <use style="fill:none;stroke:#000000;stroke-width:0.75;" x="207.764225" xlink:href="#m7b857813bd" y="161.156443"/>
     <use style="fill:none;stroke:#000000;stroke-width:0.75;" x="209.709233" xlink:href="#m7b857813bd" y="163.721079"/>
     <use style="fill:none;stroke:#000000;stroke-width:0.75;" x="211.654241" xlink:href="#m7b857813bd" y="163.267765"/>
     <use style="fill:none;stroke:#000000;stroke-width:0.75;" x="213.599249" xlink:href="#m7b857813bd" y="165.090067"/>
     <use style="fill:none;stroke:#000000;stroke-width:0.75;" x="215.544257" xlink:href="#m7b857813bd" y="159.518781"/>
     <use style="fill:none;stroke:#000000;stroke-width:0.75;" x="217.489265" xlink:href="#m7b857813bd" y="156.779221"/>
     <use style="fill:none;stroke:#000000;stroke-width:0.75;" x="219.434274" xlink:href="#m7b857813bd" y="158.070094"/>
     <use style="fill:none;stroke:#000000;stroke-width:0.75;" x="221.379282" xlink:href="#m7b857813bd" y="164.893804"/>
     <use style="fill:none;stroke:#000000;stroke-width:0.75;" x="223.32429" xlink:href="#m7b857813bd" y="165.208068"/>
     <use style="fill:none;stroke:#000000;stroke-width:0.75;" x="225.269298" xlink:href="#m7b857813bd" y="159.617076"/>
     <use style="fill:none;stroke:#000000;stroke-width:0.75;" x="227.214306" xlink:href="#m7b857813bd" y="161.601021"/>
     <use style="fill:none;stroke:#000000;stroke-width:0.75;" x="229.159314" xlink:href="#m7b857813bd" y="157.160137"/>
     <use style="fill:none;stroke:#000000;stroke-width:0.75;" x="231.104322" xlink:href="#m7b857813bd" y="161.493429"/>
     <use style="fill:none;stroke:#000000;stroke-width:0.75;" x="233.04933" xlink:href="#m7b857813bd" y="161.549466"/>
     <use style="fill:none;stroke:#000000;stroke-width:0.75;" x="234.994338" xlink:href="#m7b857813bd" y="153.748878"/>
     <use style="fill:none;stroke:#000000;stroke-width:0.75;" x="236.939347" xlink:href="#m7b857813bd" y="153.184885"/>
     <use style="fill:none;stroke:#000000;stroke-width:0.75;" x="238.884355" xlink:href="#m7b857813bd" y="158.922694"/>
     <use style="fill:none;stroke:#000000;stroke-width:0.75;" x="240.829363" xlink:href="#m7b857813bd" y="156.452341"/>
     <use style="fill:none;stroke:#000000;stroke-width:0.75;" x="242.774371" xlink:href="#m7b857813bd" y="159.146573"/>
     <use style="fill:none;stroke:#000000;stroke-width:0.75;" x="244.719379" xlink:href="#m7b857813bd" y="158.199838"/>
     <use style="fill:none;stroke:#000000;stroke-width:0.75;" x="246.664387" xlink:href="#m7b857813bd" y="162.363971"/>
     <use style="fill:none;stroke:#000000;stroke-width:0.75;" x="248.609395" xlink:href="#m7b857813bd" y="158.216061"/>
     <use style="fill:none;stroke:#000000;stroke-width:0.75;" x="250.554403" xlink:href="#m7b857813bd" y="152.509722"/>
     <use style="fill:none;stroke:#000000;stroke-width:0.75;" x="252.499412" xlink:href="#m7b857813bd" y="161.042868"/>
     <use style="fill:none;stroke:#000000;stroke-width:0.75;" x="254.44442" xlink:href="#m7b857813bd" y="165.054558"/>
     <use style="fill:none;stroke:#000000;stroke-width:0.75;" x="256.389428" xlink:href="#m7b857813bd" y="164.486508"/>
     <use style="fill:none;stroke:#000000;stroke-width:0.75;" x="258.334436" xlink:href="#m7b857813bd" y="163.344222"/>
     <use style="fill:none;stroke:#000000;stroke-width:0.75;" x="260.279444" xlink:href="#m7b857813bd" y="156.203474"/>
     <use style="fill:none;stroke:#000000;stroke-width:0.75;" x="262.224452" xlink:href="#m7b857813bd" y="156.568732"/>
     <use style="fill:none;stroke:#000000;stroke-width:0.75;" x="264.16946" xlink:href="#m7b857813bd" y="165.614557"/>
    </g>
   </g>
   <g id="line2d_16">
    <path clip-path="url(#pd5639270c6)" d="M 73.558665 29.450819 
L 75.503673 40.191349 
L 77.448681 49.88027 
L 79.393689 58.655957 
L 81.338697 66.632131 
L 83.283705 73.903405 
L 85.228713 80.549375 
L 87.173722 86.637657 
L 89.11873 92.226204 
L 91.063738 97.36508 
L 93.008746 102.097843 
L 94.953754 106.462631 
L 96.898762 110.493033 
L 98.84377 114.218787 
L 100.788778 117.666338 
L 102.733787 120.859313 
L 104.678795 123.818893 
L 106.623803 126.564142 
L 108.568811 129.112263 
L 110.513819 131.478834 
L 112.458827 133.677991 
L 114.403835 135.722596 
L 116.348843 137.624377 
L 118.293851 139.394048 
L 120.23886 141.041414 
L 122.183868 142.575466 
L 124.128876 144.004458 
L 126.073884 145.335979 
L 128.018892 146.577015 
L 129.9639 147.734006 
L 131.908908 148.812894 
L 133.853916 149.819166 
L 135.798925 150.757895 
L 137.743933 151.633776 
L 139.688941 152.451155 
L 141.633949 153.214058 
L 143.578957 153.92622 
L 145.523965 154.591105 
L 147.468973 155.211929 
L 149.413981 155.79168 
L 151.358989 156.333134 
L 153.303998 156.83887 
L 155.249006 157.31129 
L 157.194014 157.752625 
L 159.139022 158.164956 
L 161.08403 158.550216 
L 163.029038 158.910208 
L 164.974046 159.246612 
L 166.919054 159.560992 
L 168.864063 159.854806 
L 170.809071 160.129415 
L 172.754079 160.386086 
L 174.699087 160.626002 
L 176.644095 160.850266 
L 178.589103 161.059908 
L 180.534111 161.255888 
L 182.479119 161.439104 
L 184.424127 161.610391 
L 186.369136 161.770532 
L 188.314144 161.920256 
L 190.259152 162.060244 
L 192.20416 162.191133 
L 194.149168 162.313516 
L 196.094176 162.42795 
L 198.039184 162.534952 
L 199.984192 162.635007 
L 201.9292 162.728568 
L 203.874209 162.816057 
L 205.819217 162.897871 
L 207.764225 162.974377 
L 209.709233 163.045922 
L 211.654241 163.112828 
L 213.599249 163.175396 
L 215.544257 163.233909 
L 217.489265 163.28863 
L 219.434274 163.339804 
L 221.379282 163.387663 
L 223.32429 163.432421 
L 225.269298 163.47428 
L 227.214306 163.513428 
L 229.159314 163.550041 
L 231.104322 163.584282 
L 233.04933 163.616306 
L 234.994338 163.646257 
L 236.939347 163.674268 
L 238.884355 163.700466 
L 240.829363 163.724968 
L 242.774371 163.747885 
L 244.719379 163.769318 
L 246.664387 163.789363 
L 248.609395 163.808111 
L 250.554403 163.825646 
L 252.499412 163.842047 
L 254.44442 163.857386 
L 256.389428 163.871732 
L 258.334436 163.88515 
L 260.279444 163.8977 
L 262.224452 163.909438 
L 264.16946 163.920416 
" style="fill:none;stroke:#ff0000;stroke-dasharray:5.6,2.4;stroke-dashoffset:0;stroke-width:1.5;"/>
   </g>
   <g id="patch_3">
    <path d="M 64.028125 174.821875 
L 64.028125 14.3 
" style="fill:none;stroke:#000000;stroke-linecap:square;stroke-linejoin:miter;stroke-width:0.8;"/>
   </g>
   <g id="patch_4">
    <path d="M 273.7 174.821875 
L 273.7 14.3 
" style="fill:none;stroke:#000000;stroke-linecap:square;stroke-linejoin:miter;stroke-width:0.8;"/>
   </g>
   <g id="patch_5">
    <path d="M 64.028125 174.821875 
L 273.7 174.821875 
" style="fill:none;stroke:#000000;stroke-linecap:square;stroke-linejoin:miter;stroke-width:0.8;"/>
   </g>
   <g id="patch_6">
    <path d="M 64.028125 14.3 
L 273.7 14.3 
" style="fill:none;stroke:#000000;stroke-linecap:square;stroke-linejoin:miter;stroke-width:0.8;"/>
   </g>
  </g>
 </g>
 <defs>
  <clipPath id="pd5639270c6">
   <rect height="160.521875" width="209.671875" x="64.028125" y="14.3"/>
  </clipPath>
 </defs>
</svg>
