<?xml version="1.0" encoding="utf-8" standalone="no"?>
<!DOCTYPE svg PUBLIC "-//W3C//DTD SVG 1.1//EN"
  "http://www.w3.org/Graphics/SVG/1.1/DTD/svg11.dtd">
<!-- Created with matplotlib (http://matplotlib.org/) -->
<svg height="216pt" version="1.1" viewBox="0 0 288 216" width="288pt" xmlns="http://www.w3.org/2000/svg" xmlns:xlink="http://www.w3.org/1999/xlink">
 <defs>
  <style type="text/css">
*{stroke-linecap:butt;stroke-linejoin:round;}
  </style>
 </defs>
 <g id="figure_1">
  <g id="patch_1">
   <path d="M 0 216 
L 288 216 
L 288 0 
L 0 0 
z
" style="fill:#ffffff;"/>
  </g>
  <g id="axes_1">
   <g id="patch_2">
    <path d="M 57.665625 174.821875 
L 273.7 174.821875 
L 273.7 14.3 
L 57.665625 14.3 
z
" style="fill:#ffffff;"/>
   </g>
   <g id="matplotlib.axis_1">
    <g id="xtick_1">
     <g id="line2d_1">
      <defs>
       <path d="M 0 0 
L 0 3.5 
" id="md4a8a07fa6" style="stroke:#000000;stroke-width:0.8;"/>
      </defs>
      <g>
       <use style="stroke:#000000;stroke-width:0.8;" x="65.48134" xlink:href="#md4a8a07fa6" y="174.821875"/>
      </g>
     </g>
     <g id="text_1">
      <!-- 0 -->
      <defs>
       <path d="M 31.78125 66.40625 
Q 24.171875 66.40625 20.328125 58.90625 
Q 16.5 51.421875 16.5 36.375 
Q 16.5 21.390625 20.328125 13.890625 
Q 24.171875 6.390625 31.78125 6.390625 
Q 39.453125 6.390625 43.28125 13.890625 
Q 47.125 21.390625 47.125 36.375 
Q 47.125 51.421875 43.28125 58.90625 
Q 39.453125 66.40625 31.78125 66.40625 
z
M 31.78125 74.21875 
Q 44.046875 74.21875 50.515625 64.515625 
Q 56.984375 54.828125 56.984375 36.375 
Q 56.984375 17.96875 50.515625 8.265625 
Q 44.046875 -1.421875 31.78125 -1.421875 
Q 19.53125 -1.421875 13.0625 8.265625 
Q 6.59375 17.96875 6.59375 36.375 
Q 6.59375 54.828125 13.0625 64.515625 
Q 19.53125 74.21875 31.78125 74.21875 
z
" id="DejaVuSans-30"/>
      </defs>
      <g transform="translate(62.30009 189.420312)scale(0.1 -0.1)">
       <use xlink:href="#DejaVuSans-30"/>
      </g>
     </g>
    </g>
    <g id="xtick_2">
     <g id="line2d_2">
      <g>
       <use style="stroke:#000000;stroke-width:0.8;" x="132.282322" xlink:href="#md4a8a07fa6" y="174.821875"/>
      </g>
     </g>
     <g id="text_2">
      <!-- 100 -->
      <defs>
       <path d="M 12.40625 8.296875 
L 28.515625 8.296875 
L 28.515625 63.921875 
L 10.984375 60.40625 
L 10.984375 69.390625 
L 28.421875 72.90625 
L 38.28125 72.90625 
L 38.28125 8.296875 
L 54.390625 8.296875 
L 54.390625 0 
L 12.40625 0 
z
" id="DejaVuSans-31"/>
      </defs>
      <g transform="translate(122.738572 189.420312)scale(0.1 -0.1)">
       <use xlink:href="#DejaVuSans-31"/>
       <use x="63.623047" xlink:href="#DejaVuSans-30"/>
       <use x="127.246094" xlink:href="#DejaVuSans-30"/>
      </g>
     </g>
    </g>
    <g id="xtick_3">
     <g id="line2d_3">
      <g>
       <use style="stroke:#000000;stroke-width:0.8;" x="199.083303" xlink:href="#md4a8a07fa6" y="174.821875"/>
      </g>
     </g>
     <g id="text_3">
      <!-- 200 -->
      <defs>
       <path d="M 19.1875 8.296875 
L 53.609375 8.296875 
L 53.609375 0 
L 7.328125 0 
L 7.328125 8.296875 
Q 12.9375 14.109375 22.625 23.890625 
Q 32.328125 33.6875 34.8125 36.53125 
Q 39.546875 41.84375 41.421875 45.53125 
Q 43.3125 49.21875 43.3125 52.78125 
Q 43.3125 58.59375 39.234375 62.25 
Q 35.15625 65.921875 28.609375 65.921875 
Q 23.96875 65.921875 18.8125 64.3125 
Q 13.671875 62.703125 7.8125 59.421875 
L 7.8125 69.390625 
Q 13.765625 71.78125 18.9375 73 
Q 24.125 74.21875 28.421875 74.21875 
Q 39.75 74.21875 46.484375 68.546875 
Q 53.21875 62.890625 53.21875 53.421875 
Q 53.21875 48.921875 51.53125 44.890625 
Q 49.859375 40.875 45.40625 35.40625 
Q 44.1875 33.984375 37.640625 27.21875 
Q 31.109375 20.453125 19.1875 8.296875 
z
" id="DejaVuSans-32"/>
      </defs>
      <g transform="translate(189.539553 189.420312)scale(0.1 -0.1)">
       <use xlink:href="#DejaVuSans-32"/>
       <use x="63.623047" xlink:href="#DejaVuSans-30"/>
       <use x="127.246094" xlink:href="#DejaVuSans-30"/>
      </g>
     </g>
    </g>
    <g id="xtick_4">
     <g id="line2d_4">
      <g>
       <use style="stroke:#000000;stroke-width:0.8;" x="265.884285" xlink:href="#md4a8a07fa6" y="174.821875"/>
      </g>
     </g>
     <g id="text_4">
      <!-- 300 -->
      <defs>
       <path d="M 40.578125 39.3125 
Q 47.65625 37.796875 51.625 33 
Q 55.609375 28.21875 55.609375 21.1875 
Q 55.609375 10.40625 48.1875 4.484375 
Q 40.765625 -1.421875 27.09375 -1.421875 
Q 22.515625 -1.421875 17.65625 -0.515625 
Q 12.796875 0.390625 7.625 2.203125 
L 7.625 11.71875 
Q 11.71875 9.328125 16.59375 8.109375 
Q 21.484375 6.890625 26.8125 6.890625 
Q 36.078125 6.890625 40.9375 10.546875 
Q 45.796875 14.203125 45.796875 21.1875 
Q 45.796875 27.640625 41.28125 31.265625 
Q 36.765625 34.90625 28.71875 34.90625 
L 20.21875 34.90625 
L 20.21875 43.015625 
L 29.109375 43.015625 
Q 36.375 43.015625 40.234375 45.921875 
Q 44.09375 48.828125 44.09375 54.296875 
Q 44.09375 59.90625 40.109375 62.90625 
Q 36.140625 65.921875 28.71875 65.921875 
Q 24.65625 65.921875 20.015625 65.03125 
Q 15.375 64.15625 9.8125 62.3125 
L 9.8125 71.09375 
Q 15.4375 72.65625 20.34375 73.4375 
Q 25.25 74.21875 29.59375 74.21875 
Q 40.828125 74.21875 47.359375 69.109375 
Q 53.90625 64.015625 53.90625 55.328125 
Q 53.90625 49.265625 50.4375 45.09375 
Q 46.96875 40.921875 40.578125 39.3125 
z
" id="DejaVuSans-33"/>
      </defs>
      <g transform="translate(256.340535 189.420312)scale(0.1 -0.1)">
       <use xlink:href="#DejaVuSans-33"/>
       <use x="63.623047" xlink:href="#DejaVuSans-30"/>
       <use x="127.246094" xlink:href="#DejaVuSans-30"/>
      </g>
     </g>
    </g>
    <g id="text_5">
     <!-- distance $l$ (bp) -->
     <defs>
      <path d="M 45.40625 46.390625 
L 45.40625 75.984375 
L 54.390625 75.984375 
L 54.390625 0 
L 45.40625 0 
L 45.40625 8.203125 
Q 42.578125 3.328125 38.25 0.953125 
Q 33.9375 -1.421875 27.875 -1.421875 
Q 17.96875 -1.421875 11.734375 6.484375 
Q 5.515625 14.40625 5.515625 27.296875 
Q 5.515625 40.1875 11.734375 48.09375 
Q 17.96875 56 27.875 56 
Q 33.9375 56 38.25 53.625 
Q 42.578125 51.265625 45.40625 46.390625 
z
M 14.796875 27.296875 
Q 14.796875 17.390625 18.875 11.75 
Q 22.953125 6.109375 30.078125 6.109375 
Q 37.203125 6.109375 41.296875 11.75 
Q 45.40625 17.390625 45.40625 27.296875 
Q 45.40625 37.203125 41.296875 42.84375 
Q 37.203125 48.484375 30.078125 48.484375 
Q 22.953125 48.484375 18.875 42.84375 
Q 14.796875 37.203125 14.796875 27.296875 
z
" id="DejaVuSans-64"/>
      <path d="M 9.421875 54.6875 
L 18.40625 54.6875 
L 18.40625 0 
L 9.421875 0 
z
M 9.421875 75.984375 
L 18.40625 75.984375 
L 18.40625 64.59375 
L 9.421875 64.59375 
z
" id="DejaVuSans-69"/>
      <path d="M 44.28125 53.078125 
L 44.28125 44.578125 
Q 40.484375 46.53125 36.375 47.5 
Q 32.28125 48.484375 27.875 48.484375 
Q 21.1875 48.484375 17.84375 46.4375 
Q 14.5 44.390625 14.5 40.28125 
Q 14.5 37.15625 16.890625 35.375 
Q 19.28125 33.59375 26.515625 31.984375 
L 29.59375 31.296875 
Q 39.15625 29.25 43.1875 25.515625 
Q 47.21875 21.78125 47.21875 15.09375 
Q 47.21875 7.46875 41.1875 3.015625 
Q 35.15625 -1.421875 24.609375 -1.421875 
Q 20.21875 -1.421875 15.453125 -0.5625 
Q 10.6875 0.296875 5.421875 2 
L 5.421875 11.28125 
Q 10.40625 8.6875 15.234375 7.390625 
Q 20.0625 6.109375 24.8125 6.109375 
Q 31.15625 6.109375 34.5625 8.28125 
Q 37.984375 10.453125 37.984375 14.40625 
Q 37.984375 18.0625 35.515625 20.015625 
Q 33.0625 21.96875 24.703125 23.78125 
L 21.578125 24.515625 
Q 13.234375 26.265625 9.515625 29.90625 
Q 5.8125 33.546875 5.8125 39.890625 
Q 5.8125 47.609375 11.28125 51.796875 
Q 16.75 56 26.8125 56 
Q 31.78125 56 36.171875 55.265625 
Q 40.578125 54.546875 44.28125 53.078125 
z
" id="DejaVuSans-73"/>
      <path d="M 18.3125 70.21875 
L 18.3125 54.6875 
L 36.8125 54.6875 
L 36.8125 47.703125 
L 18.3125 47.703125 
L 18.3125 18.015625 
Q 18.3125 11.328125 20.140625 9.421875 
Q 21.96875 7.515625 27.59375 7.515625 
L 36.8125 7.515625 
L 36.8125 0 
L 27.59375 0 
Q 17.1875 0 13.234375 3.875 
Q 9.28125 7.765625 9.28125 18.015625 
L 9.28125 47.703125 
L 2.6875 47.703125 
L 2.6875 54.6875 
L 9.28125 54.6875 
L 9.28125 70.21875 
z
" id="DejaVuSans-74"/>
      <path d="M 34.28125 27.484375 
Q 23.390625 27.484375 19.1875 25 
Q 14.984375 22.515625 14.984375 16.5 
Q 14.984375 11.71875 18.140625 8.90625 
Q 21.296875 6.109375 26.703125 6.109375 
Q 34.1875 6.109375 38.703125 11.40625 
Q 43.21875 16.703125 43.21875 25.484375 
L 43.21875 27.484375 
z
M 52.203125 31.203125 
L 52.203125 0 
L 43.21875 0 
L 43.21875 8.296875 
Q 40.140625 3.328125 35.546875 0.953125 
Q 30.953125 -1.421875 24.3125 -1.421875 
Q 15.921875 -1.421875 10.953125 3.296875 
Q 6 8.015625 6 15.921875 
Q 6 25.140625 12.171875 29.828125 
Q 18.359375 34.515625 30.609375 34.515625 
L 43.21875 34.515625 
L 43.21875 35.40625 
Q 43.21875 41.609375 39.140625 45 
Q 35.0625 48.390625 27.6875 48.390625 
Q 23 48.390625 18.546875 47.265625 
Q 14.109375 46.140625 10.015625 43.890625 
L 10.015625 52.203125 
Q 14.9375 54.109375 19.578125 55.046875 
Q 24.21875 56 28.609375 56 
Q 40.484375 56 46.34375 49.84375 
Q 52.203125 43.703125 52.203125 31.203125 
z
" id="DejaVuSans-61"/>
      <path d="M 54.890625 33.015625 
L 54.890625 0 
L 45.90625 0 
L 45.90625 32.71875 
Q 45.90625 40.484375 42.875 44.328125 
Q 39.84375 48.1875 33.796875 48.1875 
Q 26.515625 48.1875 22.3125 43.546875 
Q 18.109375 38.921875 18.109375 30.90625 
L 18.109375 0 
L 9.078125 0 
L 9.078125 54.6875 
L 18.109375 54.6875 
L 18.109375 46.1875 
Q 21.34375 51.125 25.703125 53.5625 
Q 30.078125 56 35.796875 56 
Q 45.21875 56 50.046875 50.171875 
Q 54.890625 44.34375 54.890625 33.015625 
z
" id="DejaVuSans-6e"/>
      <path d="M 48.78125 52.59375 
L 48.78125 44.1875 
Q 44.96875 46.296875 41.140625 47.34375 
Q 37.3125 48.390625 33.40625 48.390625 
Q 24.65625 48.390625 19.8125 42.84375 
Q 14.984375 37.3125 14.984375 27.296875 
Q 14.984375 17.28125 19.8125 11.734375 
Q 24.65625 6.203125 33.40625 6.203125 
Q 37.3125 6.203125 41.140625 7.25 
Q 44.96875 8.296875 48.78125 10.40625 
L 48.78125 2.09375 
Q 45.015625 0.34375 40.984375 -0.53125 
Q 36.96875 -1.421875 32.421875 -1.421875 
Q 20.0625 -1.421875 12.78125 6.34375 
Q 5.515625 14.109375 5.515625 27.296875 
Q 5.515625 40.671875 12.859375 48.328125 
Q 20.21875 56 33.015625 56 
Q 37.15625 56 41.109375 55.140625 
Q 45.0625 54.296875 48.78125 52.59375 
z
" id="DejaVuSans-63"/>
      <path d="M 56.203125 29.59375 
L 56.203125 25.203125 
L 14.890625 25.203125 
Q 15.484375 15.921875 20.484375 11.0625 
Q 25.484375 6.203125 34.421875 6.203125 
Q 39.59375 6.203125 44.453125 7.46875 
Q 49.3125 8.734375 54.109375 11.28125 
L 54.109375 2.78125 
Q 49.265625 0.734375 44.1875 -0.34375 
Q 39.109375 -1.421875 33.890625 -1.421875 
Q 20.796875 -1.421875 13.15625 6.1875 
Q 5.515625 13.8125 5.515625 26.8125 
Q 5.515625 40.234375 12.765625 48.109375 
Q 20.015625 56 32.328125 56 
Q 43.359375 56 49.78125 48.890625 
Q 56.203125 41.796875 56.203125 29.59375 
z
M 47.21875 32.234375 
Q 47.125 39.59375 43.09375 43.984375 
Q 39.0625 48.390625 32.421875 48.390625 
Q 24.90625 48.390625 20.390625 44.140625 
Q 15.875 39.890625 15.1875 32.171875 
z
" id="DejaVuSans-65"/>
      <path id="DejaVuSans-20"/>
      <path d="M 18.3125 75.984375 
L 27.296875 75.984375 
L 12.5 0 
L 3.515625 0 
z
" id="DejaVuSans-Oblique-6c"/>
      <path d="M 31 75.875 
Q 24.46875 64.65625 21.28125 53.65625 
Q 18.109375 42.671875 18.109375 31.390625 
Q 18.109375 20.125 21.3125 9.0625 
Q 24.515625 -2 31 -13.1875 
L 23.1875 -13.1875 
Q 15.875 -1.703125 12.234375 9.375 
Q 8.59375 20.453125 8.59375 31.390625 
Q 8.59375 42.28125 12.203125 53.3125 
Q 15.828125 64.359375 23.1875 75.875 
z
" id="DejaVuSans-28"/>
      <path d="M 48.6875 27.296875 
Q 48.6875 37.203125 44.609375 42.84375 
Q 40.53125 48.484375 33.40625 48.484375 
Q 26.265625 48.484375 22.1875 42.84375 
Q 18.109375 37.203125 18.109375 27.296875 
Q 18.109375 17.390625 22.1875 11.75 
Q 26.265625 6.109375 33.40625 6.109375 
Q 40.53125 6.109375 44.609375 11.75 
Q 48.6875 17.390625 48.6875 27.296875 
z
M 18.109375 46.390625 
Q 20.953125 51.265625 25.265625 53.625 
Q 29.59375 56 35.59375 56 
Q 45.5625 56 51.78125 48.09375 
Q 58.015625 40.1875 58.015625 27.296875 
Q 58.015625 14.40625 51.78125 6.484375 
Q 45.5625 -1.421875 35.59375 -1.421875 
Q 29.59375 -1.421875 25.265625 0.953125 
Q 20.953125 3.328125 18.109375 8.203125 
L 18.109375 0 
L 9.078125 0 
L 9.078125 75.984375 
L 18.109375 75.984375 
z
" id="DejaVuSans-62"/>
      <path d="M 18.109375 8.203125 
L 18.109375 -20.796875 
L 9.078125 -20.796875 
L 9.078125 54.6875 
L 18.109375 54.6875 
L 18.109375 46.390625 
Q 20.953125 51.265625 25.265625 53.625 
Q 29.59375 56 35.59375 56 
Q 45.5625 56 51.78125 48.09375 
Q 58.015625 40.1875 58.015625 27.296875 
Q 58.015625 14.40625 51.78125 6.484375 
Q 45.5625 -1.421875 35.59375 -1.421875 
Q 29.59375 -1.421875 25.265625 0.953125 
Q 20.953125 3.328125 18.109375 8.203125 
z
M 48.6875 27.296875 
Q 48.6875 37.203125 44.609375 42.84375 
Q 40.53125 48.484375 33.40625 48.484375 
Q 26.265625 48.484375 22.1875 42.84375 
Q 18.109375 37.203125 18.109375 27.296875 
Q 18.109375 17.390625 22.1875 11.75 
Q 26.265625 6.109375 33.40625 6.109375 
Q 40.53125 6.109375 44.609375 11.75 
Q 48.6875 17.390625 48.6875 27.296875 
z
" id="DejaVuSans-70"/>
      <path d="M 8.015625 75.875 
L 15.828125 75.875 
Q 23.140625 64.359375 26.78125 53.3125 
Q 30.421875 42.28125 30.421875 31.390625 
Q 30.421875 20.453125 26.78125 9.375 
Q 23.140625 -1.703125 15.828125 -13.1875 
L 8.015625 -13.1875 
Q 14.5 -2 17.703125 9.0625 
Q 20.90625 20.125 20.90625 31.390625 
Q 20.90625 42.671875 17.703125 53.65625 
Q 14.5 64.65625 8.015625 75.875 
z
" id="DejaVuSans-29"/>
     </defs>
     <g transform="translate(129.632812 203.1)scale(0.1 -0.1)">
      <use transform="translate(0 0.015625)" xlink:href="#DejaVuSans-64"/>
      <use transform="translate(63.476562 0.015625)" xlink:href="#DejaVuSans-69"/>
      <use transform="translate(91.259766 0.015625)" xlink:href="#DejaVuSans-73"/>
      <use transform="translate(143.359375 0.015625)" xlink:href="#DejaVuSans-74"/>
      <use transform="translate(182.568359 0.015625)" xlink:href="#DejaVuSans-61"/>
      <use transform="translate(243.847656 0.015625)" xlink:href="#DejaVuSans-6e"/>
      <use transform="translate(307.226562 0.015625)" xlink:href="#DejaVuSans-63"/>
      <use transform="translate(362.207031 0.015625)" xlink:href="#DejaVuSans-65"/>
      <use transform="translate(423.730469 0.015625)" xlink:href="#DejaVuSans-20"/>
      <use transform="translate(455.517578 0.015625)" xlink:href="#DejaVuSans-Oblique-6c"/>
      <use transform="translate(483.300781 0.015625)" xlink:href="#DejaVuSans-20"/>
      <use transform="translate(515.087891 0.015625)" xlink:href="#DejaVuSans-28"/>
      <use transform="translate(554.101562 0.015625)" xlink:href="#DejaVuSans-62"/>
      <use transform="translate(617.578125 0.015625)" xlink:href="#DejaVuSans-70"/>
      <use transform="translate(681.054688 0.015625)" xlink:href="#DejaVuSans-29"/>
     </g>
    </g>
   </g>
   <g id="matplotlib.axis_2">
    <g id="ytick_1">
     <g id="line2d_5">
      <defs>
       <path d="M 0 0 
L -3.5 0 
" id="m8fd19e9f55" style="stroke:#000000;stroke-width:0.8;"/>
      </defs>
      <g>
       <use style="stroke:#000000;stroke-width:0.8;" x="57.665625" xlink:href="#m8fd19e9f55" y="169.199381"/>
      </g>
     </g>
     <g id="text_6">
      <!-- 0.01 -->
      <defs>
       <path d="M 10.6875 12.40625 
L 21 12.40625 
L 21 0 
L 10.6875 0 
z
" id="DejaVuSans-2e"/>
      </defs>
      <g transform="translate(28.4 172.9986)scale(0.1 -0.1)">
       <use xlink:href="#DejaVuSans-30"/>
       <use x="63.623047" xlink:href="#DejaVuSans-2e"/>
       <use x="95.410156" xlink:href="#DejaVuSans-30"/>
       <use x="159.033203" xlink:href="#DejaVuSans-31"/>
      </g>
     </g>
    </g>
    <g id="ytick_2">
     <g id="line2d_6">
      <g>
       <use style="stroke:#000000;stroke-width:0.8;" x="57.665625" xlink:href="#m8fd19e9f55" y="140.324635"/>
      </g>
     </g>
     <g id="text_7">
      <!-- 0.02 -->
      <g transform="translate(28.4 144.123853)scale(0.1 -0.1)">
       <use xlink:href="#DejaVuSans-30"/>
       <use x="63.623047" xlink:href="#DejaVuSans-2e"/>
       <use x="95.410156" xlink:href="#DejaVuSans-30"/>
       <use x="159.033203" xlink:href="#DejaVuSans-32"/>
      </g>
     </g>
    </g>
    <g id="ytick_3">
     <g id="line2d_7">
      <g>
       <use style="stroke:#000000;stroke-width:0.8;" x="57.665625" xlink:href="#m8fd19e9f55" y="111.449888"/>
      </g>
     </g>
     <g id="text_8">
      <!-- 0.03 -->
      <g transform="translate(28.4 115.249107)scale(0.1 -0.1)">
       <use xlink:href="#DejaVuSans-30"/>
       <use x="63.623047" xlink:href="#DejaVuSans-2e"/>
       <use x="95.410156" xlink:href="#DejaVuSans-30"/>
       <use x="159.033203" xlink:href="#DejaVuSans-33"/>
      </g>
     </g>
    </g>
    <g id="ytick_4">
     <g id="line2d_8">
      <g>
       <use style="stroke:#000000;stroke-width:0.8;" x="57.665625" xlink:href="#m8fd19e9f55" y="82.575142"/>
      </g>
     </g>
     <g id="text_9">
      <!-- 0.04 -->
      <defs>
       <path d="M 37.796875 64.3125 
L 12.890625 25.390625 
L 37.796875 25.390625 
z
M 35.203125 72.90625 
L 47.609375 72.90625 
L 47.609375 25.390625 
L 58.015625 25.390625 
L 58.015625 17.1875 
L 47.609375 17.1875 
L 47.609375 0 
L 37.796875 0 
L 37.796875 17.1875 
L 4.890625 17.1875 
L 4.890625 26.703125 
z
" id="DejaVuSans-34"/>
      </defs>
      <g transform="translate(28.4 86.374361)scale(0.1 -0.1)">
       <use xlink:href="#DejaVuSans-30"/>
       <use x="63.623047" xlink:href="#DejaVuSans-2e"/>
       <use x="95.410156" xlink:href="#DejaVuSans-30"/>
       <use x="159.033203" xlink:href="#DejaVuSans-34"/>
      </g>
     </g>
    </g>
    <g id="ytick_5">
     <g id="line2d_9">
      <g>
       <use style="stroke:#000000;stroke-width:0.8;" x="57.665625" xlink:href="#m8fd19e9f55" y="53.700396"/>
      </g>
     </g>
     <g id="text_10">
      <!-- 0.05 -->
      <defs>
       <path d="M 10.796875 72.90625 
L 49.515625 72.90625 
L 49.515625 64.59375 
L 19.828125 64.59375 
L 19.828125 46.734375 
Q 21.96875 47.46875 24.109375 47.828125 
Q 26.265625 48.1875 28.421875 48.1875 
Q 40.625 48.1875 47.75 41.5 
Q 54.890625 34.8125 54.890625 23.390625 
Q 54.890625 11.625 47.5625 5.09375 
Q 40.234375 -1.421875 26.90625 -1.421875 
Q 22.3125 -1.421875 17.546875 -0.640625 
Q 12.796875 0.140625 7.71875 1.703125 
L 7.71875 11.625 
Q 12.109375 9.234375 16.796875 8.0625 
Q 21.484375 6.890625 26.703125 6.890625 
Q 35.15625 6.890625 40.078125 11.328125 
Q 45.015625 15.765625 45.015625 23.390625 
Q 45.015625 31 40.078125 35.4375 
Q 35.15625 39.890625 26.703125 39.890625 
Q 22.75 39.890625 18.8125 39.015625 
Q 14.890625 38.140625 10.796875 36.28125 
z
" id="DejaVuSans-35"/>
      </defs>
      <g transform="translate(28.4 57.499615)scale(0.1 -0.1)">
       <use xlink:href="#DejaVuSans-30"/>
       <use x="63.623047" xlink:href="#DejaVuSans-2e"/>
       <use x="95.410156" xlink:href="#DejaVuSans-30"/>
       <use x="159.033203" xlink:href="#DejaVuSans-35"/>
      </g>
     </g>
    </g>
    <g id="ytick_6">
     <g id="line2d_10">
      <g>
       <use style="stroke:#000000;stroke-width:0.8;" x="57.665625" xlink:href="#m8fd19e9f55" y="24.82565"/>
      </g>
     </g>
     <g id="text_11">
      <!-- 0.06 -->
      <defs>
       <path d="M 33.015625 40.375 
Q 26.375 40.375 22.484375 35.828125 
Q 18.609375 31.296875 18.609375 23.390625 
Q 18.609375 15.53125 22.484375 10.953125 
Q 26.375 6.390625 33.015625 6.390625 
Q 39.65625 6.390625 43.53125 10.953125 
Q 47.40625 15.53125 47.40625 23.390625 
Q 47.40625 31.296875 43.53125 35.828125 
Q 39.65625 40.375 33.015625 40.375 
z
M 52.59375 71.296875 
L 52.59375 62.3125 
Q 48.875 64.0625 45.09375 64.984375 
Q 41.3125 65.921875 37.59375 65.921875 
Q 27.828125 65.921875 22.671875 59.328125 
Q 17.53125 52.734375 16.796875 39.40625 
Q 19.671875 43.65625 24.015625 45.921875 
Q 28.375 48.1875 33.59375 48.1875 
Q 44.578125 48.1875 50.953125 41.515625 
Q 57.328125 34.859375 57.328125 23.390625 
Q 57.328125 12.15625 50.6875 5.359375 
Q 44.046875 -1.421875 33.015625 -1.421875 
Q 20.359375 -1.421875 13.671875 8.265625 
Q 6.984375 17.96875 6.984375 36.375 
Q 6.984375 53.65625 15.1875 63.9375 
Q 23.390625 74.21875 37.203125 74.21875 
Q 40.921875 74.21875 44.703125 73.484375 
Q 48.484375 72.75 52.59375 71.296875 
z
" id="DejaVuSans-36"/>
      </defs>
      <g transform="translate(28.4 28.624868)scale(0.1 -0.1)">
       <use xlink:href="#DejaVuSans-30"/>
       <use x="63.623047" xlink:href="#DejaVuSans-2e"/>
       <use x="95.410156" xlink:href="#DejaVuSans-30"/>
       <use x="159.033203" xlink:href="#DejaVuSans-36"/>
      </g>
     </g>
    </g>
    <g id="text_12">
     <!-- $\tilde P^{(4)}_{s,2}$ -->
     <defs>
      <path d="M -25.328125 66.890625 
L -28.109375 69.578125 
Q -29.171875 70.5625 -29.984375 71.015625 
Q -30.796875 71.484375 -31.421875 71.484375 
Q -33.28125 71.484375 -34.15625 69.703125 
Q -35.03125 67.921875 -35.140625 63.921875 
L -41.234375 63.921875 
Q -41.140625 70.515625 -38.640625 74.09375 
Q -36.15625 77.6875 -31.71875 77.6875 
Q -29.859375 77.6875 -28.296875 77 
Q -26.734375 76.3125 -24.9375 74.703125 
L -22.140625 72.015625 
Q -21.078125 71.046875 -20.265625 70.578125 
Q -19.46875 70.125 -18.828125 70.125 
Q -16.96875 70.125 -16.09375 71.90625 
Q -15.21875 73.6875 -15.109375 77.6875 
L -9.015625 77.6875 
Q -9.109375 71.09375 -11.59375 67.5 
Q -14.09375 63.921875 -18.53125 63.921875 
Q -20.390625 63.921875 -21.953125 64.59375 
Q -23.515625 65.28125 -25.328125 66.890625 
z
" id="DejaVuSans-303"/>
      <path d="M 16.890625 72.90625 
L 39.703125 72.90625 
Q 49.65625 72.90625 54.875 68.265625 
Q 60.109375 63.625 60.109375 54.6875 
Q 60.109375 42.671875 52.390625 35.984375 
Q 44.671875 29.296875 30.71875 29.296875 
L 18.3125 29.296875 
L 12.59375 0 
L 2.6875 0 
z
M 25.203125 64.796875 
L 19.921875 37.40625 
L 32.328125 37.40625 
Q 40.71875 37.40625 45.203125 41.703125 
Q 49.703125 46 49.703125 54 
Q 49.703125 59.125 46.65625 61.953125 
Q 43.609375 64.796875 38.09375 64.796875 
z
" id="DejaVuSans-Oblique-50"/>
      <path d="M 50 53.078125 
L 48.296875 44.578125 
Q 44.734375 46.53125 40.765625 47.5 
Q 36.8125 48.484375 32.625 48.484375 
Q 25.53125 48.484375 21.453125 46.0625 
Q 17.390625 43.65625 17.390625 39.5 
Q 17.390625 34.671875 26.859375 32.078125 
Q 27.59375 31.890625 27.9375 31.78125 
L 30.8125 30.90625 
Q 39.796875 28.421875 42.796875 25.6875 
Q 45.796875 22.953125 45.796875 18.21875 
Q 45.796875 9.515625 38.890625 4.046875 
Q 31.984375 -1.421875 20.796875 -1.421875 
Q 16.453125 -1.421875 11.671875 -0.578125 
Q 6.890625 0.25 1.125 2 
L 2.875 11.28125 
Q 7.8125 8.734375 12.59375 7.421875 
Q 17.390625 6.109375 21.78125 6.109375 
Q 28.375 6.109375 32.5 8.9375 
Q 36.625 11.765625 36.625 16.109375 
Q 36.625 20.796875 25.78125 23.6875 
L 24.859375 23.921875 
L 21.78125 24.703125 
Q 14.9375 26.515625 11.765625 29.46875 
Q 8.59375 32.421875 8.59375 37.015625 
Q 8.59375 45.75 15.15625 50.875 
Q 21.734375 56 33.015625 56 
Q 37.453125 56 41.671875 55.265625 
Q 45.90625 54.546875 50 53.078125 
z
" id="DejaVuSans-Oblique-73"/>
      <path d="M 11.71875 12.40625 
L 22.015625 12.40625 
L 22.015625 4 
L 14.015625 -11.625 
L 7.71875 -11.625 
L 11.71875 4 
z
" id="DejaVuSans-2c"/>
     </defs>
     <g transform="translate(20.8 103.610938)rotate(-90)scale(0.1 -0.1)">
      <use transform="translate(60.589844 22.03125)" xlink:href="#DejaVuSans-303"/>
      <use transform="translate(0 0.546875)" xlink:href="#DejaVuSans-Oblique-50"/>
      <use transform="translate(61.259766 46.8875)scale(0.7)" xlink:href="#DejaVuSans-28"/>
      <use transform="translate(88.569336 46.8875)scale(0.7)" xlink:href="#DejaVuSans-34"/>
      <use transform="translate(133.105469 46.8875)scale(0.7)" xlink:href="#DejaVuSans-29"/>
      <use transform="translate(61.259766 -26.796875)scale(0.7)" xlink:href="#DejaVuSans-Oblique-73"/>
      <use transform="translate(97.729492 -26.796875)scale(0.7)" xlink:href="#DejaVuSans-2c"/>
      <use transform="translate(133.618164 -26.796875)scale(0.7)" xlink:href="#DejaVuSans-32"/>
     </g>
    </g>
   </g>
   <g id="line2d_11">
    <defs>
     <path d="M 0 2 
C 0.530406 2 1.03916 1.789267 1.414214 1.414214 
C 1.789267 1.03916 2 0.530406 2 0 
C 2 -0.530406 1.789267 -1.03916 1.414214 -1.414214 
C 1.03916 -1.789267 0.530406 -2 0 -2 
C -0.530406 -2 -1.03916 -1.789267 -1.414214 -1.414214 
C -1.789267 -1.03916 -2 -0.530406 -2 0 
C -2 0.530406 -1.789267 1.03916 -1.414214 1.414214 
C -1.03916 1.789267 -0.530406 2 0 2 
z
" id="m60666b1366" style="stroke:#ff0000;stroke-width:0.75;"/>
    </defs>
    <g clip-path="url(#pc61b4c206a)">
     <use style="fill:none;stroke:#ff0000;stroke-width:0.75;" x="67.485369" xlink:href="#m60666b1366" y="21.596449"/>
     <use style="fill:none;stroke:#ff0000;stroke-width:0.75;" x="69.489399" xlink:href="#m60666b1366" y="81.90281"/>
     <use style="fill:none;stroke:#ff0000;stroke-width:0.75;" x="71.493428" xlink:href="#m60666b1366" y="91.117216"/>
     <use style="fill:none;stroke:#ff0000;stroke-width:0.75;" x="73.497458" xlink:href="#m60666b1366" y="106.169995"/>
     <use style="fill:none;stroke:#ff0000;stroke-width:0.75;" x="75.501487" xlink:href="#m60666b1366" y="103.28971"/>
     <use style="fill:none;stroke:#ff0000;stroke-width:0.75;" x="77.505517" xlink:href="#m60666b1366" y="90.686788"/>
     <use style="fill:none;stroke:#ff0000;stroke-width:0.75;" x="79.509546" xlink:href="#m60666b1366" y="108.222861"/>
     <use style="fill:none;stroke:#ff0000;stroke-width:0.75;" x="81.513575" xlink:href="#m60666b1366" y="80.962712"/>
     <use style="fill:none;stroke:#ff0000;stroke-width:0.75;" x="83.517605" xlink:href="#m60666b1366" y="102.049132"/>
     <use style="fill:none;stroke:#ff0000;stroke-width:0.75;" x="85.521634" xlink:href="#m60666b1366" y="111.697678"/>
     <use style="fill:none;stroke:#ff0000;stroke-width:0.75;" x="87.525664" xlink:href="#m60666b1366" y="95.725018"/>
     <use style="fill:none;stroke:#ff0000;stroke-width:0.75;" x="89.529693" xlink:href="#m60666b1366" y="112.907906"/>
     <use style="fill:none;stroke:#ff0000;stroke-width:0.75;" x="91.533723" xlink:href="#m60666b1366" y="124.25923"/>
     <use style="fill:none;stroke:#ff0000;stroke-width:0.75;" x="93.537752" xlink:href="#m60666b1366" y="101.385537"/>
     <use style="fill:none;stroke:#ff0000;stroke-width:0.75;" x="95.541782" xlink:href="#m60666b1366" y="104.241627"/>
     <use style="fill:none;stroke:#ff0000;stroke-width:0.75;" x="97.545811" xlink:href="#m60666b1366" y="114.486536"/>
     <use style="fill:none;stroke:#ff0000;stroke-width:0.75;" x="99.549841" xlink:href="#m60666b1366" y="102.612238"/>
     <use style="fill:none;stroke:#ff0000;stroke-width:0.75;" x="101.55387" xlink:href="#m60666b1366" y="119.566156"/>
     <use style="fill:none;stroke:#ff0000;stroke-width:0.75;" x="103.557899" xlink:href="#m60666b1366" y="99.312164"/>
     <use style="fill:none;stroke:#ff0000;stroke-width:0.75;" x="105.561929" xlink:href="#m60666b1366" y="122.508467"/>
    </g>
   </g>
   <g id="line2d_12">
    <defs>
     <path d="M 0 2 
C 0.530406 2 1.03916 1.789267 1.414214 1.414214 
C 1.789267 1.03916 2 0.530406 2 0 
C 2 -0.530406 1.789267 -1.03916 1.414214 -1.414214 
C 1.03916 -1.789267 0.530406 -2 0 -2 
C -0.530406 -2 -1.03916 -1.789267 -1.414214 -1.414214 
C -1.789267 -1.03916 -2 -0.530406 -2 0 
C -2 0.530406 -1.789267 1.03916 -1.414214 1.414214 
C -1.03916 1.789267 -0.530406 2 0 2 
z
" id="mf2727f163f" style="stroke:#000000;stroke-width:0.75;"/>
    </defs>
    <g clip-path="url(#pc61b4c206a)">
     <use style="fill:none;stroke:#000000;stroke-width:0.75;" x="107.565958" xlink:href="#mf2727f163f" y="128.681734"/>
     <use style="fill:none;stroke:#000000;stroke-width:0.75;" x="109.569988" xlink:href="#mf2727f163f" y="127.798823"/>
     <use style="fill:none;stroke:#000000;stroke-width:0.75;" x="111.574017" xlink:href="#mf2727f163f" y="136.029445"/>
     <use style="fill:none;stroke:#000000;stroke-width:0.75;" x="113.578047" xlink:href="#mf2727f163f" y="126.384256"/>
     <use style="fill:none;stroke:#000000;stroke-width:0.75;" x="115.582076" xlink:href="#mf2727f163f" y="128.934506"/>
     <use style="fill:none;stroke:#000000;stroke-width:0.75;" x="117.586106" xlink:href="#mf2727f163f" y="122.059885"/>
     <use style="fill:none;stroke:#000000;stroke-width:0.75;" x="119.590135" xlink:href="#mf2727f163f" y="128.095074"/>
     <use style="fill:none;stroke:#000000;stroke-width:0.75;" x="121.594165" xlink:href="#mf2727f163f" y="129.66423"/>
     <use style="fill:none;stroke:#000000;stroke-width:0.75;" x="123.598194" xlink:href="#mf2727f163f" y="124.655594"/>
     <use style="fill:none;stroke:#000000;stroke-width:0.75;" x="125.602223" xlink:href="#mf2727f163f" y="139.953681"/>
     <use style="fill:none;stroke:#000000;stroke-width:0.75;" x="127.606253" xlink:href="#mf2727f163f" y="138.268531"/>
     <use style="fill:none;stroke:#000000;stroke-width:0.75;" x="129.610282" xlink:href="#mf2727f163f" y="146.985016"/>
     <use style="fill:none;stroke:#000000;stroke-width:0.75;" x="131.614312" xlink:href="#mf2727f163f" y="143.285121"/>
     <use style="fill:none;stroke:#000000;stroke-width:0.75;" x="133.618341" xlink:href="#mf2727f163f" y="142.306443"/>
     <use style="fill:none;stroke:#000000;stroke-width:0.75;" x="135.622371" xlink:href="#mf2727f163f" y="141.949915"/>
     <use style="fill:none;stroke:#000000;stroke-width:0.75;" x="137.6264" xlink:href="#mf2727f163f" y="137.767382"/>
     <use style="fill:none;stroke:#000000;stroke-width:0.75;" x="139.63043" xlink:href="#mf2727f163f" y="146.543553"/>
     <use style="fill:none;stroke:#000000;stroke-width:0.75;" x="141.634459" xlink:href="#mf2727f163f" y="133.456754"/>
     <use style="fill:none;stroke:#000000;stroke-width:0.75;" x="143.638489" xlink:href="#mf2727f163f" y="144.741464"/>
     <use style="fill:none;stroke:#000000;stroke-width:0.75;" x="145.642518" xlink:href="#mf2727f163f" y="145.305408"/>
     <use style="fill:none;stroke:#000000;stroke-width:0.75;" x="147.646547" xlink:href="#mf2727f163f" y="134.082112"/>
     <use style="fill:none;stroke:#000000;stroke-width:0.75;" x="149.650577" xlink:href="#mf2727f163f" y="143.179391"/>
     <use style="fill:none;stroke:#000000;stroke-width:0.75;" x="151.654606" xlink:href="#mf2727f163f" y="145.974427"/>
     <use style="fill:none;stroke:#000000;stroke-width:0.75;" x="153.658636" xlink:href="#mf2727f163f" y="157.116494"/>
     <use style="fill:none;stroke:#000000;stroke-width:0.75;" x="155.662665" xlink:href="#mf2727f163f" y="146.658221"/>
     <use style="fill:none;stroke:#000000;stroke-width:0.75;" x="157.666695" xlink:href="#mf2727f163f" y="133.848002"/>
     <use style="fill:none;stroke:#000000;stroke-width:0.75;" x="159.670724" xlink:href="#mf2727f163f" y="149.954519"/>
     <use style="fill:none;stroke:#000000;stroke-width:0.75;" x="161.674754" xlink:href="#mf2727f163f" y="142.774968"/>
     <use style="fill:none;stroke:#000000;stroke-width:0.75;" x="163.678783" xlink:href="#mf2727f163f" y="147.674432"/>
     <use style="fill:none;stroke:#000000;stroke-width:0.75;" x="165.682813" xlink:href="#mf2727f163f" y="139.427607"/>
     <use style="fill:none;stroke:#000000;stroke-width:0.75;" x="167.686842" xlink:href="#mf2727f163f" y="149.597868"/>
     <use style="fill:none;stroke:#000000;stroke-width:0.75;" x="169.690871" xlink:href="#mf2727f163f" y="157.233501"/>
     <use style="fill:none;stroke:#000000;stroke-width:0.75;" x="171.694901" xlink:href="#mf2727f163f" y="151.427347"/>
     <use style="fill:none;stroke:#000000;stroke-width:0.75;" x="173.69893" xlink:href="#mf2727f163f" y="147.310184"/>
     <use style="fill:none;stroke:#000000;stroke-width:0.75;" x="175.70296" xlink:href="#mf2727f163f" y="142.024694"/>
     <use style="fill:none;stroke:#000000;stroke-width:0.75;" x="177.706989" xlink:href="#mf2727f163f" y="151.728308"/>
     <use style="fill:none;stroke:#000000;stroke-width:0.75;" x="179.711019" xlink:href="#mf2727f163f" y="155.178991"/>
     <use style="fill:none;stroke:#000000;stroke-width:0.75;" x="181.715048" xlink:href="#mf2727f163f" y="148.169209"/>
     <use style="fill:none;stroke:#000000;stroke-width:0.75;" x="183.719078" xlink:href="#mf2727f163f" y="151.60257"/>
     <use style="fill:none;stroke:#000000;stroke-width:0.75;" x="185.723107" xlink:href="#mf2727f163f" y="159.351243"/>
     <use style="fill:none;stroke:#000000;stroke-width:0.75;" x="187.727136" xlink:href="#mf2727f163f" y="156.342145"/>
     <use style="fill:none;stroke:#000000;stroke-width:0.75;" x="189.731166" xlink:href="#mf2727f163f" y="149.779999"/>
     <use style="fill:none;stroke:#000000;stroke-width:0.75;" x="191.735195" xlink:href="#mf2727f163f" y="143.976745"/>
     <use style="fill:none;stroke:#000000;stroke-width:0.75;" x="193.739225" xlink:href="#mf2727f163f" y="153.023716"/>
     <use style="fill:none;stroke:#000000;stroke-width:0.75;" x="195.743254" xlink:href="#mf2727f163f" y="156.022205"/>
     <use style="fill:none;stroke:#000000;stroke-width:0.75;" x="197.747284" xlink:href="#mf2727f163f" y="155.599989"/>
     <use style="fill:none;stroke:#000000;stroke-width:0.75;" x="199.751313" xlink:href="#mf2727f163f" y="151.539485"/>
     <use style="fill:none;stroke:#000000;stroke-width:0.75;" x="201.755343" xlink:href="#mf2727f163f" y="143.473357"/>
     <use style="fill:none;stroke:#000000;stroke-width:0.75;" x="203.759372" xlink:href="#mf2727f163f" y="156.282332"/>
     <use style="fill:none;stroke:#000000;stroke-width:0.75;" x="205.763402" xlink:href="#mf2727f163f" y="158.675595"/>
     <use style="fill:none;stroke:#000000;stroke-width:0.75;" x="207.767431" xlink:href="#mf2727f163f" y="155.681594"/>
     <use style="fill:none;stroke:#000000;stroke-width:0.75;" x="209.77146" xlink:href="#mf2727f163f" y="149.592076"/>
     <use style="fill:none;stroke:#000000;stroke-width:0.75;" x="211.77549" xlink:href="#mf2727f163f" y="156.980687"/>
     <use style="fill:none;stroke:#000000;stroke-width:0.75;" x="213.779519" xlink:href="#mf2727f163f" y="161.325226"/>
     <use style="fill:none;stroke:#000000;stroke-width:0.75;" x="215.783549" xlink:href="#mf2727f163f" y="148.49557"/>
     <use style="fill:none;stroke:#000000;stroke-width:0.75;" x="217.787578" xlink:href="#mf2727f163f" y="156.75439"/>
     <use style="fill:none;stroke:#000000;stroke-width:0.75;" x="219.791608" xlink:href="#mf2727f163f" y="155.920449"/>
     <use style="fill:none;stroke:#000000;stroke-width:0.75;" x="221.795637" xlink:href="#mf2727f163f" y="154.417026"/>
     <use style="fill:none;stroke:#000000;stroke-width:0.75;" x="223.799667" xlink:href="#mf2727f163f" y="146.374367"/>
     <use style="fill:none;stroke:#000000;stroke-width:0.75;" x="225.803696" xlink:href="#mf2727f163f" y="140.646103"/>
     <use style="fill:none;stroke:#000000;stroke-width:0.75;" x="227.807726" xlink:href="#mf2727f163f" y="151.325861"/>
     <use style="fill:none;stroke:#000000;stroke-width:0.75;" x="229.811755" xlink:href="#mf2727f163f" y="148.553456"/>
     <use style="fill:none;stroke:#000000;stroke-width:0.75;" x="231.815784" xlink:href="#mf2727f163f" y="150.230812"/>
     <use style="fill:none;stroke:#000000;stroke-width:0.75;" x="233.819814" xlink:href="#mf2727f163f" y="159.425808"/>
     <use style="fill:none;stroke:#000000;stroke-width:0.75;" x="235.823843" xlink:href="#mf2727f163f" y="163.168091"/>
     <use style="fill:none;stroke:#000000;stroke-width:0.75;" x="237.827873" xlink:href="#mf2727f163f" y="158.293565"/>
     <use style="fill:none;stroke:#000000;stroke-width:0.75;" x="239.831902" xlink:href="#mf2727f163f" y="151.15723"/>
     <use style="fill:none;stroke:#000000;stroke-width:0.75;" x="241.835932" xlink:href="#mf2727f163f" y="157.075083"/>
     <use style="fill:none;stroke:#000000;stroke-width:0.75;" x="243.839961" xlink:href="#mf2727f163f" y="150.954778"/>
     <use style="fill:none;stroke:#000000;stroke-width:0.75;" x="245.843991" xlink:href="#mf2727f163f" y="159.331276"/>
     <use style="fill:none;stroke:#000000;stroke-width:0.75;" x="247.84802" xlink:href="#mf2727f163f" y="157.672073"/>
     <use style="fill:none;stroke:#000000;stroke-width:0.75;" x="249.85205" xlink:href="#mf2727f163f" y="149.313439"/>
     <use style="fill:none;stroke:#000000;stroke-width:0.75;" x="251.856079" xlink:href="#mf2727f163f" y="139.098787"/>
     <use style="fill:none;stroke:#000000;stroke-width:0.75;" x="253.860108" xlink:href="#mf2727f163f" y="159.758618"/>
     <use style="fill:none;stroke:#000000;stroke-width:0.75;" x="255.864138" xlink:href="#mf2727f163f" y="154.053358"/>
     <use style="fill:none;stroke:#000000;stroke-width:0.75;" x="257.868167" xlink:href="#mf2727f163f" y="167.250638"/>
     <use style="fill:none;stroke:#000000;stroke-width:0.75;" x="259.872197" xlink:href="#mf2727f163f" y="160.814186"/>
     <use style="fill:none;stroke:#000000;stroke-width:0.75;" x="261.876226" xlink:href="#mf2727f163f" y="155.810375"/>
     <use style="fill:none;stroke:#000000;stroke-width:0.75;" x="263.880256" xlink:href="#mf2727f163f" y="164.532536"/>
    </g>
   </g>
   <g id="line2d_13">
    <path clip-path="url(#pc61b4c206a)" d="M 67.485369 59.396906 
L 69.489399 73.17766 
L 71.493428 81.085488 
L 73.497458 86.435235 
L 75.501487 90.437968 
L 77.505517 93.641462 
L 79.509546 96.329657 
L 81.513575 98.664474 
L 83.517605 100.745027 
L 85.521634 102.635413 
L 87.525664 104.378936 
L 89.529693 106.00593 
L 91.533723 107.538285 
L 93.537752 108.992211 
L 95.541782 110.379977 
L 97.545811 111.711048 
L 99.549841 112.992854 
L 101.55387 114.231313 
L 103.557899 115.431207 
L 105.561929 116.596443 
L 107.565958 117.730255 
L 109.569988 118.835343 
L 111.574017 119.913983 
L 113.578047 120.968113 
L 115.582076 121.999398 
L 117.586106 123.009272 
L 119.590135 123.998989 
L 121.594165 124.969646 
L 123.598194 125.922211 
L 125.602223 126.857544 
L 127.606253 127.776411 
L 129.610282 128.679504 
L 131.614312 129.567442 
L 133.618341 130.44079 
L 135.622371 131.300061 
L 137.6264 132.145726 
L 139.63043 132.978217 
L 141.634459 133.797931 
L 143.638489 134.605239 
L 145.642518 135.400483 
L 147.646547 136.183984 
L 149.650577 136.95604 
L 151.654606 137.716932 
L 153.658636 138.466926 
L 155.662665 139.20627 
L 157.666695 139.935201 
L 159.670724 140.653943 
L 161.674754 141.362709 
L 163.678783 142.061702 
L 165.682813 142.751116 
L 167.686842 143.431137 
L 169.690871 144.101941 
L 171.694901 144.7637 
L 173.69893 145.416578 
L 175.70296 146.060733 
L 177.706989 146.696317 
L 179.711019 147.323478 
L 181.715048 147.942357 
L 183.719078 148.553093 
L 185.723107 149.155819 
L 187.727136 149.750665 
L 189.731166 150.337756 
L 191.735195 150.917215 
L 193.739225 151.489161 
L 195.743254 152.053709 
L 197.747284 152.610973 
L 199.751313 153.161062 
L 201.755343 153.704085 
L 203.759372 154.240144 
L 205.763402 154.769345 
L 207.767431 155.291785 
L 209.77146 155.807564 
L 211.77549 156.316776 
L 213.779519 156.819517 
L 215.783549 157.315877 
L 217.787578 157.805947 
L 219.791608 158.289815 
L 221.795637 158.767567 
L 223.799667 159.239289 
L 225.803696 159.705064 
L 227.807726 160.164973 
L 229.811755 160.619096 
L 231.815784 161.067513 
L 233.819814 161.5103 
L 235.823843 161.947535 
L 237.827873 162.379291 
L 239.831902 162.805642 
L 241.835932 163.22666 
L 243.839961 163.642416 
L 245.843991 164.052981 
L 247.84802 164.458423 
L 249.85205 164.858809 
L 251.856079 165.254207 
L 253.860108 165.644681 
L 255.864138 166.030297 
L 257.868167 166.411117 
L 259.872197 166.787204 
L 261.876226 167.158621 
L 263.880256 167.525426 
" style="fill:none;stroke:#ff0000;stroke-dasharray:5.55,2.4;stroke-dashoffset:0;stroke-width:1.5;"/>
   </g>
   <g id="patch_3">
    <path d="M 57.665625 174.821875 
L 57.665625 14.3 
" style="fill:none;stroke:#000000;stroke-linecap:square;stroke-linejoin:miter;stroke-width:0.8;"/>
   </g>
   <g id="patch_4">
    <path d="M 273.7 174.821875 
L 273.7 14.3 
" style="fill:none;stroke:#000000;stroke-linecap:square;stroke-linejoin:miter;stroke-width:0.8;"/>
   </g>
   <g id="patch_5">
    <path d="M 57.665625 174.821875 
L 273.7 174.821875 
" style="fill:none;stroke:#000000;stroke-linecap:square;stroke-linejoin:miter;stroke-width:0.8;"/>
   </g>
   <g id="patch_6">
    <path d="M 57.665625 14.3 
L 273.7 14.3 
" style="fill:none;stroke:#000000;stroke-linecap:square;stroke-linejoin:miter;stroke-width:0.8;"/>
   </g>
  </g>
 </g>
 <defs>
  <clipPath id="pc61b4c206a">
   <rect height="160.521875" width="216.034375" x="57.665625" y="14.3"/>
  </clipPath>
 </defs>
</svg>
