<?xml version="1.0" encoding="utf-8" standalone="no"?>
<!DOCTYPE svg PUBLIC "-//W3C//DTD SVG 1.1//EN"
  "http://www.w3.org/Graphics/SVG/1.1/DTD/svg11.dtd">
<!-- Created with matplotlib (http://matplotlib.org/) -->
<svg height="216pt" version="1.1" viewBox="0 0 288 216" width="288pt" xmlns="http://www.w3.org/2000/svg" xmlns:xlink="http://www.w3.org/1999/xlink">
 <defs>
  <style type="text/css">
*{stroke-linecap:butt;stroke-linejoin:round;}
  </style>
 </defs>
 <g id="figure_1">
  <g id="patch_1">
   <path d="M 0 216 
L 288 216 
L 288 0 
L 0 0 
z
" style="fill:#ffffff;"/>
  </g>
  <g id="axes_1">
   <g id="patch_2">
    <path d="M 64.028125 174.821875 
L 273.7 174.821875 
L 273.7 14.3 
L 64.028125 14.3 
z
" style="fill:#ffffff;"/>
   </g>
   <g id="matplotlib.axis_1">
    <g id="xtick_1">
     <g id="line2d_1">
      <defs>
       <path d="M 0 0 
L 0 3.5 
" id="mcc79a4cd07" style="stroke:#000000;stroke-width:0.8;"/>
      </defs>
      <g>
       <use style="stroke:#000000;stroke-width:0.8;" x="71.613657" xlink:href="#mcc79a4cd07" y="174.821875"/>
      </g>
     </g>
     <g id="text_1">
      <!-- 0 -->
      <defs>
       <path d="M 31.78125 66.40625 
Q 24.171875 66.40625 20.328125 58.90625 
Q 16.5 51.421875 16.5 36.375 
Q 16.5 21.390625 20.328125 13.890625 
Q 24.171875 6.390625 31.78125 6.390625 
Q 39.453125 6.390625 43.28125 13.890625 
Q 47.125 21.390625 47.125 36.375 
Q 47.125 51.421875 43.28125 58.90625 
Q 39.453125 66.40625 31.78125 66.40625 
z
M 31.78125 74.21875 
Q 44.046875 74.21875 50.515625 64.515625 
Q 56.984375 54.828125 56.984375 36.375 
Q 56.984375 17.96875 50.515625 8.265625 
Q 44.046875 -1.421875 31.78125 -1.421875 
Q 19.53125 -1.421875 13.0625 8.265625 
Q 6.59375 17.96875 6.59375 36.375 
Q 6.59375 54.828125 13.0625 64.515625 
Q 19.53125 74.21875 31.78125 74.21875 
z
" id="DejaVuSans-30"/>
      </defs>
      <g transform="translate(68.432407 189.420312)scale(0.1 -0.1)">
       <use xlink:href="#DejaVuSans-30"/>
      </g>
     </g>
    </g>
    <g id="xtick_2">
     <g id="line2d_2">
      <g>
       <use style="stroke:#000000;stroke-width:0.8;" x="136.447261" xlink:href="#mcc79a4cd07" y="174.821875"/>
      </g>
     </g>
     <g id="text_2">
      <!-- 100 -->
      <defs>
       <path d="M 12.40625 8.296875 
L 28.515625 8.296875 
L 28.515625 63.921875 
L 10.984375 60.40625 
L 10.984375 69.390625 
L 28.421875 72.90625 
L 38.28125 72.90625 
L 38.28125 8.296875 
L 54.390625 8.296875 
L 54.390625 0 
L 12.40625 0 
z
" id="DejaVuSans-31"/>
      </defs>
      <g transform="translate(126.903511 189.420312)scale(0.1 -0.1)">
       <use xlink:href="#DejaVuSans-31"/>
       <use x="63.623047" xlink:href="#DejaVuSans-30"/>
       <use x="127.246094" xlink:href="#DejaVuSans-30"/>
      </g>
     </g>
    </g>
    <g id="xtick_3">
     <g id="line2d_3">
      <g>
       <use style="stroke:#000000;stroke-width:0.8;" x="201.280864" xlink:href="#mcc79a4cd07" y="174.821875"/>
      </g>
     </g>
     <g id="text_3">
      <!-- 200 -->
      <defs>
       <path d="M 19.1875 8.296875 
L 53.609375 8.296875 
L 53.609375 0 
L 7.328125 0 
L 7.328125 8.296875 
Q 12.9375 14.109375 22.625 23.890625 
Q 32.328125 33.6875 34.8125 36.53125 
Q 39.546875 41.84375 41.421875 45.53125 
Q 43.3125 49.21875 43.3125 52.78125 
Q 43.3125 58.59375 39.234375 62.25 
Q 35.15625 65.921875 28.609375 65.921875 
Q 23.96875 65.921875 18.8125 64.3125 
Q 13.671875 62.703125 7.8125 59.421875 
L 7.8125 69.390625 
Q 13.765625 71.78125 18.9375 73 
Q 24.125 74.21875 28.421875 74.21875 
Q 39.75 74.21875 46.484375 68.546875 
Q 53.21875 62.890625 53.21875 53.421875 
Q 53.21875 48.921875 51.53125 44.890625 
Q 49.859375 40.875 45.40625 35.40625 
Q 44.1875 33.984375 37.640625 27.21875 
Q 31.109375 20.453125 19.1875 8.296875 
z
" id="DejaVuSans-32"/>
      </defs>
      <g transform="translate(191.737114 189.420312)scale(0.1 -0.1)">
       <use xlink:href="#DejaVuSans-32"/>
       <use x="63.623047" xlink:href="#DejaVuSans-30"/>
       <use x="127.246094" xlink:href="#DejaVuSans-30"/>
      </g>
     </g>
    </g>
    <g id="xtick_4">
     <g id="line2d_4">
      <g>
       <use style="stroke:#000000;stroke-width:0.8;" x="266.114468" xlink:href="#mcc79a4cd07" y="174.821875"/>
      </g>
     </g>
     <g id="text_4">
      <!-- 300 -->
      <defs>
       <path d="M 40.578125 39.3125 
Q 47.65625 37.796875 51.625 33 
Q 55.609375 28.21875 55.609375 21.1875 
Q 55.609375 10.40625 48.1875 4.484375 
Q 40.765625 -1.421875 27.09375 -1.421875 
Q 22.515625 -1.421875 17.65625 -0.515625 
Q 12.796875 0.390625 7.625 2.203125 
L 7.625 11.71875 
Q 11.71875 9.328125 16.59375 8.109375 
Q 21.484375 6.890625 26.8125 6.890625 
Q 36.078125 6.890625 40.9375 10.546875 
Q 45.796875 14.203125 45.796875 21.1875 
Q 45.796875 27.640625 41.28125 31.265625 
Q 36.765625 34.90625 28.71875 34.90625 
L 20.21875 34.90625 
L 20.21875 43.015625 
L 29.109375 43.015625 
Q 36.375 43.015625 40.234375 45.921875 
Q 44.09375 48.828125 44.09375 54.296875 
Q 44.09375 59.90625 40.109375 62.90625 
Q 36.140625 65.921875 28.71875 65.921875 
Q 24.65625 65.921875 20.015625 65.03125 
Q 15.375 64.15625 9.8125 62.3125 
L 9.8125 71.09375 
Q 15.4375 72.65625 20.34375 73.4375 
Q 25.25 74.21875 29.59375 74.21875 
Q 40.828125 74.21875 47.359375 69.109375 
Q 53.90625 64.015625 53.90625 55.328125 
Q 53.90625 49.265625 50.4375 45.09375 
Q 46.96875 40.921875 40.578125 39.3125 
z
" id="DejaVuSans-33"/>
      </defs>
      <g transform="translate(256.570718 189.420312)scale(0.1 -0.1)">
       <use xlink:href="#DejaVuSans-33"/>
       <use x="63.623047" xlink:href="#DejaVuSans-30"/>
       <use x="127.246094" xlink:href="#DejaVuSans-30"/>
      </g>
     </g>
    </g>
    <g id="text_5">
     <!-- distance $l$ (bp) -->
     <defs>
      <path d="M 45.40625 46.390625 
L 45.40625 75.984375 
L 54.390625 75.984375 
L 54.390625 0 
L 45.40625 0 
L 45.40625 8.203125 
Q 42.578125 3.328125 38.25 0.953125 
Q 33.9375 -1.421875 27.875 -1.421875 
Q 17.96875 -1.421875 11.734375 6.484375 
Q 5.515625 14.40625 5.515625 27.296875 
Q 5.515625 40.1875 11.734375 48.09375 
Q 17.96875 56 27.875 56 
Q 33.9375 56 38.25 53.625 
Q 42.578125 51.265625 45.40625 46.390625 
z
M 14.796875 27.296875 
Q 14.796875 17.390625 18.875 11.75 
Q 22.953125 6.109375 30.078125 6.109375 
Q 37.203125 6.109375 41.296875 11.75 
Q 45.40625 17.390625 45.40625 27.296875 
Q 45.40625 37.203125 41.296875 42.84375 
Q 37.203125 48.484375 30.078125 48.484375 
Q 22.953125 48.484375 18.875 42.84375 
Q 14.796875 37.203125 14.796875 27.296875 
z
" id="DejaVuSans-64"/>
      <path d="M 9.421875 54.6875 
L 18.40625 54.6875 
L 18.40625 0 
L 9.421875 0 
z
M 9.421875 75.984375 
L 18.40625 75.984375 
L 18.40625 64.59375 
L 9.421875 64.59375 
z
" id="DejaVuSans-69"/>
      <path d="M 44.28125 53.078125 
L 44.28125 44.578125 
Q 40.484375 46.53125 36.375 47.5 
Q 32.28125 48.484375 27.875 48.484375 
Q 21.1875 48.484375 17.84375 46.4375 
Q 14.5 44.390625 14.5 40.28125 
Q 14.5 37.15625 16.890625 35.375 
Q 19.28125 33.59375 26.515625 31.984375 
L 29.59375 31.296875 
Q 39.15625 29.25 43.1875 25.515625 
Q 47.21875 21.78125 47.21875 15.09375 
Q 47.21875 7.46875 41.1875 3.015625 
Q 35.15625 -1.421875 24.609375 -1.421875 
Q 20.21875 -1.421875 15.453125 -0.5625 
Q 10.6875 0.296875 5.421875 2 
L 5.421875 11.28125 
Q 10.40625 8.6875 15.234375 7.390625 
Q 20.0625 6.109375 24.8125 6.109375 
Q 31.15625 6.109375 34.5625 8.28125 
Q 37.984375 10.453125 37.984375 14.40625 
Q 37.984375 18.0625 35.515625 20.015625 
Q 33.0625 21.96875 24.703125 23.78125 
L 21.578125 24.515625 
Q 13.234375 26.265625 9.515625 29.90625 
Q 5.8125 33.546875 5.8125 39.890625 
Q 5.8125 47.609375 11.28125 51.796875 
Q 16.75 56 26.8125 56 
Q 31.78125 56 36.171875 55.265625 
Q 40.578125 54.546875 44.28125 53.078125 
z
" id="DejaVuSans-73"/>
      <path d="M 18.3125 70.21875 
L 18.3125 54.6875 
L 36.8125 54.6875 
L 36.8125 47.703125 
L 18.3125 47.703125 
L 18.3125 18.015625 
Q 18.3125 11.328125 20.140625 9.421875 
Q 21.96875 7.515625 27.59375 7.515625 
L 36.8125 7.515625 
L 36.8125 0 
L 27.59375 0 
Q 17.1875 0 13.234375 3.875 
Q 9.28125 7.765625 9.28125 18.015625 
L 9.28125 47.703125 
L 2.6875 47.703125 
L 2.6875 54.6875 
L 9.28125 54.6875 
L 9.28125 70.21875 
z
" id="DejaVuSans-74"/>
      <path d="M 34.28125 27.484375 
Q 23.390625 27.484375 19.1875 25 
Q 14.984375 22.515625 14.984375 16.5 
Q 14.984375 11.71875 18.140625 8.90625 
Q 21.296875 6.109375 26.703125 6.109375 
Q 34.1875 6.109375 38.703125 11.40625 
Q 43.21875 16.703125 43.21875 25.484375 
L 43.21875 27.484375 
z
M 52.203125 31.203125 
L 52.203125 0 
L 43.21875 0 
L 43.21875 8.296875 
Q 40.140625 3.328125 35.546875 0.953125 
Q 30.953125 -1.421875 24.3125 -1.421875 
Q 15.921875 -1.421875 10.953125 3.296875 
Q 6 8.015625 6 15.921875 
Q 6 25.140625 12.171875 29.828125 
Q 18.359375 34.515625 30.609375 34.515625 
L 43.21875 34.515625 
L 43.21875 35.40625 
Q 43.21875 41.609375 39.140625 45 
Q 35.0625 48.390625 27.6875 48.390625 
Q 23 48.390625 18.546875 47.265625 
Q 14.109375 46.140625 10.015625 43.890625 
L 10.015625 52.203125 
Q 14.9375 54.109375 19.578125 55.046875 
Q 24.21875 56 28.609375 56 
Q 40.484375 56 46.34375 49.84375 
Q 52.203125 43.703125 52.203125 31.203125 
z
" id="DejaVuSans-61"/>
      <path d="M 54.890625 33.015625 
L 54.890625 0 
L 45.90625 0 
L 45.90625 32.71875 
Q 45.90625 40.484375 42.875 44.328125 
Q 39.84375 48.1875 33.796875 48.1875 
Q 26.515625 48.1875 22.3125 43.546875 
Q 18.109375 38.921875 18.109375 30.90625 
L 18.109375 0 
L 9.078125 0 
L 9.078125 54.6875 
L 18.109375 54.6875 
L 18.109375 46.1875 
Q 21.34375 51.125 25.703125 53.5625 
Q 30.078125 56 35.796875 56 
Q 45.21875 56 50.046875 50.171875 
Q 54.890625 44.34375 54.890625 33.015625 
z
" id="DejaVuSans-6e"/>
      <path d="M 48.78125 52.59375 
L 48.78125 44.1875 
Q 44.96875 46.296875 41.140625 47.34375 
Q 37.3125 48.390625 33.40625 48.390625 
Q 24.65625 48.390625 19.8125 42.84375 
Q 14.984375 37.3125 14.984375 27.296875 
Q 14.984375 17.28125 19.8125 11.734375 
Q 24.65625 6.203125 33.40625 6.203125 
Q 37.3125 6.203125 41.140625 7.25 
Q 44.96875 8.296875 48.78125 10.40625 
L 48.78125 2.09375 
Q 45.015625 0.34375 40.984375 -0.53125 
Q 36.96875 -1.421875 32.421875 -1.421875 
Q 20.0625 -1.421875 12.78125 6.34375 
Q 5.515625 14.109375 5.515625 27.296875 
Q 5.515625 40.671875 12.859375 48.328125 
Q 20.21875 56 33.015625 56 
Q 37.15625 56 41.109375 55.140625 
Q 45.0625 54.296875 48.78125 52.59375 
z
" id="DejaVuSans-63"/>
      <path d="M 56.203125 29.59375 
L 56.203125 25.203125 
L 14.890625 25.203125 
Q 15.484375 15.921875 20.484375 11.0625 
Q 25.484375 6.203125 34.421875 6.203125 
Q 39.59375 6.203125 44.453125 7.46875 
Q 49.3125 8.734375 54.109375 11.28125 
L 54.109375 2.78125 
Q 49.265625 0.734375 44.1875 -0.34375 
Q 39.109375 -1.421875 33.890625 -1.421875 
Q 20.796875 -1.421875 13.15625 6.1875 
Q 5.515625 13.8125 5.515625 26.8125 
Q 5.515625 40.234375 12.765625 48.109375 
Q 20.015625 56 32.328125 56 
Q 43.359375 56 49.78125 48.890625 
Q 56.203125 41.796875 56.203125 29.59375 
z
M 47.21875 32.234375 
Q 47.125 39.59375 43.09375 43.984375 
Q 39.0625 48.390625 32.421875 48.390625 
Q 24.90625 48.390625 20.390625 44.140625 
Q 15.875 39.890625 15.1875 32.171875 
z
" id="DejaVuSans-65"/>
      <path id="DejaVuSans-20"/>
      <path d="M 18.3125 75.984375 
L 27.296875 75.984375 
L 12.5 0 
L 3.515625 0 
z
" id="DejaVuSans-Oblique-6c"/>
      <path d="M 31 75.875 
Q 24.46875 64.65625 21.28125 53.65625 
Q 18.109375 42.671875 18.109375 31.390625 
Q 18.109375 20.125 21.3125 9.0625 
Q 24.515625 -2 31 -13.1875 
L 23.1875 -13.1875 
Q 15.875 -1.703125 12.234375 9.375 
Q 8.59375 20.453125 8.59375 31.390625 
Q 8.59375 42.28125 12.203125 53.3125 
Q 15.828125 64.359375 23.1875 75.875 
z
" id="DejaVuSans-28"/>
      <path d="M 48.6875 27.296875 
Q 48.6875 37.203125 44.609375 42.84375 
Q 40.53125 48.484375 33.40625 48.484375 
Q 26.265625 48.484375 22.1875 42.84375 
Q 18.109375 37.203125 18.109375 27.296875 
Q 18.109375 17.390625 22.1875 11.75 
Q 26.265625 6.109375 33.40625 6.109375 
Q 40.53125 6.109375 44.609375 11.75 
Q 48.6875 17.390625 48.6875 27.296875 
z
M 18.109375 46.390625 
Q 20.953125 51.265625 25.265625 53.625 
Q 29.59375 56 35.59375 56 
Q 45.5625 56 51.78125 48.09375 
Q 58.015625 40.1875 58.015625 27.296875 
Q 58.015625 14.40625 51.78125 6.484375 
Q 45.5625 -1.421875 35.59375 -1.421875 
Q 29.59375 -1.421875 25.265625 0.953125 
Q 20.953125 3.328125 18.109375 8.203125 
L 18.109375 0 
L 9.078125 0 
L 9.078125 75.984375 
L 18.109375 75.984375 
z
" id="DejaVuSans-62"/>
      <path d="M 18.109375 8.203125 
L 18.109375 -20.796875 
L 9.078125 -20.796875 
L 9.078125 54.6875 
L 18.109375 54.6875 
L 18.109375 46.390625 
Q 20.953125 51.265625 25.265625 53.625 
Q 29.59375 56 35.59375 56 
Q 45.5625 56 51.78125 48.09375 
Q 58.015625 40.1875 58.015625 27.296875 
Q 58.015625 14.40625 51.78125 6.484375 
Q 45.5625 -1.421875 35.59375 -1.421875 
Q 29.59375 -1.421875 25.265625 0.953125 
Q 20.953125 3.328125 18.109375 8.203125 
z
M 48.6875 27.296875 
Q 48.6875 37.203125 44.609375 42.84375 
Q 40.53125 48.484375 33.40625 48.484375 
Q 26.265625 48.484375 22.1875 42.84375 
Q 18.109375 37.203125 18.109375 27.296875 
Q 18.109375 17.390625 22.1875 11.75 
Q 26.265625 6.109375 33.40625 6.109375 
Q 40.53125 6.109375 44.609375 11.75 
Q 48.6875 17.390625 48.6875 27.296875 
z
" id="DejaVuSans-70"/>
      <path d="M 8.015625 75.875 
L 15.828125 75.875 
Q 23.140625 64.359375 26.78125 53.3125 
Q 30.421875 42.28125 30.421875 31.390625 
Q 30.421875 20.453125 26.78125 9.375 
Q 23.140625 -1.703125 15.828125 -13.1875 
L 8.015625 -13.1875 
Q 14.5 -2 17.703125 9.0625 
Q 20.90625 20.125 20.90625 31.390625 
Q 20.90625 42.671875 17.703125 53.65625 
Q 14.5 64.65625 8.015625 75.875 
z
" id="DejaVuSans-29"/>
     </defs>
     <g transform="translate(132.814063 203.1)scale(0.1 -0.1)">
      <use transform="translate(0 0.015625)" xlink:href="#DejaVuSans-64"/>
      <use transform="translate(63.476562 0.015625)" xlink:href="#DejaVuSans-69"/>
      <use transform="translate(91.259766 0.015625)" xlink:href="#DejaVuSans-73"/>
      <use transform="translate(143.359375 0.015625)" xlink:href="#DejaVuSans-74"/>
      <use transform="translate(182.568359 0.015625)" xlink:href="#DejaVuSans-61"/>
      <use transform="translate(243.847656 0.015625)" xlink:href="#DejaVuSans-6e"/>
      <use transform="translate(307.226562 0.015625)" xlink:href="#DejaVuSans-63"/>
      <use transform="translate(362.207031 0.015625)" xlink:href="#DejaVuSans-65"/>
      <use transform="translate(423.730469 0.015625)" xlink:href="#DejaVuSans-20"/>
      <use transform="translate(455.517578 0.015625)" xlink:href="#DejaVuSans-Oblique-6c"/>
      <use transform="translate(483.300781 0.015625)" xlink:href="#DejaVuSans-20"/>
      <use transform="translate(515.087891 0.015625)" xlink:href="#DejaVuSans-28"/>
      <use transform="translate(554.101562 0.015625)" xlink:href="#DejaVuSans-62"/>
      <use transform="translate(617.578125 0.015625)" xlink:href="#DejaVuSans-70"/>
      <use transform="translate(681.054688 0.015625)" xlink:href="#DejaVuSans-29"/>
     </g>
    </g>
   </g>
   <g id="matplotlib.axis_2">
    <g id="ytick_1">
     <g id="line2d_5">
      <defs>
       <path d="M 0 0 
L -3.5 0 
" id="m2f74d860c5" style="stroke:#000000;stroke-width:0.8;"/>
      </defs>
      <g>
       <use style="stroke:#000000;stroke-width:0.8;" x="64.028125" xlink:href="#m2f74d860c5" y="174.086708"/>
      </g>
     </g>
     <g id="text_6">
      <!-- 0.000 -->
      <defs>
       <path d="M 10.6875 12.40625 
L 21 12.40625 
L 21 0 
L 10.6875 0 
z
" id="DejaVuSans-2e"/>
      </defs>
      <g transform="translate(28.4 177.885927)scale(0.1 -0.1)">
       <use xlink:href="#DejaVuSans-30"/>
       <use x="63.623047" xlink:href="#DejaVuSans-2e"/>
       <use x="95.410156" xlink:href="#DejaVuSans-30"/>
       <use x="159.033203" xlink:href="#DejaVuSans-30"/>
       <use x="222.65625" xlink:href="#DejaVuSans-30"/>
      </g>
     </g>
    </g>
    <g id="ytick_2">
     <g id="line2d_6">
      <g>
       <use style="stroke:#000000;stroke-width:0.8;" x="64.028125" xlink:href="#m2f74d860c5" y="157.004889"/>
      </g>
     </g>
     <g id="text_7">
      <!-- 0.002 -->
      <g transform="translate(28.4 160.804107)scale(0.1 -0.1)">
       <use xlink:href="#DejaVuSans-30"/>
       <use x="63.623047" xlink:href="#DejaVuSans-2e"/>
       <use x="95.410156" xlink:href="#DejaVuSans-30"/>
       <use x="159.033203" xlink:href="#DejaVuSans-30"/>
       <use x="222.65625" xlink:href="#DejaVuSans-32"/>
      </g>
     </g>
    </g>
    <g id="ytick_3">
     <g id="line2d_7">
      <g>
       <use style="stroke:#000000;stroke-width:0.8;" x="64.028125" xlink:href="#m2f74d860c5" y="139.923069"/>
      </g>
     </g>
     <g id="text_8">
      <!-- 0.004 -->
      <defs>
       <path d="M 37.796875 64.3125 
L 12.890625 25.390625 
L 37.796875 25.390625 
z
M 35.203125 72.90625 
L 47.609375 72.90625 
L 47.609375 25.390625 
L 58.015625 25.390625 
L 58.015625 17.1875 
L 47.609375 17.1875 
L 47.609375 0 
L 37.796875 0 
L 37.796875 17.1875 
L 4.890625 17.1875 
L 4.890625 26.703125 
z
" id="DejaVuSans-34"/>
      </defs>
      <g transform="translate(28.4 143.722288)scale(0.1 -0.1)">
       <use xlink:href="#DejaVuSans-30"/>
       <use x="63.623047" xlink:href="#DejaVuSans-2e"/>
       <use x="95.410156" xlink:href="#DejaVuSans-30"/>
       <use x="159.033203" xlink:href="#DejaVuSans-30"/>
       <use x="222.65625" xlink:href="#DejaVuSans-34"/>
      </g>
     </g>
    </g>
    <g id="ytick_4">
     <g id="line2d_8">
      <g>
       <use style="stroke:#000000;stroke-width:0.8;" x="64.028125" xlink:href="#m2f74d860c5" y="122.841249"/>
      </g>
     </g>
     <g id="text_9">
      <!-- 0.006 -->
      <defs>
       <path d="M 33.015625 40.375 
Q 26.375 40.375 22.484375 35.828125 
Q 18.609375 31.296875 18.609375 23.390625 
Q 18.609375 15.53125 22.484375 10.953125 
Q 26.375 6.390625 33.015625 6.390625 
Q 39.65625 6.390625 43.53125 10.953125 
Q 47.40625 15.53125 47.40625 23.390625 
Q 47.40625 31.296875 43.53125 35.828125 
Q 39.65625 40.375 33.015625 40.375 
z
M 52.59375 71.296875 
L 52.59375 62.3125 
Q 48.875 64.0625 45.09375 64.984375 
Q 41.3125 65.921875 37.59375 65.921875 
Q 27.828125 65.921875 22.671875 59.328125 
Q 17.53125 52.734375 16.796875 39.40625 
Q 19.671875 43.65625 24.015625 45.921875 
Q 28.375 48.1875 33.59375 48.1875 
Q 44.578125 48.1875 50.953125 41.515625 
Q 57.328125 34.859375 57.328125 23.390625 
Q 57.328125 12.15625 50.6875 5.359375 
Q 44.046875 -1.421875 33.015625 -1.421875 
Q 20.359375 -1.421875 13.671875 8.265625 
Q 6.984375 17.96875 6.984375 36.375 
Q 6.984375 53.65625 15.1875 63.9375 
Q 23.390625 74.21875 37.203125 74.21875 
Q 40.921875 74.21875 44.703125 73.484375 
Q 48.484375 72.75 52.59375 71.296875 
z
" id="DejaVuSans-36"/>
      </defs>
      <g transform="translate(28.4 126.640468)scale(0.1 -0.1)">
       <use xlink:href="#DejaVuSans-30"/>
       <use x="63.623047" xlink:href="#DejaVuSans-2e"/>
       <use x="95.410156" xlink:href="#DejaVuSans-30"/>
       <use x="159.033203" xlink:href="#DejaVuSans-30"/>
       <use x="222.65625" xlink:href="#DejaVuSans-36"/>
      </g>
     </g>
    </g>
    <g id="ytick_5">
     <g id="line2d_9">
      <g>
       <use style="stroke:#000000;stroke-width:0.8;" x="64.028125" xlink:href="#m2f74d860c5" y="105.75943"/>
      </g>
     </g>
     <g id="text_10">
      <!-- 0.008 -->
      <defs>
       <path d="M 31.78125 34.625 
Q 24.75 34.625 20.71875 30.859375 
Q 16.703125 27.09375 16.703125 20.515625 
Q 16.703125 13.921875 20.71875 10.15625 
Q 24.75 6.390625 31.78125 6.390625 
Q 38.8125 6.390625 42.859375 10.171875 
Q 46.921875 13.96875 46.921875 20.515625 
Q 46.921875 27.09375 42.890625 30.859375 
Q 38.875 34.625 31.78125 34.625 
z
M 21.921875 38.8125 
Q 15.578125 40.375 12.03125 44.71875 
Q 8.5 49.078125 8.5 55.328125 
Q 8.5 64.0625 14.71875 69.140625 
Q 20.953125 74.21875 31.78125 74.21875 
Q 42.671875 74.21875 48.875 69.140625 
Q 55.078125 64.0625 55.078125 55.328125 
Q 55.078125 49.078125 51.53125 44.71875 
Q 48 40.375 41.703125 38.8125 
Q 48.828125 37.15625 52.796875 32.3125 
Q 56.78125 27.484375 56.78125 20.515625 
Q 56.78125 9.90625 50.3125 4.234375 
Q 43.84375 -1.421875 31.78125 -1.421875 
Q 19.734375 -1.421875 13.25 4.234375 
Q 6.78125 9.90625 6.78125 20.515625 
Q 6.78125 27.484375 10.78125 32.3125 
Q 14.796875 37.15625 21.921875 38.8125 
z
M 18.3125 54.390625 
Q 18.3125 48.734375 21.84375 45.5625 
Q 25.390625 42.390625 31.78125 42.390625 
Q 38.140625 42.390625 41.71875 45.5625 
Q 45.3125 48.734375 45.3125 54.390625 
Q 45.3125 60.0625 41.71875 63.234375 
Q 38.140625 66.40625 31.78125 66.40625 
Q 25.390625 66.40625 21.84375 63.234375 
Q 18.3125 60.0625 18.3125 54.390625 
z
" id="DejaVuSans-38"/>
      </defs>
      <g transform="translate(28.4 109.558648)scale(0.1 -0.1)">
       <use xlink:href="#DejaVuSans-30"/>
       <use x="63.623047" xlink:href="#DejaVuSans-2e"/>
       <use x="95.410156" xlink:href="#DejaVuSans-30"/>
       <use x="159.033203" xlink:href="#DejaVuSans-30"/>
       <use x="222.65625" xlink:href="#DejaVuSans-38"/>
      </g>
     </g>
    </g>
    <g id="ytick_6">
     <g id="line2d_10">
      <g>
       <use style="stroke:#000000;stroke-width:0.8;" x="64.028125" xlink:href="#m2f74d860c5" y="88.67761"/>
      </g>
     </g>
     <g id="text_11">
      <!-- 0.010 -->
      <g transform="translate(28.4 92.476829)scale(0.1 -0.1)">
       <use xlink:href="#DejaVuSans-30"/>
       <use x="63.623047" xlink:href="#DejaVuSans-2e"/>
       <use x="95.410156" xlink:href="#DejaVuSans-30"/>
       <use x="159.033203" xlink:href="#DejaVuSans-31"/>
       <use x="222.65625" xlink:href="#DejaVuSans-30"/>
      </g>
     </g>
    </g>
    <g id="ytick_7">
     <g id="line2d_11">
      <g>
       <use style="stroke:#000000;stroke-width:0.8;" x="64.028125" xlink:href="#m2f74d860c5" y="71.59579"/>
      </g>
     </g>
     <g id="text_12">
      <!-- 0.012 -->
      <g transform="translate(28.4 75.395009)scale(0.1 -0.1)">
       <use xlink:href="#DejaVuSans-30"/>
       <use x="63.623047" xlink:href="#DejaVuSans-2e"/>
       <use x="95.410156" xlink:href="#DejaVuSans-30"/>
       <use x="159.033203" xlink:href="#DejaVuSans-31"/>
       <use x="222.65625" xlink:href="#DejaVuSans-32"/>
      </g>
     </g>
    </g>
    <g id="ytick_8">
     <g id="line2d_12">
      <g>
       <use style="stroke:#000000;stroke-width:0.8;" x="64.028125" xlink:href="#m2f74d860c5" y="54.513971"/>
      </g>
     </g>
     <g id="text_13">
      <!-- 0.014 -->
      <g transform="translate(28.4 58.31319)scale(0.1 -0.1)">
       <use xlink:href="#DejaVuSans-30"/>
       <use x="63.623047" xlink:href="#DejaVuSans-2e"/>
       <use x="95.410156" xlink:href="#DejaVuSans-30"/>
       <use x="159.033203" xlink:href="#DejaVuSans-31"/>
       <use x="222.65625" xlink:href="#DejaVuSans-34"/>
      </g>
     </g>
    </g>
    <g id="ytick_9">
     <g id="line2d_13">
      <g>
       <use style="stroke:#000000;stroke-width:0.8;" x="64.028125" xlink:href="#m2f74d860c5" y="37.432151"/>
      </g>
     </g>
     <g id="text_14">
      <!-- 0.016 -->
      <g transform="translate(28.4 41.23137)scale(0.1 -0.1)">
       <use xlink:href="#DejaVuSans-30"/>
       <use x="63.623047" xlink:href="#DejaVuSans-2e"/>
       <use x="95.410156" xlink:href="#DejaVuSans-30"/>
       <use x="159.033203" xlink:href="#DejaVuSans-31"/>
       <use x="222.65625" xlink:href="#DejaVuSans-36"/>
      </g>
     </g>
    </g>
    <g id="ytick_10">
     <g id="line2d_14">
      <g>
       <use style="stroke:#000000;stroke-width:0.8;" x="64.028125" xlink:href="#m2f74d860c5" y="20.350332"/>
      </g>
     </g>
     <g id="text_15">
      <!-- 0.018 -->
      <g transform="translate(28.4 24.14955)scale(0.1 -0.1)">
       <use xlink:href="#DejaVuSans-30"/>
       <use x="63.623047" xlink:href="#DejaVuSans-2e"/>
       <use x="95.410156" xlink:href="#DejaVuSans-30"/>
       <use x="159.033203" xlink:href="#DejaVuSans-31"/>
       <use x="222.65625" xlink:href="#DejaVuSans-38"/>
      </g>
     </g>
    </g>
    <g id="text_16">
     <!-- $\tilde P^{(4)}_{s,2}$ -->
     <defs>
      <path d="M -25.328125 66.890625 
L -28.109375 69.578125 
Q -29.171875 70.5625 -29.984375 71.015625 
Q -30.796875 71.484375 -31.421875 71.484375 
Q -33.28125 71.484375 -34.15625 69.703125 
Q -35.03125 67.921875 -35.140625 63.921875 
L -41.234375 63.921875 
Q -41.140625 70.515625 -38.640625 74.09375 
Q -36.15625 77.6875 -31.71875 77.6875 
Q -29.859375 77.6875 -28.296875 77 
Q -26.734375 76.3125 -24.9375 74.703125 
L -22.140625 72.015625 
Q -21.078125 71.046875 -20.265625 70.578125 
Q -19.46875 70.125 -18.828125 70.125 
Q -16.96875 70.125 -16.09375 71.90625 
Q -15.21875 73.6875 -15.109375 77.6875 
L -9.015625 77.6875 
Q -9.109375 71.09375 -11.59375 67.5 
Q -14.09375 63.921875 -18.53125 63.921875 
Q -20.390625 63.921875 -21.953125 64.59375 
Q -23.515625 65.28125 -25.328125 66.890625 
z
" id="DejaVuSans-303"/>
      <path d="M 16.890625 72.90625 
L 39.703125 72.90625 
Q 49.65625 72.90625 54.875 68.265625 
Q 60.109375 63.625 60.109375 54.6875 
Q 60.109375 42.671875 52.390625 35.984375 
Q 44.671875 29.296875 30.71875 29.296875 
L 18.3125 29.296875 
L 12.59375 0 
L 2.6875 0 
z
M 25.203125 64.796875 
L 19.921875 37.40625 
L 32.328125 37.40625 
Q 40.71875 37.40625 45.203125 41.703125 
Q 49.703125 46 49.703125 54 
Q 49.703125 59.125 46.65625 61.953125 
Q 43.609375 64.796875 38.09375 64.796875 
z
" id="DejaVuSans-Oblique-50"/>
      <path d="M 50 53.078125 
L 48.296875 44.578125 
Q 44.734375 46.53125 40.765625 47.5 
Q 36.8125 48.484375 32.625 48.484375 
Q 25.53125 48.484375 21.453125 46.0625 
Q 17.390625 43.65625 17.390625 39.5 
Q 17.390625 34.671875 26.859375 32.078125 
Q 27.59375 31.890625 27.9375 31.78125 
L 30.8125 30.90625 
Q 39.796875 28.421875 42.796875 25.6875 
Q 45.796875 22.953125 45.796875 18.21875 
Q 45.796875 9.515625 38.890625 4.046875 
Q 31.984375 -1.421875 20.796875 -1.421875 
Q 16.453125 -1.421875 11.671875 -0.578125 
Q 6.890625 0.25 1.125 2 
L 2.875 11.28125 
Q 7.8125 8.734375 12.59375 7.421875 
Q 17.390625 6.109375 21.78125 6.109375 
Q 28.375 6.109375 32.5 8.9375 
Q 36.625 11.765625 36.625 16.109375 
Q 36.625 20.796875 25.78125 23.6875 
L 24.859375 23.921875 
L 21.78125 24.703125 
Q 14.9375 26.515625 11.765625 29.46875 
Q 8.59375 32.421875 8.59375 37.015625 
Q 8.59375 45.75 15.15625 50.875 
Q 21.734375 56 33.015625 56 
Q 37.453125 56 41.671875 55.265625 
Q 45.90625 54.546875 50 53.078125 
z
" id="DejaVuSans-Oblique-73"/>
      <path d="M 11.71875 12.40625 
L 22.015625 12.40625 
L 22.015625 4 
L 14.015625 -11.625 
L 7.71875 -11.625 
L 11.71875 4 
z
" id="DejaVuSans-2c"/>
     </defs>
     <g transform="translate(20.8 103.610938)rotate(-90)scale(0.1 -0.1)">
      <use transform="translate(60.589844 22.03125)" xlink:href="#DejaVuSans-303"/>
      <use transform="translate(0 0.546875)" xlink:href="#DejaVuSans-Oblique-50"/>
      <use transform="translate(61.259766 46.8875)scale(0.7)" xlink:href="#DejaVuSans-28"/>
      <use transform="translate(88.569336 46.8875)scale(0.7)" xlink:href="#DejaVuSans-34"/>
      <use transform="translate(133.105469 46.8875)scale(0.7)" xlink:href="#DejaVuSans-29"/>
      <use transform="translate(61.259766 -26.796875)scale(0.7)" xlink:href="#DejaVuSans-Oblique-73"/>
      <use transform="translate(97.729492 -26.796875)scale(0.7)" xlink:href="#DejaVuSans-2c"/>
      <use transform="translate(133.618164 -26.796875)scale(0.7)" xlink:href="#DejaVuSans-32"/>
     </g>
    </g>
   </g>
   <g id="line2d_15">
    <defs>
     <path d="M 0 2 
C 0.530406 2 1.03916 1.789267 1.414214 1.414214 
C 1.789267 1.03916 2 0.530406 2 0 
C 2 -0.530406 1.789267 -1.03916 1.414214 -1.414214 
C 1.03916 -1.789267 0.530406 -2 0 -2 
C -0.530406 -2 -1.03916 -1.789267 -1.414214 -1.414214 
C -1.789267 -1.03916 -2 -0.530406 -2 0 
C -2 0.530406 -1.789267 1.03916 -1.414214 1.414214 
C -1.03916 1.789267 -0.530406 2 0 2 
z
" id="mfc884df692" style="stroke:#ff0000;stroke-width:0.75;"/>
    </defs>
    <g clip-path="url(#pe4ad49118b)">
     <use style="fill:none;stroke:#ff0000;stroke-width:0.75;" x="73.558665" xlink:href="#mfc884df692" y="21.596449"/>
     <use style="fill:none;stroke:#ff0000;stroke-width:0.75;" x="75.503673" xlink:href="#mfc884df692" y="54.079929"/>
     <use style="fill:none;stroke:#ff0000;stroke-width:0.75;" x="77.448681" xlink:href="#mfc884df692" y="72.637381"/>
     <use style="fill:none;stroke:#ff0000;stroke-width:0.75;" x="79.393689" xlink:href="#mfc884df692" y="68.457472"/>
     <use style="fill:none;stroke:#ff0000;stroke-width:0.75;" x="81.338697" xlink:href="#mfc884df692" y="79.241918"/>
     <use style="fill:none;stroke:#ff0000;stroke-width:0.75;" x="83.283705" xlink:href="#mfc884df692" y="89.485899"/>
     <use style="fill:none;stroke:#ff0000;stroke-width:0.75;" x="85.228713" xlink:href="#mfc884df692" y="81.993448"/>
     <use style="fill:none;stroke:#ff0000;stroke-width:0.75;" x="87.173722" xlink:href="#mfc884df692" y="79.881819"/>
     <use style="fill:none;stroke:#ff0000;stroke-width:0.75;" x="89.11873" xlink:href="#mfc884df692" y="98.255682"/>
     <use style="fill:none;stroke:#ff0000;stroke-width:0.75;" x="91.063738" xlink:href="#mfc884df692" y="86.069355"/>
     <use style="fill:none;stroke:#ff0000;stroke-width:0.75;" x="93.008746" xlink:href="#mfc884df692" y="81.918916"/>
     <use style="fill:none;stroke:#ff0000;stroke-width:0.75;" x="94.953754" xlink:href="#mfc884df692" y="83.127948"/>
     <use style="fill:none;stroke:#ff0000;stroke-width:0.75;" x="96.898762" xlink:href="#mfc884df692" y="110.038283"/>
     <use style="fill:none;stroke:#ff0000;stroke-width:0.75;" x="98.84377" xlink:href="#mfc884df692" y="99.246698"/>
     <use style="fill:none;stroke:#ff0000;stroke-width:0.75;" x="100.788778" xlink:href="#mfc884df692" y="114.371407"/>
     <use style="fill:none;stroke:#ff0000;stroke-width:0.75;" x="102.733787" xlink:href="#mfc884df692" y="114.111805"/>
     <use style="fill:none;stroke:#ff0000;stroke-width:0.75;" x="104.678795" xlink:href="#mfc884df692" y="114.201925"/>
     <use style="fill:none;stroke:#ff0000;stroke-width:0.75;" x="106.623803" xlink:href="#mfc884df692" y="115.071262"/>
     <use style="fill:none;stroke:#ff0000;stroke-width:0.75;" x="108.568811" xlink:href="#mfc884df692" y="111.410921"/>
     <use style="fill:none;stroke:#ff0000;stroke-width:0.75;" x="110.513819" xlink:href="#mfc884df692" y="111.486522"/>
    </g>
   </g>
   <g id="line2d_16">
    <defs>
     <path d="M 0 2 
C 0.530406 2 1.03916 1.789267 1.414214 1.414214 
C 1.789267 1.03916 2 0.530406 2 0 
C 2 -0.530406 1.789267 -1.03916 1.414214 -1.414214 
C 1.03916 -1.789267 0.530406 -2 0 -2 
C -0.530406 -2 -1.03916 -1.789267 -1.414214 -1.414214 
C -1.789267 -1.03916 -2 -0.530406 -2 0 
C -2 0.530406 -1.789267 1.03916 -1.414214 1.414214 
C -1.03916 1.789267 -0.530406 2 0 2 
z
" id="m7451da76eb" style="stroke:#000000;stroke-width:0.75;"/>
    </defs>
    <g clip-path="url(#pe4ad49118b)">
     <use style="fill:none;stroke:#000000;stroke-width:0.75;" x="112.458827" xlink:href="#m7451da76eb" y="113.293601"/>
     <use style="fill:none;stroke:#000000;stroke-width:0.75;" x="114.403835" xlink:href="#m7451da76eb" y="109.231534"/>
     <use style="fill:none;stroke:#000000;stroke-width:0.75;" x="116.348843" xlink:href="#m7451da76eb" y="120.993342"/>
     <use style="fill:none;stroke:#000000;stroke-width:0.75;" x="118.293851" xlink:href="#m7451da76eb" y="115.206947"/>
     <use style="fill:none;stroke:#000000;stroke-width:0.75;" x="120.23886" xlink:href="#m7451da76eb" y="126.050998"/>
     <use style="fill:none;stroke:#000000;stroke-width:0.75;" x="122.183868" xlink:href="#m7451da76eb" y="120.823936"/>
     <use style="fill:none;stroke:#000000;stroke-width:0.75;" x="124.128876" xlink:href="#m7451da76eb" y="127.862162"/>
     <use style="fill:none;stroke:#000000;stroke-width:0.75;" x="126.073884" xlink:href="#m7451da76eb" y="129.28398"/>
     <use style="fill:none;stroke:#000000;stroke-width:0.75;" x="128.018892" xlink:href="#m7451da76eb" y="134.027055"/>
     <use style="fill:none;stroke:#000000;stroke-width:0.75;" x="129.9639" xlink:href="#m7451da76eb" y="131.968688"/>
     <use style="fill:none;stroke:#000000;stroke-width:0.75;" x="131.908908" xlink:href="#m7451da76eb" y="127.54686"/>
     <use style="fill:none;stroke:#000000;stroke-width:0.75;" x="133.853916" xlink:href="#m7451da76eb" y="122.764626"/>
     <use style="fill:none;stroke:#000000;stroke-width:0.75;" x="135.798925" xlink:href="#m7451da76eb" y="126.408356"/>
     <use style="fill:none;stroke:#000000;stroke-width:0.75;" x="137.743933" xlink:href="#m7451da76eb" y="115.498384"/>
     <use style="fill:none;stroke:#000000;stroke-width:0.75;" x="139.688941" xlink:href="#m7451da76eb" y="131.449891"/>
     <use style="fill:none;stroke:#000000;stroke-width:0.75;" x="141.633949" xlink:href="#m7451da76eb" y="119.300083"/>
     <use style="fill:none;stroke:#000000;stroke-width:0.75;" x="143.578957" xlink:href="#m7451da76eb" y="128.239171"/>
     <use style="fill:none;stroke:#000000;stroke-width:0.75;" x="145.523965" xlink:href="#m7451da76eb" y="126.833328"/>
     <use style="fill:none;stroke:#000000;stroke-width:0.75;" x="147.468973" xlink:href="#m7451da76eb" y="128.809729"/>
     <use style="fill:none;stroke:#000000;stroke-width:0.75;" x="149.413981" xlink:href="#m7451da76eb" y="129.65161"/>
     <use style="fill:none;stroke:#000000;stroke-width:0.75;" x="151.358989" xlink:href="#m7451da76eb" y="134.568345"/>
     <use style="fill:none;stroke:#000000;stroke-width:0.75;" x="153.303998" xlink:href="#m7451da76eb" y="128.482837"/>
     <use style="fill:none;stroke:#000000;stroke-width:0.75;" x="155.249006" xlink:href="#m7451da76eb" y="123.143034"/>
     <use style="fill:none;stroke:#000000;stroke-width:0.75;" x="157.194014" xlink:href="#m7451da76eb" y="138.050554"/>
     <use style="fill:none;stroke:#000000;stroke-width:0.75;" x="159.139022" xlink:href="#m7451da76eb" y="121.998089"/>
     <use style="fill:none;stroke:#000000;stroke-width:0.75;" x="161.08403" xlink:href="#m7451da76eb" y="127.942736"/>
     <use style="fill:none;stroke:#000000;stroke-width:0.75;" x="163.029038" xlink:href="#m7451da76eb" y="127.746198"/>
     <use style="fill:none;stroke:#000000;stroke-width:0.75;" x="164.974046" xlink:href="#m7451da76eb" y="129.762893"/>
     <use style="fill:none;stroke:#000000;stroke-width:0.75;" x="166.919054" xlink:href="#m7451da76eb" y="135.034875"/>
     <use style="fill:none;stroke:#000000;stroke-width:0.75;" x="168.864063" xlink:href="#m7451da76eb" y="132.507444"/>
     <use style="fill:none;stroke:#000000;stroke-width:0.75;" x="170.809071" xlink:href="#m7451da76eb" y="128.278061"/>
     <use style="fill:none;stroke:#000000;stroke-width:0.75;" x="172.754079" xlink:href="#m7451da76eb" y="139.054869"/>
     <use style="fill:none;stroke:#000000;stroke-width:0.75;" x="174.699087" xlink:href="#m7451da76eb" y="132.129854"/>
     <use style="fill:none;stroke:#000000;stroke-width:0.75;" x="176.644095" xlink:href="#m7451da76eb" y="127.24991"/>
     <use style="fill:none;stroke:#000000;stroke-width:0.75;" x="178.589103" xlink:href="#m7451da76eb" y="136.262871"/>
     <use style="fill:none;stroke:#000000;stroke-width:0.75;" x="180.534111" xlink:href="#m7451da76eb" y="129.914203"/>
     <use style="fill:none;stroke:#000000;stroke-width:0.75;" x="182.479119" xlink:href="#m7451da76eb" y="118.167895"/>
     <use style="fill:none;stroke:#000000;stroke-width:0.75;" x="184.424127" xlink:href="#m7451da76eb" y="130.334817"/>
     <use style="fill:none;stroke:#000000;stroke-width:0.75;" x="186.369136" xlink:href="#m7451da76eb" y="117.55489"/>
     <use style="fill:none;stroke:#000000;stroke-width:0.75;" x="188.314144" xlink:href="#m7451da76eb" y="124.389646"/>
     <use style="fill:none;stroke:#000000;stroke-width:0.75;" x="190.259152" xlink:href="#m7451da76eb" y="136.136156"/>
     <use style="fill:none;stroke:#000000;stroke-width:0.75;" x="192.20416" xlink:href="#m7451da76eb" y="132.60392"/>
     <use style="fill:none;stroke:#000000;stroke-width:0.75;" x="194.149168" xlink:href="#m7451da76eb" y="129.254215"/>
     <use style="fill:none;stroke:#000000;stroke-width:0.75;" x="196.094176" xlink:href="#m7451da76eb" y="131.249876"/>
     <use style="fill:none;stroke:#000000;stroke-width:0.75;" x="198.039184" xlink:href="#m7451da76eb" y="134.682071"/>
     <use style="fill:none;stroke:#000000;stroke-width:0.75;" x="199.984192" xlink:href="#m7451da76eb" y="128.792355"/>
     <use style="fill:none;stroke:#000000;stroke-width:0.75;" x="201.9292" xlink:href="#m7451da76eb" y="131.514872"/>
     <use style="fill:none;stroke:#000000;stroke-width:0.75;" x="203.874209" xlink:href="#m7451da76eb" y="132.434929"/>
     <use style="fill:none;stroke:#000000;stroke-width:0.75;" x="205.819217" xlink:href="#m7451da76eb" y="130.220313"/>
     <use style="fill:none;stroke:#000000;stroke-width:0.75;" x="207.764225" xlink:href="#m7451da76eb" y="131.630801"/>
     <use style="fill:none;stroke:#000000;stroke-width:0.75;" x="209.709233" xlink:href="#m7451da76eb" y="115.255324"/>
     <use style="fill:none;stroke:#000000;stroke-width:0.75;" x="211.654241" xlink:href="#m7451da76eb" y="138.457603"/>
     <use style="fill:none;stroke:#000000;stroke-width:0.75;" x="213.599249" xlink:href="#m7451da76eb" y="131.373644"/>
     <use style="fill:none;stroke:#000000;stroke-width:0.75;" x="215.544257" xlink:href="#m7451da76eb" y="133.773105"/>
     <use style="fill:none;stroke:#000000;stroke-width:0.75;" x="217.489265" xlink:href="#m7451da76eb" y="131.115952"/>
     <use style="fill:none;stroke:#000000;stroke-width:0.75;" x="219.434274" xlink:href="#m7451da76eb" y="130.12151"/>
     <use style="fill:none;stroke:#000000;stroke-width:0.75;" x="221.379282" xlink:href="#m7451da76eb" y="127.495128"/>
     <use style="fill:none;stroke:#000000;stroke-width:0.75;" x="223.32429" xlink:href="#m7451da76eb" y="131.846961"/>
     <use style="fill:none;stroke:#000000;stroke-width:0.75;" x="225.269298" xlink:href="#m7451da76eb" y="118.173376"/>
     <use style="fill:none;stroke:#000000;stroke-width:0.75;" x="227.214306" xlink:href="#m7451da76eb" y="128.962912"/>
     <use style="fill:none;stroke:#000000;stroke-width:0.75;" x="229.159314" xlink:href="#m7451da76eb" y="120.245076"/>
     <use style="fill:none;stroke:#000000;stroke-width:0.75;" x="231.104322" xlink:href="#m7451da76eb" y="122.37957"/>
     <use style="fill:none;stroke:#000000;stroke-width:0.75;" x="233.04933" xlink:href="#m7451da76eb" y="130.859203"/>
     <use style="fill:none;stroke:#000000;stroke-width:0.75;" x="234.994338" xlink:href="#m7451da76eb" y="131.736768"/>
     <use style="fill:none;stroke:#000000;stroke-width:0.75;" x="236.939347" xlink:href="#m7451da76eb" y="133.896155"/>
     <use style="fill:none;stroke:#000000;stroke-width:0.75;" x="238.884355" xlink:href="#m7451da76eb" y="134.072816"/>
     <use style="fill:none;stroke:#000000;stroke-width:0.75;" x="240.829363" xlink:href="#m7451da76eb" y="131.851884"/>
     <use style="fill:none;stroke:#000000;stroke-width:0.75;" x="242.774371" xlink:href="#m7451da76eb" y="128.622294"/>
     <use style="fill:none;stroke:#000000;stroke-width:0.75;" x="244.719379" xlink:href="#m7451da76eb" y="134.129439"/>
     <use style="fill:none;stroke:#000000;stroke-width:0.75;" x="246.664387" xlink:href="#m7451da76eb" y="132.943278"/>
     <use style="fill:none;stroke:#000000;stroke-width:0.75;" x="248.609395" xlink:href="#m7451da76eb" y="129.462747"/>
     <use style="fill:none;stroke:#000000;stroke-width:0.75;" x="250.554403" xlink:href="#m7451da76eb" y="124.108461"/>
     <use style="fill:none;stroke:#000000;stroke-width:0.75;" x="252.499412" xlink:href="#m7451da76eb" y="123.514871"/>
     <use style="fill:none;stroke:#000000;stroke-width:0.75;" x="254.44442" xlink:href="#m7451da76eb" y="133.448095"/>
     <use style="fill:none;stroke:#000000;stroke-width:0.75;" x="256.389428" xlink:href="#m7451da76eb" y="132.373205"/>
     <use style="fill:none;stroke:#000000;stroke-width:0.75;" x="258.334436" xlink:href="#m7451da76eb" y="130.720309"/>
     <use style="fill:none;stroke:#000000;stroke-width:0.75;" x="260.279444" xlink:href="#m7451da76eb" y="137.594831"/>
     <use style="fill:none;stroke:#000000;stroke-width:0.75;" x="262.224452" xlink:href="#m7451da76eb" y="133.685863"/>
     <use style="fill:none;stroke:#000000;stroke-width:0.75;" x="264.16946" xlink:href="#m7451da76eb" y="132.685254"/>
    </g>
   </g>
   <g id="line2d_17">
    <path clip-path="url(#pe4ad49118b)" d="M 73.558665 34.735569 
L 75.503673 51.524911 
L 77.448681 61.394392 
L 79.393689 68.412437 
L 81.338697 73.95335 
L 83.283705 78.611734 
L 85.228713 82.687555 
L 87.173722 86.349124 
L 89.11873 89.698647 
L 91.063738 92.802138 
L 93.008746 95.704421 
L 94.953754 98.437227 
L 96.898762 101.023836 
L 98.84377 103.481862 
L 100.788778 105.825001 
L 102.733787 108.064159 
L 104.678795 110.208214 
L 106.623803 112.264529 
L 108.568811 114.239318 
L 110.513819 116.137908 
L 112.458827 117.964925 
L 114.403835 119.724438 
L 116.348843 121.420066 
L 118.293851 123.055055 
L 120.23886 124.632347 
L 122.183868 126.154623 
L 124.128876 127.624346 
L 126.073884 129.043791 
L 128.018892 130.415068 
L 129.9639 131.740147 
L 131.908908 133.020873 
L 133.853916 134.258978 
L 135.798925 135.456094 
L 137.743933 136.613766 
L 139.688941 137.733456 
L 141.633949 138.816552 
L 143.578957 139.864375 
L 145.523965 140.878185 
L 147.468973 141.859182 
L 149.413981 142.808514 
L 151.358989 143.72728 
L 153.303998 144.616532 
L 155.249006 145.477278 
L 157.194014 146.310486 
L 159.139022 147.117085 
L 161.08403 147.897969 
L 163.029038 148.653997 
L 164.974046 149.385994 
L 166.919054 150.094756 
L 168.864063 150.781049 
L 170.809071 151.445612 
L 172.754079 152.089156 
L 174.699087 152.712367 
L 176.644095 153.315906 
L 178.589103 153.900412 
L 180.534111 154.466502 
L 182.479119 155.01477 
L 184.424127 155.54579 
L 186.369136 156.060117 
L 188.314144 156.558288 
L 190.259152 157.040819 
L 192.20416 157.508211 
L 194.149168 157.960948 
L 196.094176 158.399497 
L 198.039184 158.824309 
L 199.984192 159.235823 
L 201.9292 159.634459 
L 203.874209 160.020627 
L 205.819217 160.394722 
L 207.764225 160.757125 
L 209.709233 161.108208 
L 211.654241 161.448327 
L 213.599249 161.777829 
L 215.544257 162.097048 
L 217.489265 162.406309 
L 219.434274 162.705925 
L 221.379282 162.9962 
L 223.32429 163.277428 
L 225.269298 163.549892 
L 227.214306 163.813869 
L 229.159314 164.069625 
L 231.104322 164.317416 
L 233.04933 164.557495 
L 234.994338 164.790101 
L 236.939347 165.015469 
L 238.884355 165.233826 
L 240.829363 165.445391 
L 242.774371 165.650377 
L 244.719379 165.848989 
L 246.664387 166.041427 
L 248.609395 166.227883 
L 250.554403 166.408544 
L 252.499412 166.583592 
L 254.44442 166.753201 
L 256.389428 166.917542 
L 258.334436 167.076778 
L 260.279444 167.231069 
L 262.224452 167.380568 
L 264.16946 167.525426 
" style="fill:none;stroke:#ff0000;stroke-dasharray:5.55,2.4;stroke-dashoffset:0;stroke-width:1.5;"/>
   </g>
   <g id="patch_3">
    <path d="M 64.028125 174.821875 
L 64.028125 14.3 
" style="fill:none;stroke:#000000;stroke-linecap:square;stroke-linejoin:miter;stroke-width:0.8;"/>
   </g>
   <g id="patch_4">
    <path d="M 273.7 174.821875 
L 273.7 14.3 
" style="fill:none;stroke:#000000;stroke-linecap:square;stroke-linejoin:miter;stroke-width:0.8;"/>
   </g>
   <g id="patch_5">
    <path d="M 64.028125 174.821875 
L 273.7 174.821875 
" style="fill:none;stroke:#000000;stroke-linecap:square;stroke-linejoin:miter;stroke-width:0.8;"/>
   </g>
   <g id="patch_6">
    <path d="M 64.028125 14.3 
L 273.7 14.3 
" style="fill:none;stroke:#000000;stroke-linecap:square;stroke-linejoin:miter;stroke-width:0.8;"/>
   </g>
  </g>
 </g>
 <defs>
  <clipPath id="pe4ad49118b">
   <rect height="160.521875" width="209.671875" x="64.028125" y="14.3"/>
  </clipPath>
 </defs>
</svg>
