<?xml version="1.0" encoding="utf-8" standalone="no"?>
<!DOCTYPE svg PUBLIC "-//W3C//DTD SVG 1.1//EN"
  "http://www.w3.org/Graphics/SVG/1.1/DTD/svg11.dtd">
<!-- Created with matplotlib (http://matplotlib.org/) -->
<svg height="216pt" version="1.1" viewBox="0 0 288 216" width="288pt" xmlns="http://www.w3.org/2000/svg" xmlns:xlink="http://www.w3.org/1999/xlink">
 <defs>
  <style type="text/css">
*{stroke-linecap:butt;stroke-linejoin:round;}
  </style>
 </defs>
 <g id="figure_1">
  <g id="patch_1">
   <path d="M 0 216 
L 288 216 
L 288 0 
L 0 0 
z
" style="fill:#ffffff;"/>
  </g>
  <g id="axes_1">
   <g id="patch_2">
    <path d="M 64.028125 174.821875 
L 273.7 174.821875 
L 273.7 14.3 
L 64.028125 14.3 
z
" style="fill:#ffffff;"/>
   </g>
   <g id="matplotlib.axis_1">
    <g id="xtick_1">
     <g id="line2d_1">
      <defs>
       <path d="M 0 0 
L 0 3.5 
" id="m02f1e7fb87" style="stroke:#000000;stroke-width:0.8;"/>
      </defs>
      <g>
       <use style="stroke:#000000;stroke-width:0.8;" x="71.613657" xlink:href="#m02f1e7fb87" y="174.821875"/>
      </g>
     </g>
     <g id="text_1">
      <!-- 0 -->
      <defs>
       <path d="M 31.78125 66.40625 
Q 24.171875 66.40625 20.328125 58.90625 
Q 16.5 51.421875 16.5 36.375 
Q 16.5 21.390625 20.328125 13.890625 
Q 24.171875 6.390625 31.78125 6.390625 
Q 39.453125 6.390625 43.28125 13.890625 
Q 47.125 21.390625 47.125 36.375 
Q 47.125 51.421875 43.28125 58.90625 
Q 39.453125 66.40625 31.78125 66.40625 
M 31.78125 74.21875 
Q 44.046875 74.21875 50.515625 64.515625 
Q 56.984375 54.828125 56.984375 36.375 
Q 56.984375 17.96875 50.515625 8.265625 
Q 44.046875 -1.421875 31.78125 -1.421875 
Q 19.53125 -1.421875 13.0625 8.265625 
Q 6.59375 17.96875 6.59375 36.375 
Q 6.59375 54.828125 13.0625 64.515625 
Q 19.53125 74.21875 31.78125 74.21875 
" id="DejaVuSans-30"/>
      </defs>
      <g transform="translate(68.432407 189.420312)scale(0.1 -0.1)">
       <use xlink:href="#DejaVuSans-30"/>
      </g>
     </g>
    </g>
    <g id="xtick_2">
     <g id="line2d_2">
      <g>
       <use style="stroke:#000000;stroke-width:0.8;" x="136.447261" xlink:href="#m02f1e7fb87" y="174.821875"/>
      </g>
     </g>
     <g id="text_2">
      <!-- 100 -->
      <defs>
       <path d="M 12.40625 8.296875 
L 28.515625 8.296875 
L 28.515625 63.921875 
L 10.984375 60.40625 
L 10.984375 69.390625 
L 28.421875 72.90625 
L 38.28125 72.90625 
L 38.28125 8.296875 
L 54.390625 8.296875 
L 54.390625 0 
L 12.40625 0 
z
" id="DejaVuSans-31"/>
      </defs>
      <g transform="translate(126.903511 189.420312)scale(0.1 -0.1)">
       <use xlink:href="#DejaVuSans-31"/>
       <use x="63.623047" xlink:href="#DejaVuSans-30"/>
       <use x="127.246094" xlink:href="#DejaVuSans-30"/>
      </g>
     </g>
    </g>
    <g id="xtick_3">
     <g id="line2d_3">
      <g>
       <use style="stroke:#000000;stroke-width:0.8;" x="201.280864" xlink:href="#m02f1e7fb87" y="174.821875"/>
      </g>
     </g>
     <g id="text_3">
      <!-- 200 -->
      <defs>
       <path d="M 19.1875 8.296875 
L 53.609375 8.296875 
L 53.609375 0 
L 7.328125 0 
L 7.328125 8.296875 
Q 12.9375 14.109375 22.625 23.890625 
Q 32.328125 33.6875 34.8125 36.53125 
Q 39.546875 41.84375 41.421875 45.53125 
Q 43.3125 49.21875 43.3125 52.78125 
Q 43.3125 58.59375 39.234375 62.25 
Q 35.15625 65.921875 28.609375 65.921875 
Q 23.96875 65.921875 18.8125 64.3125 
Q 13.671875 62.703125 7.8125 59.421875 
L 7.8125 69.390625 
Q 13.765625 71.78125 18.9375 73 
Q 24.125 74.21875 28.421875 74.21875 
Q 39.75 74.21875 46.484375 68.546875 
Q 53.21875 62.890625 53.21875 53.421875 
Q 53.21875 48.921875 51.53125 44.890625 
Q 49.859375 40.875 45.40625 35.40625 
Q 44.1875 33.984375 37.640625 27.21875 
Q 31.109375 20.453125 19.1875 8.296875 
" id="DejaVuSans-32"/>
      </defs>
      <g transform="translate(191.737114 189.420312)scale(0.1 -0.1)">
       <use xlink:href="#DejaVuSans-32"/>
       <use x="63.623047" xlink:href="#DejaVuSans-30"/>
       <use x="127.246094" xlink:href="#DejaVuSans-30"/>
      </g>
     </g>
    </g>
    <g id="xtick_4">
     <g id="line2d_4">
      <g>
       <use style="stroke:#000000;stroke-width:0.8;" x="266.114468" xlink:href="#m02f1e7fb87" y="174.821875"/>
      </g>
     </g>
     <g id="text_4">
      <!-- 300 -->
      <defs>
       <path d="M 40.578125 39.3125 
Q 47.65625 37.796875 51.625 33 
Q 55.609375 28.21875 55.609375 21.1875 
Q 55.609375 10.40625 48.1875 4.484375 
Q 40.765625 -1.421875 27.09375 -1.421875 
Q 22.515625 -1.421875 17.65625 -0.515625 
Q 12.796875 0.390625 7.625 2.203125 
L 7.625 11.71875 
Q 11.71875 9.328125 16.59375 8.109375 
Q 21.484375 6.890625 26.8125 6.890625 
Q 36.078125 6.890625 40.9375 10.546875 
Q 45.796875 14.203125 45.796875 21.1875 
Q 45.796875 27.640625 41.28125 31.265625 
Q 36.765625 34.90625 28.71875 34.90625 
L 20.21875 34.90625 
L 20.21875 43.015625 
L 29.109375 43.015625 
Q 36.375 43.015625 40.234375 45.921875 
Q 44.09375 48.828125 44.09375 54.296875 
Q 44.09375 59.90625 40.109375 62.90625 
Q 36.140625 65.921875 28.71875 65.921875 
Q 24.65625 65.921875 20.015625 65.03125 
Q 15.375 64.15625 9.8125 62.3125 
L 9.8125 71.09375 
Q 15.4375 72.65625 20.34375 73.4375 
Q 25.25 74.21875 29.59375 74.21875 
Q 40.828125 74.21875 47.359375 69.109375 
Q 53.90625 64.015625 53.90625 55.328125 
Q 53.90625 49.265625 50.4375 45.09375 
Q 46.96875 40.921875 40.578125 39.3125 
" id="DejaVuSans-33"/>
      </defs>
      <g transform="translate(256.570718 189.420312)scale(0.1 -0.1)">
       <use xlink:href="#DejaVuSans-33"/>
       <use x="63.623047" xlink:href="#DejaVuSans-30"/>
       <use x="127.246094" xlink:href="#DejaVuSans-30"/>
      </g>
     </g>
    </g>
    <g id="text_5">
     <!-- distance $l$ (bp) -->
     <defs>
      <path d="M 45.40625 46.390625 
L 45.40625 75.984375 
L 54.390625 75.984375 
L 54.390625 0 
L 45.40625 0 
L 45.40625 8.203125 
Q 42.578125 3.328125 38.25 0.953125 
Q 33.9375 -1.421875 27.875 -1.421875 
Q 17.96875 -1.421875 11.734375 6.484375 
Q 5.515625 14.40625 5.515625 27.296875 
Q 5.515625 40.1875 11.734375 48.09375 
Q 17.96875 56 27.875 56 
Q 33.9375 56 38.25 53.625 
Q 42.578125 51.265625 45.40625 46.390625 
M 14.796875 27.296875 
Q 14.796875 17.390625 18.875 11.75 
Q 22.953125 6.109375 30.078125 6.109375 
Q 37.203125 6.109375 41.296875 11.75 
Q 45.40625 17.390625 45.40625 27.296875 
Q 45.40625 37.203125 41.296875 42.84375 
Q 37.203125 48.484375 30.078125 48.484375 
Q 22.953125 48.484375 18.875 42.84375 
Q 14.796875 37.203125 14.796875 27.296875 
" id="DejaVuSans-64"/>
      <path d="M 9.421875 54.6875 
L 18.40625 54.6875 
L 18.40625 0 
L 9.421875 0 
z
M 9.421875 75.984375 
L 18.40625 75.984375 
L 18.40625 64.59375 
L 9.421875 64.59375 
z
" id="DejaVuSans-69"/>
      <path d="M 44.28125 53.078125 
L 44.28125 44.578125 
Q 40.484375 46.53125 36.375 47.5 
Q 32.28125 48.484375 27.875 48.484375 
Q 21.1875 48.484375 17.84375 46.4375 
Q 14.5 44.390625 14.5 40.28125 
Q 14.5 37.15625 16.890625 35.375 
Q 19.28125 33.59375 26.515625 31.984375 
L 29.59375 31.296875 
Q 39.15625 29.25 43.1875 25.515625 
Q 47.21875 21.78125 47.21875 15.09375 
Q 47.21875 7.46875 41.1875 3.015625 
Q 35.15625 -1.421875 24.609375 -1.421875 
Q 20.21875 -1.421875 15.453125 -0.5625 
Q 10.6875 0.296875 5.421875 2 
L 5.421875 11.28125 
Q 10.40625 8.6875 15.234375 7.390625 
Q 20.0625 6.109375 24.8125 6.109375 
Q 31.15625 6.109375 34.5625 8.28125 
Q 37.984375 10.453125 37.984375 14.40625 
Q 37.984375 18.0625 35.515625 20.015625 
Q 33.0625 21.96875 24.703125 23.78125 
L 21.578125 24.515625 
Q 13.234375 26.265625 9.515625 29.90625 
Q 5.8125 33.546875 5.8125 39.890625 
Q 5.8125 47.609375 11.28125 51.796875 
Q 16.75 56 26.8125 56 
Q 31.78125 56 36.171875 55.265625 
Q 40.578125 54.546875 44.28125 53.078125 
" id="DejaVuSans-73"/>
      <path d="M 18.3125 70.21875 
L 18.3125 54.6875 
L 36.8125 54.6875 
L 36.8125 47.703125 
L 18.3125 47.703125 
L 18.3125 18.015625 
Q 18.3125 11.328125 20.140625 9.421875 
Q 21.96875 7.515625 27.59375 7.515625 
L 36.8125 7.515625 
L 36.8125 0 
L 27.59375 0 
Q 17.1875 0 13.234375 3.875 
Q 9.28125 7.765625 9.28125 18.015625 
L 9.28125 47.703125 
L 2.6875 47.703125 
L 2.6875 54.6875 
L 9.28125 54.6875 
L 9.28125 70.21875 
z
" id="DejaVuSans-74"/>
      <path d="M 34.28125 27.484375 
Q 23.390625 27.484375 19.1875 25 
Q 14.984375 22.515625 14.984375 16.5 
Q 14.984375 11.71875 18.140625 8.90625 
Q 21.296875 6.109375 26.703125 6.109375 
Q 34.1875 6.109375 38.703125 11.40625 
Q 43.21875 16.703125 43.21875 25.484375 
L 43.21875 27.484375 
z
M 52.203125 31.203125 
L 52.203125 0 
L 43.21875 0 
L 43.21875 8.296875 
Q 40.140625 3.328125 35.546875 0.953125 
Q 30.953125 -1.421875 24.3125 -1.421875 
Q 15.921875 -1.421875 10.953125 3.296875 
Q 6 8.015625 6 15.921875 
Q 6 25.140625 12.171875 29.828125 
Q 18.359375 34.515625 30.609375 34.515625 
L 43.21875 34.515625 
L 43.21875 35.40625 
Q 43.21875 41.609375 39.140625 45 
Q 35.0625 48.390625 27.6875 48.390625 
Q 23 48.390625 18.546875 47.265625 
Q 14.109375 46.140625 10.015625 43.890625 
L 10.015625 52.203125 
Q 14.9375 54.109375 19.578125 55.046875 
Q 24.21875 56 28.609375 56 
Q 40.484375 56 46.34375 49.84375 
Q 52.203125 43.703125 52.203125 31.203125 
" id="DejaVuSans-61"/>
      <path d="M 54.890625 33.015625 
L 54.890625 0 
L 45.90625 0 
L 45.90625 32.71875 
Q 45.90625 40.484375 42.875 44.328125 
Q 39.84375 48.1875 33.796875 48.1875 
Q 26.515625 48.1875 22.3125 43.546875 
Q 18.109375 38.921875 18.109375 30.90625 
L 18.109375 0 
L 9.078125 0 
L 9.078125 54.6875 
L 18.109375 54.6875 
L 18.109375 46.1875 
Q 21.34375 51.125 25.703125 53.5625 
Q 30.078125 56 35.796875 56 
Q 45.21875 56 50.046875 50.171875 
Q 54.890625 44.34375 54.890625 33.015625 
" id="DejaVuSans-6e"/>
      <path d="M 48.78125 52.59375 
L 48.78125 44.1875 
Q 44.96875 46.296875 41.140625 47.34375 
Q 37.3125 48.390625 33.40625 48.390625 
Q 24.65625 48.390625 19.8125 42.84375 
Q 14.984375 37.3125 14.984375 27.296875 
Q 14.984375 17.28125 19.8125 11.734375 
Q 24.65625 6.203125 33.40625 6.203125 
Q 37.3125 6.203125 41.140625 7.25 
Q 44.96875 8.296875 48.78125 10.40625 
L 48.78125 2.09375 
Q 45.015625 0.34375 40.984375 -0.53125 
Q 36.96875 -1.421875 32.421875 -1.421875 
Q 20.0625 -1.421875 12.78125 6.34375 
Q 5.515625 14.109375 5.515625 27.296875 
Q 5.515625 40.671875 12.859375 48.328125 
Q 20.21875 56 33.015625 56 
Q 37.15625 56 41.109375 55.140625 
Q 45.0625 54.296875 48.78125 52.59375 
" id="DejaVuSans-63"/>
      <path d="M 56.203125 29.59375 
L 56.203125 25.203125 
L 14.890625 25.203125 
Q 15.484375 15.921875 20.484375 11.0625 
Q 25.484375 6.203125 34.421875 6.203125 
Q 39.59375 6.203125 44.453125 7.46875 
Q 49.3125 8.734375 54.109375 11.28125 
L 54.109375 2.78125 
Q 49.265625 0.734375 44.1875 -0.34375 
Q 39.109375 -1.421875 33.890625 -1.421875 
Q 20.796875 -1.421875 13.15625 6.1875 
Q 5.515625 13.8125 5.515625 26.8125 
Q 5.515625 40.234375 12.765625 48.109375 
Q 20.015625 56 32.328125 56 
Q 43.359375 56 49.78125 48.890625 
Q 56.203125 41.796875 56.203125 29.59375 
M 47.21875 32.234375 
Q 47.125 39.59375 43.09375 43.984375 
Q 39.0625 48.390625 32.421875 48.390625 
Q 24.90625 48.390625 20.390625 44.140625 
Q 15.875 39.890625 15.1875 32.171875 
z
" id="DejaVuSans-65"/>
      <path id="DejaVuSans-20"/>
      <path d="M 18.3125 75.984375 
L 27.296875 75.984375 
L 12.5 0 
L 3.515625 0 
z
" id="DejaVuSans-Oblique-6c"/>
      <path d="M 31 75.875 
Q 24.46875 64.65625 21.28125 53.65625 
Q 18.109375 42.671875 18.109375 31.390625 
Q 18.109375 20.125 21.3125 9.0625 
Q 24.515625 -2 31 -13.1875 
L 23.1875 -13.1875 
Q 15.875 -1.703125 12.234375 9.375 
Q 8.59375 20.453125 8.59375 31.390625 
Q 8.59375 42.28125 12.203125 53.3125 
Q 15.828125 64.359375 23.1875 75.875 
z
" id="DejaVuSans-28"/>
      <path d="M 48.6875 27.296875 
Q 48.6875 37.203125 44.609375 42.84375 
Q 40.53125 48.484375 33.40625 48.484375 
Q 26.265625 48.484375 22.1875 42.84375 
Q 18.109375 37.203125 18.109375 27.296875 
Q 18.109375 17.390625 22.1875 11.75 
Q 26.265625 6.109375 33.40625 6.109375 
Q 40.53125 6.109375 44.609375 11.75 
Q 48.6875 17.390625 48.6875 27.296875 
M 18.109375 46.390625 
Q 20.953125 51.265625 25.265625 53.625 
Q 29.59375 56 35.59375 56 
Q 45.5625 56 51.78125 48.09375 
Q 58.015625 40.1875 58.015625 27.296875 
Q 58.015625 14.40625 51.78125 6.484375 
Q 45.5625 -1.421875 35.59375 -1.421875 
Q 29.59375 -1.421875 25.265625 0.953125 
Q 20.953125 3.328125 18.109375 8.203125 
L 18.109375 0 
L 9.078125 0 
L 9.078125 75.984375 
L 18.109375 75.984375 
z
" id="DejaVuSans-62"/>
      <path d="M 18.109375 8.203125 
L 18.109375 -20.796875 
L 9.078125 -20.796875 
L 9.078125 54.6875 
L 18.109375 54.6875 
L 18.109375 46.390625 
Q 20.953125 51.265625 25.265625 53.625 
Q 29.59375 56 35.59375 56 
Q 45.5625 56 51.78125 48.09375 
Q 58.015625 40.1875 58.015625 27.296875 
Q 58.015625 14.40625 51.78125 6.484375 
Q 45.5625 -1.421875 35.59375 -1.421875 
Q 29.59375 -1.421875 25.265625 0.953125 
Q 20.953125 3.328125 18.109375 8.203125 
M 48.6875 27.296875 
Q 48.6875 37.203125 44.609375 42.84375 
Q 40.53125 48.484375 33.40625 48.484375 
Q 26.265625 48.484375 22.1875 42.84375 
Q 18.109375 37.203125 18.109375 27.296875 
Q 18.109375 17.390625 22.1875 11.75 
Q 26.265625 6.109375 33.40625 6.109375 
Q 40.53125 6.109375 44.609375 11.75 
Q 48.6875 17.390625 48.6875 27.296875 
" id="DejaVuSans-70"/>
      <path d="M 8.015625 75.875 
L 15.828125 75.875 
Q 23.140625 64.359375 26.78125 53.3125 
Q 30.421875 42.28125 30.421875 31.390625 
Q 30.421875 20.453125 26.78125 9.375 
Q 23.140625 -1.703125 15.828125 -13.1875 
L 8.015625 -13.1875 
Q 14.5 -2 17.703125 9.0625 
Q 20.90625 20.125 20.90625 31.390625 
Q 20.90625 42.671875 17.703125 53.65625 
Q 14.5 64.65625 8.015625 75.875 
" id="DejaVuSans-29"/>
     </defs>
     <g transform="translate(132.814063 203.1)scale(0.1 -0.1)">
      <use transform="translate(0 0.015625)" xlink:href="#DejaVuSans-64"/>
      <use transform="translate(63.476562 0.015625)" xlink:href="#DejaVuSans-69"/>
      <use transform="translate(91.259766 0.015625)" xlink:href="#DejaVuSans-73"/>
      <use transform="translate(143.359375 0.015625)" xlink:href="#DejaVuSans-74"/>
      <use transform="translate(182.568359 0.015625)" xlink:href="#DejaVuSans-61"/>
      <use transform="translate(243.847656 0.015625)" xlink:href="#DejaVuSans-6e"/>
      <use transform="translate(307.226562 0.015625)" xlink:href="#DejaVuSans-63"/>
      <use transform="translate(362.207031 0.015625)" xlink:href="#DejaVuSans-65"/>
      <use transform="translate(423.730469 0.015625)" xlink:href="#DejaVuSans-20"/>
      <use transform="translate(455.517578 0.015625)" xlink:href="#DejaVuSans-Oblique-6c"/>
      <use transform="translate(483.300781 0.015625)" xlink:href="#DejaVuSans-20"/>
      <use transform="translate(515.087891 0.015625)" xlink:href="#DejaVuSans-28"/>
      <use transform="translate(554.101562 0.015625)" xlink:href="#DejaVuSans-62"/>
      <use transform="translate(617.578125 0.015625)" xlink:href="#DejaVuSans-70"/>
      <use transform="translate(681.054688 0.015625)" xlink:href="#DejaVuSans-29"/>
     </g>
    </g>
   </g>
   <g id="matplotlib.axis_2">
    <g id="ytick_1">
     <g id="line2d_5">
      <defs>
       <path d="M 0 0 
L -3.5 0 
" id="m9f0847734a" style="stroke:#000000;stroke-width:0.8;"/>
      </defs>
      <g>
       <use style="stroke:#000000;stroke-width:0.8;" x="64.028125" xlink:href="#m9f0847734a" y="158.523978"/>
      </g>
     </g>
     <g id="text_6">
      <!-- 0.015 -->
      <defs>
       <path d="M 10.6875 12.40625 
L 21 12.40625 
L 21 0 
L 10.6875 0 
z
" id="DejaVuSans-2e"/>
       <path d="M 10.796875 72.90625 
L 49.515625 72.90625 
L 49.515625 64.59375 
L 19.828125 64.59375 
L 19.828125 46.734375 
Q 21.96875 47.46875 24.109375 47.828125 
Q 26.265625 48.1875 28.421875 48.1875 
Q 40.625 48.1875 47.75 41.5 
Q 54.890625 34.8125 54.890625 23.390625 
Q 54.890625 11.625 47.5625 5.09375 
Q 40.234375 -1.421875 26.90625 -1.421875 
Q 22.3125 -1.421875 17.546875 -0.640625 
Q 12.796875 0.140625 7.71875 1.703125 
L 7.71875 11.625 
Q 12.109375 9.234375 16.796875 8.0625 
Q 21.484375 6.890625 26.703125 6.890625 
Q 35.15625 6.890625 40.078125 11.328125 
Q 45.015625 15.765625 45.015625 23.390625 
Q 45.015625 31 40.078125 35.4375 
Q 35.15625 39.890625 26.703125 39.890625 
Q 22.75 39.890625 18.8125 39.015625 
Q 14.890625 38.140625 10.796875 36.28125 
z
" id="DejaVuSans-35"/>
      </defs>
      <g transform="translate(28.4 162.323197)scale(0.1 -0.1)">
       <use xlink:href="#DejaVuSans-30"/>
       <use x="63.623047" xlink:href="#DejaVuSans-2e"/>
       <use x="95.410156" xlink:href="#DejaVuSans-30"/>
       <use x="159.033203" xlink:href="#DejaVuSans-31"/>
       <use x="222.65625" xlink:href="#DejaVuSans-35"/>
      </g>
     </g>
    </g>
    <g id="ytick_2">
     <g id="line2d_6">
      <g>
       <use style="stroke:#000000;stroke-width:0.8;" x="64.028125" xlink:href="#m9f0847734a" y="131.381878"/>
      </g>
     </g>
     <g id="text_7">
      <!-- 0.020 -->
      <g transform="translate(28.4 135.181097)scale(0.1 -0.1)">
       <use xlink:href="#DejaVuSans-30"/>
       <use x="63.623047" xlink:href="#DejaVuSans-2e"/>
       <use x="95.410156" xlink:href="#DejaVuSans-30"/>
       <use x="159.033203" xlink:href="#DejaVuSans-32"/>
       <use x="222.65625" xlink:href="#DejaVuSans-30"/>
      </g>
     </g>
    </g>
    <g id="ytick_3">
     <g id="line2d_7">
      <g>
       <use style="stroke:#000000;stroke-width:0.8;" x="64.028125" xlink:href="#m9f0847734a" y="104.239777"/>
      </g>
     </g>
     <g id="text_8">
      <!-- 0.025 -->
      <g transform="translate(28.4 108.038996)scale(0.1 -0.1)">
       <use xlink:href="#DejaVuSans-30"/>
       <use x="63.623047" xlink:href="#DejaVuSans-2e"/>
       <use x="95.410156" xlink:href="#DejaVuSans-30"/>
       <use x="159.033203" xlink:href="#DejaVuSans-32"/>
       <use x="222.65625" xlink:href="#DejaVuSans-35"/>
      </g>
     </g>
    </g>
    <g id="ytick_4">
     <g id="line2d_8">
      <g>
       <use style="stroke:#000000;stroke-width:0.8;" x="64.028125" xlink:href="#m9f0847734a" y="77.097677"/>
      </g>
     </g>
     <g id="text_9">
      <!-- 0.030 -->
      <g transform="translate(28.4 80.896896)scale(0.1 -0.1)">
       <use xlink:href="#DejaVuSans-30"/>
       <use x="63.623047" xlink:href="#DejaVuSans-2e"/>
       <use x="95.410156" xlink:href="#DejaVuSans-30"/>
       <use x="159.033203" xlink:href="#DejaVuSans-33"/>
       <use x="222.65625" xlink:href="#DejaVuSans-30"/>
      </g>
     </g>
    </g>
    <g id="ytick_5">
     <g id="line2d_9">
      <g>
       <use style="stroke:#000000;stroke-width:0.8;" x="64.028125" xlink:href="#m9f0847734a" y="49.955577"/>
      </g>
     </g>
     <g id="text_10">
      <!-- 0.035 -->
      <g transform="translate(28.4 53.754796)scale(0.1 -0.1)">
       <use xlink:href="#DejaVuSans-30"/>
       <use x="63.623047" xlink:href="#DejaVuSans-2e"/>
       <use x="95.410156" xlink:href="#DejaVuSans-30"/>
       <use x="159.033203" xlink:href="#DejaVuSans-33"/>
       <use x="222.65625" xlink:href="#DejaVuSans-35"/>
      </g>
     </g>
    </g>
    <g id="ytick_6">
     <g id="line2d_10">
      <g>
       <use style="stroke:#000000;stroke-width:0.8;" x="64.028125" xlink:href="#m9f0847734a" y="22.813476"/>
      </g>
     </g>
     <g id="text_11">
      <!-- 0.040 -->
      <defs>
       <path d="M 37.796875 64.3125 
L 12.890625 25.390625 
L 37.796875 25.390625 
z
M 35.203125 72.90625 
L 47.609375 72.90625 
L 47.609375 25.390625 
L 58.015625 25.390625 
L 58.015625 17.1875 
L 47.609375 17.1875 
L 47.609375 0 
L 37.796875 0 
L 37.796875 17.1875 
L 4.890625 17.1875 
L 4.890625 26.703125 
z
" id="DejaVuSans-34"/>
      </defs>
      <g transform="translate(28.4 26.612695)scale(0.1 -0.1)">
       <use xlink:href="#DejaVuSans-30"/>
       <use x="63.623047" xlink:href="#DejaVuSans-2e"/>
       <use x="95.410156" xlink:href="#DejaVuSans-30"/>
       <use x="159.033203" xlink:href="#DejaVuSans-34"/>
       <use x="222.65625" xlink:href="#DejaVuSans-30"/>
      </g>
     </g>
    </g>
    <g id="text_12">
     <!-- $\tilde P^{(4)}_{s,2}$ -->
     <defs>
      <path d="M -25.328125 66.890625 
L -28.109375 69.578125 
Q -29.171875 70.5625 -29.984375 71.015625 
Q -30.796875 71.484375 -31.421875 71.484375 
Q -33.28125 71.484375 -34.15625 69.703125 
Q -35.03125 67.921875 -35.140625 63.921875 
L -41.234375 63.921875 
Q -41.140625 70.515625 -38.640625 74.09375 
Q -36.15625 77.6875 -31.71875 77.6875 
Q -29.859375 77.6875 -28.296875 77 
Q -26.734375 76.3125 -24.9375 74.703125 
L -22.140625 72.015625 
Q -21.078125 71.046875 -20.265625 70.578125 
Q -19.46875 70.125 -18.828125 70.125 
Q -16.96875 70.125 -16.09375 71.90625 
Q -15.21875 73.6875 -15.109375 77.6875 
L -9.015625 77.6875 
Q -9.109375 71.09375 -11.59375 67.5 
Q -14.09375 63.921875 -18.53125 63.921875 
Q -20.390625 63.921875 -21.953125 64.59375 
Q -23.515625 65.28125 -25.328125 66.890625 
" id="DejaVuSans-303"/>
      <path d="M 16.890625 72.90625 
L 39.703125 72.90625 
Q 49.65625 72.90625 54.875 68.265625 
Q 60.109375 63.625 60.109375 54.6875 
Q 60.109375 42.671875 52.390625 35.984375 
Q 44.671875 29.296875 30.71875 29.296875 
L 18.3125 29.296875 
L 12.59375 0 
L 2.6875 0 
z
M 25.203125 64.796875 
L 19.921875 37.40625 
L 32.328125 37.40625 
Q 40.71875 37.40625 45.203125 41.703125 
Q 49.703125 46 49.703125 54 
Q 49.703125 59.125 46.65625 61.953125 
Q 43.609375 64.796875 38.09375 64.796875 
z
" id="DejaVuSans-Oblique-50"/>
      <path d="M 50 53.078125 
L 48.296875 44.578125 
Q 44.734375 46.53125 40.765625 47.5 
Q 36.8125 48.484375 32.625 48.484375 
Q 25.53125 48.484375 21.453125 46.0625 
Q 17.390625 43.65625 17.390625 39.5 
Q 17.390625 34.671875 26.859375 32.078125 
Q 27.59375 31.890625 27.9375 31.78125 
L 30.8125 30.90625 
Q 39.796875 28.421875 42.796875 25.6875 
Q 45.796875 22.953125 45.796875 18.21875 
Q 45.796875 9.515625 38.890625 4.046875 
Q 31.984375 -1.421875 20.796875 -1.421875 
Q 16.453125 -1.421875 11.671875 -0.578125 
Q 6.890625 0.25 1.125 2 
L 2.875 11.28125 
Q 7.8125 8.734375 12.59375 7.421875 
Q 17.390625 6.109375 21.78125 6.109375 
Q 28.375 6.109375 32.5 8.9375 
Q 36.625 11.765625 36.625 16.109375 
Q 36.625 20.796875 25.78125 23.6875 
L 24.859375 23.921875 
L 21.78125 24.703125 
Q 14.9375 26.515625 11.765625 29.46875 
Q 8.59375 32.421875 8.59375 37.015625 
Q 8.59375 45.75 15.15625 50.875 
Q 21.734375 56 33.015625 56 
Q 37.453125 56 41.671875 55.265625 
Q 45.90625 54.546875 50 53.078125 
" id="DejaVuSans-Oblique-73"/>
      <path d="M 11.71875 12.40625 
L 22.015625 12.40625 
L 22.015625 4 
L 14.015625 -11.625 
L 7.71875 -11.625 
L 11.71875 4 
z
" id="DejaVuSans-2c"/>
     </defs>
     <g transform="translate(20.8 103.610938)rotate(-90)scale(0.1 -0.1)">
      <use transform="translate(60.589844 22.03125)" xlink:href="#DejaVuSans-303"/>
      <use transform="translate(0 0.546875)" xlink:href="#DejaVuSans-Oblique-50"/>
      <use transform="translate(61.259766 46.8875)scale(0.7)" xlink:href="#DejaVuSans-28"/>
      <use transform="translate(88.569336 46.8875)scale(0.7)" xlink:href="#DejaVuSans-34"/>
      <use transform="translate(133.105469 46.8875)scale(0.7)" xlink:href="#DejaVuSans-29"/>
      <use transform="translate(61.259766 -26.796875)scale(0.7)" xlink:href="#DejaVuSans-Oblique-73"/>
      <use transform="translate(97.729492 -26.796875)scale(0.7)" xlink:href="#DejaVuSans-2c"/>
      <use transform="translate(133.618164 -26.796875)scale(0.7)" xlink:href="#DejaVuSans-32"/>
     </g>
    </g>
   </g>
   <g id="line2d_11">
    <defs>
     <path d="M 0 2 
C 0.530406 2 1.03916 1.789267 1.414214 1.414214 
C 1.789267 1.03916 2 0.530406 2 0 
C 2 -0.530406 1.789267 -1.03916 1.414214 -1.414214 
C 1.03916 -1.789267 0.530406 -2 0 -2 
C -0.530406 -2 -1.03916 -1.789267 -1.414214 -1.414214 
C -1.789267 -1.03916 -2 -0.530406 -2 0 
C -2 0.530406 -1.789267 1.03916 -1.414214 1.414214 
C -1.03916 1.789267 -0.530406 2 0 2 
z
" id="m4cc0933e5a" style="stroke:#ff0000;stroke-width:0.75;"/>
    </defs>
    <g clip-path="url(#p039836feee)">
     <use style="fill:none;stroke:#ff0000;stroke-width:0.75;" x="73.558665" xlink:href="#m4cc0933e5a" y="21.596449"/>
     <use style="fill:none;stroke:#ff0000;stroke-width:0.75;" x="75.503673" xlink:href="#m4cc0933e5a" y="33.73494"/>
     <use style="fill:none;stroke:#ff0000;stroke-width:0.75;" x="77.448681" xlink:href="#m4cc0933e5a" y="64.490375"/>
     <use style="fill:none;stroke:#ff0000;stroke-width:0.75;" x="79.393689" xlink:href="#m4cc0933e5a" y="82.553876"/>
     <use style="fill:none;stroke:#ff0000;stroke-width:0.75;" x="81.338697" xlink:href="#m4cc0933e5a" y="44.761443"/>
     <use style="fill:none;stroke:#ff0000;stroke-width:0.75;" x="83.283705" xlink:href="#m4cc0933e5a" y="87.624865"/>
     <use style="fill:none;stroke:#ff0000;stroke-width:0.75;" x="85.228713" xlink:href="#m4cc0933e5a" y="84.827067"/>
     <use style="fill:none;stroke:#ff0000;stroke-width:0.75;" x="87.173722" xlink:href="#m4cc0933e5a" y="76.023304"/>
     <use style="fill:none;stroke:#ff0000;stroke-width:0.75;" x="89.11873" xlink:href="#m4cc0933e5a" y="106.87238"/>
     <use style="fill:none;stroke:#ff0000;stroke-width:0.75;" x="91.063738" xlink:href="#m4cc0933e5a" y="101.143505"/>
     <use style="fill:none;stroke:#ff0000;stroke-width:0.75;" x="93.008746" xlink:href="#m4cc0933e5a" y="89.099681"/>
     <use style="fill:none;stroke:#ff0000;stroke-width:0.75;" x="94.953754" xlink:href="#m4cc0933e5a" y="75.896104"/>
     <use style="fill:none;stroke:#ff0000;stroke-width:0.75;" x="96.898762" xlink:href="#m4cc0933e5a" y="86.082956"/>
     <use style="fill:none;stroke:#ff0000;stroke-width:0.75;" x="98.84377" xlink:href="#m4cc0933e5a" y="94.138742"/>
     <use style="fill:none;stroke:#ff0000;stroke-width:0.75;" x="100.788778" xlink:href="#m4cc0933e5a" y="99.27321"/>
     <use style="fill:none;stroke:#ff0000;stroke-width:0.75;" x="102.733787" xlink:href="#m4cc0933e5a" y="98.509528"/>
     <use style="fill:none;stroke:#ff0000;stroke-width:0.75;" x="104.678795" xlink:href="#m4cc0933e5a" y="117.282483"/>
     <use style="fill:none;stroke:#ff0000;stroke-width:0.75;" x="106.623803" xlink:href="#m4cc0933e5a" y="92.353179"/>
     <use style="fill:none;stroke:#ff0000;stroke-width:0.75;" x="108.568811" xlink:href="#m4cc0933e5a" y="99.700118"/>
     <use style="fill:none;stroke:#ff0000;stroke-width:0.75;" x="110.513819" xlink:href="#m4cc0933e5a" y="107.720088"/>
     <use style="fill:none;stroke:#ff0000;stroke-width:0.75;" x="112.458827" xlink:href="#m4cc0933e5a" y="100.880171"/>
     <use style="fill:none;stroke:#ff0000;stroke-width:0.75;" x="114.403835" xlink:href="#m4cc0933e5a" y="74.381072"/>
     <use style="fill:none;stroke:#ff0000;stroke-width:0.75;" x="116.348843" xlink:href="#m4cc0933e5a" y="68.517029"/>
     <use style="fill:none;stroke:#ff0000;stroke-width:0.75;" x="118.293851" xlink:href="#m4cc0933e5a" y="99.678383"/>
     <use style="fill:none;stroke:#ff0000;stroke-width:0.75;" x="120.23886" xlink:href="#m4cc0933e5a" y="89.553836"/>
     <use style="fill:none;stroke:#ff0000;stroke-width:0.75;" x="122.183868" xlink:href="#m4cc0933e5a" y="94.558676"/>
     <use style="fill:none;stroke:#ff0000;stroke-width:0.75;" x="124.128876" xlink:href="#m4cc0933e5a" y="106.055864"/>
     <use style="fill:none;stroke:#ff0000;stroke-width:0.75;" x="126.073884" xlink:href="#m4cc0933e5a" y="95.824406"/>
     <use style="fill:none;stroke:#ff0000;stroke-width:0.75;" x="128.018892" xlink:href="#m4cc0933e5a" y="90.79031"/>
     <use style="fill:none;stroke:#ff0000;stroke-width:0.75;" x="129.9639" xlink:href="#m4cc0933e5a" y="103.881267"/>
     <use style="fill:none;stroke:#ff0000;stroke-width:0.75;" x="131.908908" xlink:href="#m4cc0933e5a" y="120.446169"/>
     <use style="fill:none;stroke:#ff0000;stroke-width:0.75;" x="133.853916" xlink:href="#m4cc0933e5a" y="103.034106"/>
     <use style="fill:none;stroke:#ff0000;stroke-width:0.75;" x="135.798925" xlink:href="#m4cc0933e5a" y="112.223308"/>
     <use style="fill:none;stroke:#ff0000;stroke-width:0.75;" x="137.743933" xlink:href="#m4cc0933e5a" y="111.521765"/>
     <use style="fill:none;stroke:#ff0000;stroke-width:0.75;" x="139.688941" xlink:href="#m4cc0933e5a" y="134.992444"/>
     <use style="fill:none;stroke:#ff0000;stroke-width:0.75;" x="141.633949" xlink:href="#m4cc0933e5a" y="97.541858"/>
     <use style="fill:none;stroke:#ff0000;stroke-width:0.75;" x="143.578957" xlink:href="#m4cc0933e5a" y="95.662252"/>
     <use style="fill:none;stroke:#ff0000;stroke-width:0.75;" x="145.523965" xlink:href="#m4cc0933e5a" y="107.018665"/>
     <use style="fill:none;stroke:#ff0000;stroke-width:0.75;" x="147.468973" xlink:href="#m4cc0933e5a" y="102.321516"/>
     <use style="fill:none;stroke:#ff0000;stroke-width:0.75;" x="149.413981" xlink:href="#m4cc0933e5a" y="134.307261"/>
    </g>
   </g>
   <g id="line2d_12">
    <defs>
     <path d="M 0 2 
C 0.530406 2 1.03916 1.789267 1.414214 1.414214 
C 1.789267 1.03916 2 0.530406 2 0 
C 2 -0.530406 1.789267 -1.03916 1.414214 -1.414214 
C 1.03916 -1.789267 0.530406 -2 0 -2 
C -0.530406 -2 -1.03916 -1.789267 -1.414214 -1.414214 
C -1.789267 -1.03916 -2 -0.530406 -2 0 
C -2 0.530406 -1.789267 1.03916 -1.414214 1.414214 
C -1.03916 1.789267 -0.530406 2 0 2 
z
" id="mb69935762a" style="stroke:#000000;stroke-width:0.75;"/>
    </defs>
    <g clip-path="url(#p039836feee)">
     <use style="fill:none;stroke:#000000;stroke-width:0.75;" x="151.358989" xlink:href="#mb69935762a" y="113.851081"/>
     <use style="fill:none;stroke:#000000;stroke-width:0.75;" x="153.303998" xlink:href="#mb69935762a" y="104.979352"/>
     <use style="fill:none;stroke:#000000;stroke-width:0.75;" x="155.249006" xlink:href="#mb69935762a" y="135.198836"/>
     <use style="fill:none;stroke:#000000;stroke-width:0.75;" x="157.194014" xlink:href="#mb69935762a" y="107.82796"/>
     <use style="fill:none;stroke:#000000;stroke-width:0.75;" x="159.139022" xlink:href="#mb69935762a" y="130.337173"/>
     <use style="fill:none;stroke:#000000;stroke-width:0.75;" x="161.08403" xlink:href="#mb69935762a" y="139.441995"/>
     <use style="fill:none;stroke:#000000;stroke-width:0.75;" x="163.029038" xlink:href="#mb69935762a" y="138.750412"/>
     <use style="fill:none;stroke:#000000;stroke-width:0.75;" x="164.974046" xlink:href="#mb69935762a" y="111.666223"/>
     <use style="fill:none;stroke:#000000;stroke-width:0.75;" x="166.919054" xlink:href="#mb69935762a" y="117.096604"/>
     <use style="fill:none;stroke:#000000;stroke-width:0.75;" x="168.864063" xlink:href="#mb69935762a" y="137.838352"/>
     <use style="fill:none;stroke:#000000;stroke-width:0.75;" x="170.809071" xlink:href="#mb69935762a" y="140.428492"/>
     <use style="fill:none;stroke:#000000;stroke-width:0.75;" x="172.754079" xlink:href="#mb69935762a" y="129.925107"/>
     <use style="fill:none;stroke:#000000;stroke-width:0.75;" x="174.699087" xlink:href="#mb69935762a" y="136.146672"/>
     <use style="fill:none;stroke:#000000;stroke-width:0.75;" x="176.644095" xlink:href="#mb69935762a" y="104.881651"/>
     <use style="fill:none;stroke:#000000;stroke-width:0.75;" x="178.589103" xlink:href="#mb69935762a" y="100.891702"/>
     <use style="fill:none;stroke:#000000;stroke-width:0.75;" x="180.534111" xlink:href="#mb69935762a" y="119.330005"/>
     <use style="fill:none;stroke:#000000;stroke-width:0.75;" x="182.479119" xlink:href="#mb69935762a" y="131.425002"/>
     <use style="fill:none;stroke:#000000;stroke-width:0.75;" x="184.424127" xlink:href="#mb69935762a" y="129.44576"/>
     <use style="fill:none;stroke:#000000;stroke-width:0.75;" x="186.369136" xlink:href="#mb69935762a" y="133.219829"/>
     <use style="fill:none;stroke:#000000;stroke-width:0.75;" x="188.314144" xlink:href="#mb69935762a" y="135.731512"/>
     <use style="fill:none;stroke:#000000;stroke-width:0.75;" x="190.259152" xlink:href="#mb69935762a" y="131.447279"/>
     <use style="fill:none;stroke:#000000;stroke-width:0.75;" x="192.20416" xlink:href="#mb69935762a" y="112.022745"/>
     <use style="fill:none;stroke:#000000;stroke-width:0.75;" x="194.149168" xlink:href="#mb69935762a" y="146.782954"/>
     <use style="fill:none;stroke:#000000;stroke-width:0.75;" x="196.094176" xlink:href="#mb69935762a" y="102.765828"/>
     <use style="fill:none;stroke:#000000;stroke-width:0.75;" x="198.039184" xlink:href="#mb69935762a" y="106.311394"/>
     <use style="fill:none;stroke:#000000;stroke-width:0.75;" x="199.984192" xlink:href="#mb69935762a" y="115.129806"/>
     <use style="fill:none;stroke:#000000;stroke-width:0.75;" x="201.9292" xlink:href="#mb69935762a" y="95.959102"/>
     <use style="fill:none;stroke:#000000;stroke-width:0.75;" x="203.874209" xlink:href="#mb69935762a" y="113.053914"/>
     <use style="fill:none;stroke:#000000;stroke-width:0.75;" x="205.819217" xlink:href="#mb69935762a" y="101.673093"/>
     <use style="fill:none;stroke:#000000;stroke-width:0.75;" x="207.764225" xlink:href="#mb69935762a" y="125.873787"/>
     <use style="fill:none;stroke:#000000;stroke-width:0.75;" x="209.709233" xlink:href="#mb69935762a" y="130.978448"/>
     <use style="fill:none;stroke:#000000;stroke-width:0.75;" x="211.654241" xlink:href="#mb69935762a" y="125.610265"/>
     <use style="fill:none;stroke:#000000;stroke-width:0.75;" x="213.599249" xlink:href="#mb69935762a" y="111.229441"/>
     <use style="fill:none;stroke:#000000;stroke-width:0.75;" x="215.544257" xlink:href="#mb69935762a" y="149.399062"/>
     <use style="fill:none;stroke:#000000;stroke-width:0.75;" x="217.489265" xlink:href="#mb69935762a" y="146.555564"/>
     <use style="fill:none;stroke:#000000;stroke-width:0.75;" x="219.434274" xlink:href="#mb69935762a" y="130.74743"/>
     <use style="fill:none;stroke:#000000;stroke-width:0.75;" x="221.379282" xlink:href="#mb69935762a" y="126.075806"/>
     <use style="fill:none;stroke:#000000;stroke-width:0.75;" x="223.32429" xlink:href="#mb69935762a" y="134.339954"/>
     <use style="fill:none;stroke:#000000;stroke-width:0.75;" x="225.269298" xlink:href="#mb69935762a" y="150.227748"/>
     <use style="fill:none;stroke:#000000;stroke-width:0.75;" x="227.214306" xlink:href="#mb69935762a" y="149.356482"/>
     <use style="fill:none;stroke:#000000;stroke-width:0.75;" x="229.159314" xlink:href="#mb69935762a" y="105.742181"/>
     <use style="fill:none;stroke:#000000;stroke-width:0.75;" x="231.104322" xlink:href="#mb69935762a" y="167.525426"/>
     <use style="fill:none;stroke:#000000;stroke-width:0.75;" x="233.04933" xlink:href="#mb69935762a" y="129.194256"/>
     <use style="fill:none;stroke:#000000;stroke-width:0.75;" x="234.994338" xlink:href="#mb69935762a" y="131.302882"/>
     <use style="fill:none;stroke:#000000;stroke-width:0.75;" x="236.939347" xlink:href="#mb69935762a" y="154.589622"/>
     <use style="fill:none;stroke:#000000;stroke-width:0.75;" x="238.884355" xlink:href="#mb69935762a" y="131.554726"/>
     <use style="fill:none;stroke:#000000;stroke-width:0.75;" x="240.829363" xlink:href="#mb69935762a" y="142.058145"/>
     <use style="fill:none;stroke:#000000;stroke-width:0.75;" x="242.774371" xlink:href="#mb69935762a" y="152.079664"/>
     <use style="fill:none;stroke:#000000;stroke-width:0.75;" x="244.719379" xlink:href="#mb69935762a" y="150.762858"/>
     <use style="fill:none;stroke:#000000;stroke-width:0.75;" x="246.664387" xlink:href="#mb69935762a" y="112.643008"/>
     <use style="fill:none;stroke:#000000;stroke-width:0.75;" x="248.609395" xlink:href="#mb69935762a" y="125.010553"/>
     <use style="fill:none;stroke:#000000;stroke-width:0.75;" x="250.554403" xlink:href="#mb69935762a" y="75.263116"/>
     <use style="fill:none;stroke:#000000;stroke-width:0.75;" x="252.499412" xlink:href="#mb69935762a" y="132.76828"/>
     <use style="fill:none;stroke:#000000;stroke-width:0.75;" x="254.44442" xlink:href="#mb69935762a" y="124.810283"/>
     <use style="fill:none;stroke:#000000;stroke-width:0.75;" x="256.389428" xlink:href="#mb69935762a" y="152.857669"/>
     <use style="fill:none;stroke:#000000;stroke-width:0.75;" x="258.334436" xlink:href="#mb69935762a" y="136.505375"/>
     <use style="fill:none;stroke:#000000;stroke-width:0.75;" x="260.279444" xlink:href="#mb69935762a" y="152.526097"/>
     <use style="fill:none;stroke:#000000;stroke-width:0.75;" x="262.224452" xlink:href="#mb69935762a" y="156.504449"/>
     <use style="fill:none;stroke:#000000;stroke-width:0.75;" x="264.16946" xlink:href="#mb69935762a" y="118.786691"/>
    </g>
   </g>
   <g id="line2d_13">
    <path clip-path="url(#p039836feee)" d="M 73.558665 26.655281 
L 75.503673 47.078361 
L 77.448681 58.720048 
L 79.393689 66.330481 
L 81.338697 71.756728 
L 83.283705 75.86663 
L 85.228713 79.121784 
L 87.173722 81.790347 
L 89.11873 84.038761 
L 91.063738 85.975802 
L 93.008746 87.675562 
L 94.953754 89.190257 
L 96.898762 90.557743 
L 98.84377 91.806137 
L 100.788778 92.95676 
L 102.733787 94.026072 
L 104.678795 95.026984 
L 106.623803 95.969768 
L 108.568811 96.862694 
L 110.513819 97.712499 
L 112.458827 98.524726 
L 114.403835 99.303977 
L 116.348843 100.054104 
L 118.293851 100.778357 
L 120.23886 101.479498 
L 122.183868 102.159888 
L 124.128876 102.821556 
L 126.073884 103.466261 
L 128.018892 104.095529 
L 129.9639 104.710693 
L 131.908908 105.312926 
L 133.853916 105.903257 
L 135.798925 106.482602 
L 137.743933 107.051769 
L 139.688941 107.611482 
L 141.633949 108.162386 
L 143.578957 108.705061 
L 145.523965 109.240028 
L 147.468973 109.767757 
L 149.413981 110.288675 
L 151.358989 110.803166 
L 153.303998 111.311582 
L 155.249006 111.814243 
L 157.194014 112.311441 
L 159.139022 112.803443 
L 161.08403 113.290494 
L 163.029038 113.772821 
L 164.974046 114.25063 
L 166.919054 114.724114 
L 168.864063 115.193448 
L 170.809071 115.658798 
L 172.754079 116.120315 
L 174.699087 116.578141 
L 176.644095 117.032406 
L 178.589103 117.483233 
L 180.534111 117.930736 
L 182.479119 118.375022 
L 184.424127 118.816191 
L 186.369136 119.254336 
L 188.314144 119.689544 
L 190.259152 120.121899 
L 192.20416 120.551477 
L 194.149168 120.978351 
L 196.094176 121.402591 
L 198.039184 121.82426 
L 199.984192 122.243421 
L 201.9292 122.66013 
L 203.874209 123.074444 
L 205.819217 123.486413 
L 207.764225 123.896087 
L 209.709233 124.303513 
L 211.654241 124.708735 
L 213.599249 125.111795 
L 215.544257 125.512735 
L 217.489265 125.911591 
L 219.434274 126.308402 
L 221.379282 126.7032 
L 223.32429 127.096021 
L 225.269298 127.486896 
L 227.214306 127.875855 
L 229.159314 128.262928 
L 231.104322 128.648143 
L 233.04933 129.031526 
L 234.994338 129.413104 
L 236.939347 129.792901 
L 238.884355 130.170941 
L 240.829363 130.547247 
L 242.774371 130.921841 
L 244.719379 131.294745 
L 246.664387 131.665978 
L 248.609395 132.035561 
L 250.554403 132.403513 
L 252.499412 132.769852 
L 254.44442 133.134596 
L 256.389428 133.497762 
L 258.334436 133.859367 
L 260.279444 134.219427 
L 262.224452 134.577958 
L 264.16946 134.934975 
" style="fill:none;stroke:#ff0000;stroke-dasharray:5.6,2.4;stroke-dashoffset:0;stroke-width:1.5;"/>
   </g>
   <g id="patch_3">
    <path d="M 64.028125 174.821875 
L 64.028125 14.3 
" style="fill:none;stroke:#000000;stroke-linecap:square;stroke-linejoin:miter;stroke-width:0.8;"/>
   </g>
   <g id="patch_4">
    <path d="M 273.7 174.821875 
L 273.7 14.3 
" style="fill:none;stroke:#000000;stroke-linecap:square;stroke-linejoin:miter;stroke-width:0.8;"/>
   </g>
   <g id="patch_5">
    <path d="M 64.028125 174.821875 
L 273.7 174.821875 
" style="fill:none;stroke:#000000;stroke-linecap:square;stroke-linejoin:miter;stroke-width:0.8;"/>
   </g>
   <g id="patch_6">
    <path d="M 64.028125 14.3 
L 273.7 14.3 
" style="fill:none;stroke:#000000;stroke-linecap:square;stroke-linejoin:miter;stroke-width:0.8;"/>
   </g>
  </g>
 </g>
 <defs>
  <clipPath id="p039836feee">
   <rect height="160.521875" width="209.671875" x="64.028125" y="14.3"/>
  </clipPath>
 </defs>
</svg>
